<?xml version="1.0" encoding="utf-8"?>
<!-- Generator: Adobe Illustrator 21.1.0, SVG Export Plug-In . SVG Version: 6.00 Build 0)  -->
<svg version="1.1" id="Layer_1" xmlns="http://www.w3.org/2000/svg" xmlns:xlink="http://www.w3.org/1999/xlink" x="0px" y="0px"
	 viewBox="0 0 590 628.9" style="enable-background:new 0 0 590 628.9;" xml:space="preserve">
<style type="text/css">
	.st0{fill:#F4F4F4;}
	.st1{fill:#25346C;}
	.st2{fill:#FFFFFF;}
	.st3{font-family:'ProximaNova-Black';}
	.st4{font-size:72px;}
</style>
<path class="st0" d="M290.3,198H301c6.6,0,12,3.6,12,8.1v407.8c0,4.5-5.4,8.1-12,8.1h-10.6c-6.6,0-12-3.6-12-8.1V206.1
	C278.3,201.6,283.7,198,290.3,198z"/>
<path class="st1" d="M31.2,48.4L547.1,9c6.6-0.5,12.4,4.4,12.9,11l11.7,152.5c0.5,6.6-4.4,12.4-11,12.9L44.7,224.9
	c-6.6,0.5-12.4-4.4-12.9-11L20.1,61.3C19.6,54.7,24.6,48.9,31.2,48.4z"/>
<path class="st2" d="M35.9,58.8L543,20c3.1-0.2,5.9,2.1,6.1,5.2l11,143.8c0.2,3.1-2.1,5.9-5.2,6.1L47.8,213.9
	c-3.1,0.2-5.9-2.1-6.1-5.2l-11-143.8C30.4,61.8,32.8,59.1,35.9,58.8z"/>
<path class="st1" d="M41.5,65.6l497.1-38c2.4-0.2,4.5,1.6,4.7,4l10.1,132c0.2,2.4-1.6,4.5-4,4.7l-497.1,38c-2.4,0.2-4.5-1.6-4.7-4
	l-10.1-132C37.3,67.9,39.1,65.8,41.5,65.6z"/>
<text transform="matrix(0.9971 -7.628211e-02 7.628211e-02 0.9971 100.0336 150.4061)" class="st2 st3 st4">Amsterdam</text>
</svg>
