<?xml version="1.0" encoding="utf-8"?>
<!-- Generator: Adobe Illustrator 21.1.0, SVG Export Plug-In . SVG Version: 6.00 Build 0)  -->
<svg version="1.1" id="Layer_1" xmlns="http://www.w3.org/2000/svg" xmlns:xlink="http://www.w3.org/1999/xlink" x="0px" y="0px"
	 viewBox="0 0 397.3 326" style="enable-background:new 0 0 397.3 326;" xml:space="preserve">
<style type="text/css">
	.st0{fill:#3C3C3B;}
	.st1{fill:#DFE5F2;}
</style>
<path class="st0" d="M388.4,0H8.9C4,0,0,4,0,8.9v308.2c0,4.9,4,8.9,8.9,8.9h379.5c4.9,0,8.9-4,8.9-8.9V8.9C397.3,4,393.3,0,388.4,0z
	"/>
<g>
	<path class="st1" d="M294.4,0.4L294.4,0.4c1.2,0,2.2,1,2.2,2.2V39c0,1.2-1,2.2-2.2,2.2l0,0c-1.2,0-2.2-1-2.2-2.2V2.6
		C292.2,1.4,293.2,0.4,294.4,0.4z"/>
	<path class="st1" d="M297.4,65c12.7,0,23,10.3,23,23s-10.3,23-23,23s-23-10.3-23-23l0,0C274.4,75.3,284.7,65,297.4,65z"/>
	<path class="st1" d="M102.1,0.4L102.1,0.4c1.2,0,2.2,1,2.2,2.2V39c0,1.2-1,2.2-2.2,2.2l0,0c-1.2,0-2.2-1-2.2-2.2V2.6
		C99.9,1.3,100.9,0.4,102.1,0.4z"/>
	<path class="st1" d="M101.4,56c18,0,32.7,14.6,32.7,32.7c0,18-14.6,32.7-32.7,32.7s-32.7-14.6-32.7-32.7l0,0
		C68.7,70.7,83.3,56.1,101.4,56L101.4,56z"/>
	<path class="st1" d="M3.4,86.5h55.7c1.2,0,2.2,1,2.2,2.2l0,0c0,1.2-1,2.2-2.2,2.2H3.4c-1.2,0-2.2-1-2.2-2.2l0,0
		C1.1,87.5,2.1,86.5,3.4,86.5z"/>
	<path class="st1" d="M3.4,245.4h55.7c1.2,0,2.2,1,2.2,2.2l0,0c0,1.2-1,2.2-2.2,2.2H3.4c-1.2,0-2.2-1-2.2-2.2l0,0
		C1.1,246.4,2.1,245.4,3.4,245.4z"/>
	<path class="st1" d="M102.1,284.8L102.1,284.8c1.2,0,2.2,1,2.2,2.2v36.4c0,1.2-1,2.2-2.2,2.2l0,0c-1.2,0-2.2-1-2.2-2.2V287
		C99.9,285.8,100.9,284.8,102.1,284.8z"/>
	<path class="st1" d="M102.1,259.5c-7.8,0-14.1-6.3-14.1-14.1s6.3-14.1,14.1-14.1s14.1,6.3,14.1,14.1S109.9,259.5,102.1,259.5z"/>
	<path class="st1" d="M294.4,284.8L294.4,284.8c1.2,0,2.2,1,2.2,2.2v36.4c0,1.2-1,2.2-2.2,2.2l0,0c-1.2,0-2.2-1-2.2-2.2V287
		C292.2,285.8,293.2,284.8,294.4,284.8z"/>
	<path class="st1" d="M296.7,268.4c-12.7,0-23-10.3-23-23s10.3-23,23-23s23,10.3,23,23l0,0C319.7,258.1,309.4,268.4,296.7,268.4z"/>
	<path class="st1" d="M338.3,240.2H394c1.2,0,2.2,1,2.2,2.2l0,0c0,1.2-1,2.2-2.2,2.2h-55.7c-1.2,0-2.2-1-2.2-2.2l0,0
		C336,241.2,337,240.2,338.3,240.2z"/>
	<path class="st1" d="M393.9,163h-94.3c-1.2,0-2.2,1-2.2,2.2v29.7c0,1.2-1,2.2-2.2,2.2l0,0c-1.2,0-2.2-1-2.2-2.2l0,0v-29.7
		c0-1.2-1-2.2-2.2-2.2h-83.9c-1.2,0-2.2,1-2.2,2.2V238c0,1.2,1,2.2,2.2,2.2h49.8c1.2,0,2.2,1,2.2,2.2s-1,2.2-2.2,2.2h-49.8
		c-1.2,0-2.2,1-2.2,2.2l0,0v72.8c0,1.2-1,2.2-2.2,2.2s-2.2-1-2.2-2.2l0,0v-72.8c0-1.2-1-2.2-2.2-2.2l0,0h-46c-1.2,0-2.2-1-2.2-2.2
		s1-2.2,2.2-2.2h46c1.2,0,2.2-1,2.2-2.2v-72.8c0-1.2-1-2.2-2.2-2.2h-91.4c-1.2,0-2.2,1-2.2,2.2v29.7c0,1.2-1,2.2-2.2,2.2l0,0
		c-1.2,0-2.2-1-2.2-2.2l0,0v-29.7c0-1.2-1-2.2-2.2-2.2H5.8c-1.2,0-2.2-1-2.2-2.2l0,0c0-1.2,1-2.2,2.2-2.2l0,0h92.1
		c1.2,0,2.2-1,2.2-2.2v-24.5c0-1.2,1-2.2,2.2-2.2l0,0c1.2,0,2.2,1,2.2,2.2l0,0v24.5c0,1.2,1,2.2,2.2,2.2H198c1.2,0,2.2-1,2.2-2.2
		V88.1c0-1.2-1-2.2-2.2-2.2h-46c-1.2,0-2.2-1-2.2-2.2l0,0c0-1.2,1-2.2,2.2-2.2l0,0h46c1.2,0,2.2-1,2.2-2.2v-72c0-1.2,1-2.2,2.2-2.2
		l0,0c1.2,0,2.2,1,2.2,2.2l0,0v72c0,1.2,1,2.2,2.2,2.2h49.8c1.2,0,2.2,1,2.2,2.2l0,0c0,1.2-1,2.2-2.2,2.2l0,0h-49.8
		c-1.2,0-2.2,1-2.2,2.2v68.3c0,1.2,1,2.2,2.2,2.2h83.9c1.2,0,2.2-1,2.2-2.2v-24.5c0-1.2,1-2.2,2.2-2.2l0,0c1.2,0,2.2,1,2.2,2.2v24.5
		c0,1.2,1,2.2,2.2,2.2l0,0h94.3c1.2,0,2.2,1,2.2,2.2C396.2,162,395.2,163,393.9,163L393.9,163L393.9,163z"/>
	<path class="st1" d="M338.3,81.3H394c1.2,0,2.2,1,2.2,2.2l0,0c0,1.2-1,2.2-2.2,2.2h-55.7c-1.2,0-2.2-1-2.2-2.2l0,0
		C336,82.3,337,81.3,338.3,81.3z"/>
</g>
</svg>
