<?xml version="1.0" encoding="utf-8"?>
<!-- Generator: Adobe Illustrator 21.1.0, SVG Export Plug-In . SVG Version: 6.00 Build 0)  -->
<svg version="1.1" id="Layer_1" xmlns="http://www.w3.org/2000/svg" xmlns:xlink="http://www.w3.org/1999/xlink" x="0px" y="0px"
	 viewBox="0 0 394.6 323.9" style="enable-background:new 0 0 394.6 323.9;" xml:space="preserve">
<style type="text/css">
	.st0{fill:#3C3C3B;}
	.st1{fill:#DFE5F2;}
</style>
<path class="st0" d="M385.8,0H8.9C4,0,0,4,0,8.9V315c0,4.9,4,8.8,8.9,8.9h376.9c4.9,0,8.8-4,8.9-8.9V8.9C394.6,4,390.6,0,385.8,0
	L385.8,0z"/>
<path class="st1" d="M97.8,290.7c-36.3,0-65.7-29.4-65.7-65.7c0-36.3,29.4-65.7,65.7-65.7c36.3,0,65.7,29.4,65.7,65.7
	S134,290.7,97.8,290.7L97.8,290.7z"/>
<path class="st1" d="M113,142.5c-30.1,0-54.5-24.4-54.5-54.5S82.9,33.5,113,33.5c30.1,0,54.5,24.4,54.5,54.5
	C167.5,118.1,143.1,142.5,113,142.5C113,142.5,113,142.5,113,142.5L113,142.5z"/>
<path class="st1" d="M278.3,33.5c30.1,0,54.5,24.4,54.5,54.5s-24.4,54.5-54.5,54.5c-30.1,0-54.5-24.4-54.5-54.5
	C223.8,57.9,248.2,33.5,278.3,33.5C278.3,33.5,278.3,33.5,278.3,33.5z"/>
<path class="st1" d="M297,290.7c-36.3,0-65.7-29.4-65.7-65.7c0-36.3,29.4-65.7,65.7-65.7c36.3,0,65.7,29.4,65.7,65.7c0,0,0,0,0,0
	C362.6,261.3,333.2,290.7,297,290.7L297,290.7z"/>
</svg>
