<?xml version="1.0" encoding="utf-8"?>
<!-- Generator: Adobe Illustrator 21.1.0, SVG Export Plug-In . SVG Version: 6.00 Build 0)  -->
<svg version="1.1" id="Isolation_Mode" xmlns="http://www.w3.org/2000/svg" xmlns:xlink="http://www.w3.org/1999/xlink" x="0px"
	 y="0px" viewBox="0 0 157 507.8" style="enable-background:new 0 0 157 507.8;" xml:space="preserve">
<style type="text/css">
	.st0{fill:#FFFFFF;}
</style>
<title>logo-amsterdam</title>
<rect x="-17" y="63.2" transform="matrix(0.7054 -0.7088 0.7088 0.7054 -32.5228 78.7182)" class="st0" width="191" height="30.6"/>
<rect x="63.2" y="-17" transform="matrix(0.7054 -0.7088 0.7088 0.7054 -32.5164 78.7567)" class="st0" width="30.6" height="190.9"/>
<rect x="-17" y="238.6" transform="matrix(0.7054 -0.7088 0.7088 0.7054 -156.8691 130.4084)" class="st0" width="191" height="30.6"/>
<rect x="63.2" y="158.5" transform="matrix(0.7054 -0.7088 0.7088 0.7054 -156.8727 130.451)" class="st0" width="30.6" height="191"/>
<rect x="-17" y="414" transform="matrix(0.7054 -0.7088 0.7088 0.7054 -281.2153 182.0928)" class="st0" width="191" height="30.6"/>
<rect x="63.2" y="333.9" transform="matrix(0.7054 -0.7088 0.7088 0.7054 -281.2261 182.1384)" class="st0" width="30.6" height="191"/>
</svg>
