<svg enable-background="new 0 0 314 125" viewBox="0 0 314 125" xmlns="http://www.w3.org/2000/svg"><path d="m0 0h314v125h-314z" fill="none"/><path d="m0 0h50v100h-50z" fill="#154273"/><path d="m25.9 77.4h-.9v-2.4h.9zm3.9-10.7h-.8v-2.4h.9v2.4zm-16.1-4.1c-.1 0-.5 0-.5.1s.2 0 .5.1c.7.1 1 .5 1.5.5.4 0 .9-.3.7-.9 0-.1-.1-.1-.1 0-.1.3-.4.5-.8.5-.5-.2-.6-.3-1.3-.3zm-4.8 2.4c.1.1.9 1.2-.4 1.6-.1 0-.1.1 0 .1.9.4 1.4-.3 1.4-.3.5 1.1-.3 1.7-.3 1.7.1.2.5.5 1.2.7.3-.1.6-.4.8-.8 0 0 .2.5 0 .9 1.9.2 2.6-1.3 4-1.1 0 0 .1 0 .1-.1 0-.9-.6-2.7-2.4-3s-1.3-1.1-1.3-1.1c.8 0 1.2.3 1.2.3.1-.2-.1-.5-.1-.5.1-.1.1-.4.1-.4-.9 0-1.1-.2-1.1-.2-.1-.5.2-1.2 1.5-.5.3-.3.3-.7.3-.7.1 0 .2-.2.2-.3 0-.2-1-.8-1.3-.9-.1-.3-.5-.8-1.7-.6-.6.1-1-.1-.8-.4 0-.1-.1-.1-.1 0-.1.1-.3.5.2.8s.6.8.6.9-.1.1-.2 0c-.3-.9-1.5-1.1-2.3-.6 0 .5.6.8.9.8.2 0 .4-.2.4-.4 0-.1.1-.1.1 0 .1.3-.4 1-1.1.6-.7.7-.4 1.7-.4 2 .1.6-.2 1.2-.7.9h-.1c.2.5.7.9 1.3.6zm4.1-3.8c-.3.4-.9.3-1-.3.7 0 1 0 1 .3zm22.1 1.5c-.4 0-.7-.2-.8-.5 0-.1-.1-.1-.1 0-.2.6.3.9.7.9.5 0 .8-.4 1.5-.5.3-.1.5 0 .5-.1s-.5-.1-.5-.1c-.8.2-.9.3-1.3.3zm7.1 1.8c0-.1 0-.1 0 0-.6.2-.9-.4-.8-1 .1-.3.4-1.3-.4-2-.7.4-1.2-.3-1.1-.6 0-.1.1-.1.1 0 0 .2.2.4.4.4.3 0 .8-.3.9-.8-.8-.5-2-.3-2.3.6 0 .1-.2.1-.2 0s0-.6.6-.9c.5-.2.3-.6.2-.8-.1-.1-.2 0-.1 0 .2.3-.2.5-.8.4-1.2-.2-1.6.3-1.7.6-.3.1-1.3.6-1.3.9 0 .1.1.2.2.3 0 0 0 .4.3.7 1.3-.8 1.6-.1 1.5.5 0 0-.2.2-1.1.2 0 0 0 .3.1.4 0 0-.2.2-.1.5 0 0 .4-.3 1.2-.3 0 0 .5.7-1.3 1.1-1.8.3-2.4 2.1-2.4 3 0 0 0 .1.1.1 1.5-.3 2.1 1.2 4 1.1-.2-.4 0-.9 0-.9.1.4.5.7.8.8.7-.2 1.1-.5 1.2-.7 0 0-.7-.6-.2-1.7 0 0 .5.7 1.4.3.1 0 .1-.1 0-.1-1.3-.4-.4-1.5-.4-1.6.7.3 1.2-.1 1.2-.5zm-4.1-3.6c-.1.6-.7.7-1 .3 0-.3.3-.3 1-.3zm-13.4-10.7c0 .2.1.3.1.4.1.2.1.2 0 .3s-.1.1-.3 0c-.1-.1-.2-.1-.4-.1-.3 0-.4.2-.4.3 0 .2.1.3.4.3.2 0 .3-.1.4-.1.2-.1.2-.1.3 0s0 .6-.1 1c-.5.1-.7.5-.7.7 0 .5.6.9.9 1 .3-.2.9-.5.9-1 0-.2-.2-.6-.7-.7-.1-.4-.1-1-.1-1 .1-.1.1-.1.3 0 .1.1.2.1.4.1.3 0 .4-.2.4-.3 0-.2-.1-.3-.4-.3-.2 0-.3.1-.4.1-.2.1-.2.1-.3 0s-.1-.1 0-.3c.1-.1.1-.2.1-.4 0-.3-.2-.4-.3-.4.1 0-.1.1-.1.4zm.3 4.1c-.4 0-.7.3-.7.7s.3.7.7.7.7-.3.7-.7-.3-.7-.7-.7zm0 6.4c2.7 0 4.2.5 4.2.5 0-1.3 0-2.1.8-2-.4-1.1 1.4-1.6 1.4-3.1 0-1-.7-1.1-.9-1.1-.6 0-.5.4-1 .4-.1 0-.1 0-.1 0 0 .2.1.5.4.5s.3-.3.6-.3c.1 0 .2.1.2.4 0 .6-.4 1.3-.9 1.9-.1-.2-.3-.2-.4-.2-.3 0-.5.3-.5.7 0 .1 0 .2.1.4-.2.1-.3.1-.4.1-.2 0-.5-.1-.5-.6 0-1.1 1.4-2 1.4-3.4 0-.6-.4-1.3-1.3-1.3-1 0-.8.9-1.6.9h-.1c0 .1.1.5.6.5s.6-.8 1-.8c.2 0 .4.1.4.6 0 .4-.2 1.1-.5 1.8-.1-.1-.3-.2-.4-.2-.4 0-.6.3-.6.8 0 .3.1.5.3.7-.2.3-.4.5-.7.5-.6 0-.8-.3-.8-.7s.7-.5.7-1.1c0-.4-.3-.6-.5-.6-.3 0-.4.2-.4.2s-.2-.2-.4-.2c-.3 0-.5.2-.5.6 0 .6.7.7.7 1.1s-.3.7-.8.7c-.3 0-.5-.2-.7-.5.2-.2.3-.4.3-.7 0-.4-.3-.8-.6-.8-.2 0-.3.1-.4.2-.3-.7-.5-1.3-.5-1.8s.2-.6.4-.6c.4 0 .5.8 1 .8.4 0 .6-.5.6-.5s0 0-.1 0c-.8 0-.7-.9-1.6-.9s-1.3.6-1.3 1.3c0 1.4 1.4 2.3 1.4 3.4 0 .5-.3.6-.5.6-.1 0-.3-.1-.4-.1 0-.1.1-.2.1-.4 0-.4-.3-.7-.5-.7s-.3.1-.4.2c-.5-.5-.9-1.2-.9-1.9 0-.3.1-.4.2-.4.2 0 .2.3.6.3.2 0 .4-.3.4-.5h-.1c-.5 0-.4-.4-1-.4-.2 0-.9.1-.9 1.1 0 1.5 1.8 1.9 1.4 3.1.8-.1.8.6.8 2-.9 0 .6-.5 3.2-.5zm-4.9 2c-.7.2-1.2.3-1.5.4 0-.3.1-.6.4-.7v-.1c-.6-.4-1 .4-1 .4-.2 0-.6.1-.6.4 0 .9-2.1 1.4-2.6 1.5.9.3 1.2 1.4 1.2 1.4.6-.6 1.4-1.2 1.5-1.2.2 0 .2.2.2.3 0 0 0 .1.1 0 .3-.5.2-.6.1-.7 0-.1 0-.5.5-.5v6.2h-.2c-.1 0-1-.7-2.1-1.5-1-.7-1.6-.3-2.8.4-1.5.8-3.1.1-3.1.1-1.3 1-1.8 3.7-1.8 3.7-.3.1-.7.2-1.1.2-1 0-1.2-.6-1.2-1 0-1.6 2-2.2 2-3.8 0-.4-.2-1.9-2.1-1.9-.2 0-1.7 0-1.7 0-.7 0-.9-.5-1-.7 0-.1-.1 0-.1 0 .1.1-.1.3-.1.7 0 .6.4 1 1.1 1 .3 0 .6-.1.7-.1s.1 0 .1.1c-.3.4-.3 1-.2 1.2h.1c.2-.7.8-1.3 1.6-1.3 1 0 1 .9 1 1.1 0 1.3-2.2 2.2-2.2 3.9 0 1.8 1.9 2.1 2.9 1.9-.1 1.8-2.1 2.4-2.1 1.1 0-.1 0-.1-.1 0-.3.6-.2 1.2.6 1.3.1 0 0 0 0 .1-.8.5-.4 2.4-.3 3 .1.8-.8.7-.8.7s-.1 0 0 .1c.7.7 1.5.1 1.5.1.5.2.2.6-.2.9-.1 0-.1.1 0 .1s.9.1 1.1-.6c.4.4.9.3 1 .2.2-.1.9-.4 1 .5 0 .1 0 0 .1 0 .6-.7 0-1.2-.4-1.3 0 0 .5-.4.9.1h.1c0-.9-.7-1-1.2-.6 0-.1-.2-.6.6-.6 0 0 .1 0 0-.1-.6-.6-1.1-.1-1.2.1-.3.3-.9.2-1 .2.2-3.3 3.1-2.1 3.5-3.7 0-.1.1-.1.1 0 .1.4 1.1.4 1.3-.3-.8.8-2.7-1.8-.1-3.9 2.2-1.8 4.2-.8 4.9-.2 0 .3-.1.3-.2.4v.1c.2.1.5.1.6-.1.5.3.1.7-.1.9v.1c.4.1.8-.4.8-.6h.1v1.9c0 2.7 3.1 3 6.4 5.3 3.4-2.3 6.4-2.6 6.4-5.3v-1.9h.1c0 .3.4.7.8.6 0 0 .1 0 0-.1-.2-.1-.6-.5-.1-.9.1.2.4.2.6.1.1 0 0-.1 0-.1-.1 0-.3-.1-.2-.4.7-.6 2.7-1.6 4.9.2 2.6 2.1.7 4.7-.1 3.9.2.8 1.2.7 1.3.3 0 0 0-.1.1 0 .4 1.6 3.3.4 3.5 3.7-.1 0-.7.1-1-.2-.1-.1-.6-.7-1.2-.1v.1c.8 0 .6.5.6.6-.5-.4-1.3-.3-1.2.6 0 .1 0 .1.1 0 .4-.5.9-.2.9-.1-.4.1-1 .5-.4 1.3 0 0 .1.1.1 0 .1-.9.9-.6 1-.5s.7.2 1-.2c.1.7 1 .6 1.1.6s.1 0 0-.1c-.4-.2-.7-.7-.2-.9 0 0 .7.6 1.3-.1.1-.1 0-.1 0-.1-.1 0-.9.1-.8-.7 0-.6.5-2.5-.3-3 0 0-.1-.1 0-.1.8-.2.9-.7.6-1.3 0-.1-.1-.1-.1 0-.1 1.3-2.1.7-2.1-1.1 1.1.3 2.9-.1 2.9-1.9 0-1.7-2.2-2.7-2.2-3.9 0-.2 0-1.1 1-1.1.8 0 1.5.6 1.6 1.3h.1c.1-.2.1-.8-.2-1.2 0 0 0-.1.1-.1.1.1.4.1.7.1.7 0 1.1-.4 1.1-1 0-.4-.1-.6-.1-.7s0-.1-.1 0c-.1.2-.3.7-1 .7 0 0-1.4 0-1.7 0-1.9 0-2.1 1.5-2.1 1.9 0 1.5 2 2.2 2 3.8 0 .4-.2 1-1.2 1-.4 0-.9-.1-1.1-.2 0 0-.5-2.8-1.8-3.7 0 0-1.6.8-3.1-.1-1.2-.6-1.7-1.1-2.8-.4-1 .7-1.9 1.5-2.1 1.5h-.2v-6.2c.5-.1.5.4.5.5s-.2.3.1.7h.1c0-.1.1-.3.2-.3.2 0 .9.6 1.5 1.2 0 0 .4-1.1 1.2-1.4-.5-.1-2.6-.6-2.6-1.5 0-.3-.3-.4-.6-.4 0 0-.4-.9-1-.4v.1c.3.1.4.4.4.7-.6-.2-3.3-.9-6.4-.9-1.5 0-2.9.2-4 .4v2.1h-.9zm-5.7 21.9c-.2-.1-.4-.2-.4-.5v-1.3c-.4-.1-1.4-.5-3.5-.5-1.7 0-2.3.4-2.3.5l-.5 2.5s.7-.6 3.2-.5c3 .2 6.2 2 6.2.1v-1.1c-2.4 0-2.7.7-2.7.8zm18.6-.8v1.1c0 1.9 3.1.1 6.2-.1 2.5-.2 3.2.5 3.2.5l-.5-2.5c0-.1-.6-.5-2.3-.5-2.1 0-3.1.4-3.5.5v1.3c0 .3-.2.5-.4.5 0-.1-.4-.8-2.7-.8zm-8-1.2c4.9 0 9.8.3 10.5 1 .1.1.1 0 .1 0v-2.6c0-.8-5.1-1.2-10.5-1.2s-10.5.4-10.5 1.2v2.6s0 .1.1 0c.5-.7 5.5-1 10.3-1zm-4.3-12.1-.5-.1v.1l-.6-.3h.5s.1 0 0-.1c-.2-.2-.4-.4-.4-.4s.2.1.6.2c0 0 .1 0 0 0-.2-.2-.4-.6-.4-.6s.5.3.6.4c0 0 .1 0 0 0-.1-.3-.3-.6-.3-.6l.5.5c0-.2-.1-.6-.1-.6l.4.5h.1c0-.1 0-.6 0-.6s.2.4.2.5h.1c0-.1.2-.5.2-.5v.6h-.1l-.1.7c.7-.2 1.7-1.4 2.4-1.4.8 0 1.1 1 2.7.5.4.6.5 1.1.7 1.8.6.6 1.4.4 1.4-.2 0-.8-.9-1-.9-1.8 0-.4.3-.9 1-.9.4 0 .9.2 1.2.2.4 0 .5-.3.5-.4s.1-.1.1 0v.4c0 .5-.8.6-.9.5.1.1.1.4 0 .6-.1-.4-.5-.8-.9-.8-.1 0-.4.1-.4.4 0 .5 1 .9 1 1.9s-1 1.3-2 1c0 1 1.5 1.5 1.5.9.2.3.1.5-.2.6.3.1.3.6.4.9.1.5.6.2.6.2-.2.5-.7.3-.7.3-.3.2.1.3.3.4-.2.1-.5.2-.7-.1-.1.3-.4.3-.5.3-.2 0-.3.2-.3.4-.4-.3-.2-.6 0-.7 0 0-.3-.1-.5.2-.2-.5.2-.7.5-.5 0-.1-.2-.3-.6-.2.1-.2.3-.4.6-.2.2.1.5-.1.5-.1-.6-1.3-1.9-.2-2.2-1.2-.1.2-.6.2-.7-.2.1.1.3.2.5-.2.1-.2.2-.5.2-.7 0-.8-.8-2.1-2-2.1-.8 0-1.6.3-2.2.7l.6.1c-.1.6-.6.9-1.1.8l.1-.7c-.1 0-.3.1-.4.3-.1-.4.2-.6.3-.6-.3 0-.4.2-.5.3-.2-.1-.2-.3-.1-.4zm1.7 4.5c-.2.3-.4 0-.7 0s-.3.2-.3.3c-.3-.4 0-.6.2-.7 0 0-.3-.2-.5 0 0-.5.4-.6.7-.3 0-.2-.1-.3-.3-.3.1-.1.2-.1.3-.1.3 0 .3.4.5.4.3 0 .7-.4.7-.4s-.3-.8-.2-1.2c-.1.1-.5.1-.5-.4.2.2.4 0 .5-.2.1-.1.8-1.2 1.8-1.2.2 0 .5.1.7.3-.3.4 0 .8.2.7-1.3.5-1.8.7-1.8 1.7 0 .6.2.9.5.8-.1.1-.3.2-.4.2-.3 0-.3-.1-.4-.1s-.6.3-.6.5c0 .1.1.2.2.3-.1 0-.5 0-.6-.3zm3.3-10.3c-.4 0-.6.1-.6.2.2.2.4.2.6-.2zm-1.4 1c.3-.1.6 0 .6 0v.1c-.6.1-.6.3-1 .3-.2 0-.5-.2-.4-.6h.1c0 .1.2.3.7.2zm-7.6 12.8c.4.5.8 0 1.3 0 .2 0 .5.1.6.6.5-.8-.1-1.2-.4-1.2.1-.1.6-.4 1 .1h.1c0-.9-.7-1-1.2-.6-.1-.4.2-.6.5-.6 0 0 .1 0 0-.1-.6-.7-1.1.2-1.2.3-.3.3-1.2-.3-1.5-.7 0 0 .8-.8.8-1.6v-.1c.1 0 .2.1.3.1.2 0 .5-.1.5-.7-.1.1-.2.2-.3.2-.6 0-2-2.2-3.6-2.2-.4 0-1.2.3-1.6.7.2.1.2.3.2.5 0 .3-.2.4-.5.5v.1c.8.3 2.3.9 2.6 1.2.4.3.3 1 .1 1.9s-.7.7-.9.7c.2.3.5.4.7.4.4 0 .6-.3.8-.3.4 0 1.1.5 1.1.9 0 .2-.2.4-.4.6.2-.1.9 0 1-.7zm17.7.6c-.2-.2-.4-.4-.4-.6 0-.4.8-.9 1.1-.9.2 0 .4.3.8.3.2 0 .5-.1.7-.4-.2 0-.6.1-.9-.7-.2-.9-.3-1.5.1-1.9.3-.3 1.8-.8 2.6-1.2 0 0 0 0 0-.1-.2-.1-.4-.2-.5-.5 0-.2 0-.4.2-.5-.4-.4-1.2-.7-1.6-.7-1.6 0-2.9 2.2-3.6 2.2-.1 0-.2 0-.3-.2 0 .7.3.7.5.7.1 0 .2 0 .3-.1v.1c0 .8.8 1.6.8 1.6-.4.4-1.3 1-1.5.7-.1-.1-.6-1-1.2-.3v.1c.4 0 .6.2.5.6-.4-.3-1.1-.3-1.1.7h.1c.3-.5.9-.2 1-.1-.4.1-1 .5-.4 1.2.1-.5.4-.6.6-.6.5 0 .9.5 1.3 0 0 .7.7.6.9.6zm-13-12.5c-.1.1-.2 0-.3 0 0 .1.2.4.4.4.1 0 .3-.1.3-.1s.9.3 1.4.4c-.2.2-.3.5-.3.8-.4-.2-1.9-1-1.9-1l-.5.6c-.1.1-.4-.2-.4-.3l.4-.5c-.1-.1-.4 0-.5 0 0-.1.2-.4.7-.3 0-.3-.4-.2-.5-.2.1-.1.4-.4.8-.2l.2-.2-.3-.3.2-.3.2.3 1.7-2.4c0-.1.4-.2.5-.2v.5l-1.7 2.4.4.1-.2.3-.4-.2zm6.1-.4c0 .2.1.5.4.4 0 .2-.5.5-.7.2-.2.4-.1.7.2.9v.1c-.1.2-.4.2-.6-.2-.3.2-.3.7-.1.9 0 0-.9.5-1.6.1-.5-.2-.9-.6-1.6-.5.1-.9.6-1.2 1.4-1.3.7-.1.8-.4.7-.7-.2-.1-.7.2-.7.2-.1-.1 0-.3 0-.3 0-.1-.1-.2-.1-.2.5 0 .6-.1.6-.1.1-.5-.4-.6-.8-.3-.2-.2-.2-.4-.2-.4-.1 0-.1-.1-.1-.1 0-.1.6-.4.7-.5 0-.2.2-.4.8-.3.1-.2 0-.7-.1-.9 0 0 0-.1.1 0 .2.1.4.6.6.6 0 0 .7-.4.7-.3 0 0 .1.8.1.8.1.1.6 0 .8.1.1 0 .1.1 0 .1-.2 0-.7.3-.8.4.5.4.3 1.1.3 1.3z" fill="#fff"/><path d="m0 0h314v125h-314z" fill="none"/><g fill="#01689b"><path d="m61.9 64.5c.7-.2.9-.5.9-1.2v-7.6l-1-.2v-.3c.6-.2 1.2-.2 1.8-.2s1 0 1.5.2v.3c-.7.2-.9.5-.9 1.1v7.7l1 .2v.3c-.6.2-1.1.3-1.8.3-.6 0-1 0-1.4-.2v-.4zm2.3-4.7 3.7-4.2-.9-.2v-.3c.7-.2 1.1-.2 1.7-.2.4 0 .7 0 1.1.1v.3c-.4.2-.8.4-1.1.8l-3.1 3.5 2.8 3.5c.5.7.9 1 1.7 1.3v.3c-.3.2-.6.3-1.1.3-.7 0-1.2-.2-1.9-1.3z"/><path d="m74.1 57.3c1.9 0 3.4 1.4 3.4 3.6 0 2.6-1.8 4.2-3.6 4.2-1.9 0-3.4-1.3-3.4-3.6 0-2.6 1.7-4.2 3.6-4.2zm-.1 6.8c1 0 2.1-1 2.1-3.1 0-1.8-1-2.8-2.1-2.8s-2.1 1.1-2.1 3.1c0 1.8 1 2.8 2.1 2.8z"/><path d="m78.9 64.5c.4-.2.8-.5.8-.8v-5.2l-1-.4v-.3c.7-.2 1.4-.3 1.9-.3h.4v.8c.5-.5 1.4-.9 2.3-.9 1.3 0 2.2.8 2.2 2.4v4.3l.8.2v.3c-.4.2-1 .3-1.6.3-.3 0-.7 0-1-.1v-.3c.4-.2.6-.5.6-1v-3c0-1.5-.6-2.1-1.6-2.1-.6 0-1.3.2-1.6.5v5.2l.9.2v.3c-.5.2-1 .3-1.8.3-.4 0-.8 0-1.2-.1v-.3z"/><path d="m87.6 64.5c.4-.2.8-.5.8-.8v-5.2l-1-.4v-.3c.7-.2 1.4-.3 1.8-.3h.5l-.1.8v5.9l.9.2v.3c-.5.2-1 .3-1.8.3-.4 0-.8 0-1.2-.1v-.4zm.6-9.4c0-.5.3-.9.9-.9.4 0 .8.3.8.8s-.4 1-.9 1c-.4 0-.8-.4-.8-.9z"/><path d="m91.9 64.5c.4-.2.8-.5.8-.8v-5.2l-1-.4v-.3c.7-.2 1.4-.3 1.9-.3h.4v.8c.5-.5 1.4-.9 2.3-.9 1.3 0 2.2.8 2.2 2.4v4.3l.8.2v.3c-.4.2-1 .3-1.6.3-.3 0-.7 0-1-.1v-.3c.4-.2.6-.5.6-1v-3c0-1.5-.6-2.1-1.6-2.1-.6 0-1.3.2-1.6.5v5.2l.9.2v.3c-.5.2-1 .3-1.8.3-.4 0-.8 0-1.2-.1v-.3z"/><path d="m100.5 64.5c.4-.2.8-.5.8-.8v-9l-1-.4v-.3c.7-.2 1.4-.3 1.9-.3h.5l-.1.9v6.2l.9-.7c.8-.7 1.6-1.8 1.6-2.5.3-.1.5-.1.8-.1.2 0 .4 0 .6.1 0 .7-.7 1.7-2.1 2.7l-.5.4 2.4 2.9c.4.5.8.7 1.1.7v.3c-.3.2-.7.3-1.1.3s-.8-.2-1.1-.6l-2.5-3.3v3.1l.8.2v.3c-.6.2-1 .2-1.8.2-.4 0-.8 0-1.2-.1z"/><path d="m107.9 64.5c.4-.2.8-.5.8-.8v-9l-1-.4v-.3c.7-.2 1.4-.3 1.9-.3h.5l-.1.9v9.6l.9.2v.3c-.5.2-1 .3-1.8.3-.4 0-.8 0-1.2-.1z"/><path d="m112.1 64.5c.4-.2.8-.5.8-.8v-5.2l-1-.4v-.3c.7-.2 1.4-.3 1.8-.3h.5l-.1.8v5.9l.9.2v.3c-.5.2-1 .3-1.8.3-.4 0-.8 0-1.2-.1v-.4zm.7-9.4c0-.5.3-.9.9-.9.4 0 .8.3.8.8s-.4 1-.9 1-.8-.4-.8-.9z"/><path d="m117.2 58.4-1-.4v-.3c.7-.2 1.4-.3 1.9-.3h.5l-.1.9v7c0 2.5-.8 3.3-1.8 3.3-.3 0-.7-.1-.9-.4v-.2c.7 0 1.3-.8 1.3-2.4v-7.2zm-.2-3.3c0-.5.3-.9.9-.9.4 0 .8.3.8.8s-.4 1-.9 1c-.4 0-.8-.4-.8-.9z"/><path d="m120.5 64.5c.4-.2.8-.5.8-.8v-9l-1-.4v-.3c.7-.2 1.4-.3 1.9-.3h.5l-.1.9v6.2l.9-.7c.8-.7 1.6-1.8 1.6-2.5.3-.1.5-.1.8-.1.2 0 .4 0 .6.1 0 .7-.7 1.7-2.1 2.7l-.5.4 2.4 2.9c.4.5.8.7 1.1.7v.3c-.3.2-.7.3-1.1.3s-.8-.2-1.1-.6l-2.5-3.3v3.1l.8.2v.3c-.6.2-1 .2-1.8.2-.4 0-.8 0-1.2-.1z"/><path d="m131.1 64.5c.7-.2.9-.5.9-1.4v-7.5l-1-.3v-.4c.6-.1 1.2-.1 1.7-.1h.6l4.3 7.1v-6.3l-1-.2v-.4c.5-.2 1-.3 1.6-.3s.9 0 1.3.2v.3c-.7.2-.9.5-.9 1.5v8.1l-.7.2-4.9-8.1v7.2l.9.2v.3c-.4.2-.9.3-1.4.3-.6 0-1 0-1.4-.2z"/><path d="m143.8 57.3c1.7 0 2.7 1.1 2.7 2.9v1h-4.6c0 1.7 1 2.7 2.3 2.7.8 0 1.6-.3 2.2-.7 0 .1.1.2.1.4 0 .7-1 1.3-2.7 1.3-1.8 0-3.2-1.4-3.2-3.6 0-2.6 1.6-4 3.2-4zm1.5 3.1c0-1.5-.7-2.2-1.6-2.2s-1.8 1-1.8 2.2z"/><path d="m151.4 57.3c.4 0 .8 0 1.1.1v-2.7l-1.1-.4v-.3c.7-.2 1.5-.3 1.9-.3h.5l-.1.9v8.9c.1.3.3.6.6.9-.3.3-.7.5-1.1.7-.3-.2-.6-.6-.7-.9-.5.5-1.3.9-2 .9-1.6 0-2.8-1.3-2.8-3.4 0-2.9 1.7-4.4 3.7-4.4zm1.1 6.2v-5.1c-.3-.1-.7-.2-1.1-.2-1.3 0-2.3 1-2.3 3.2 0 1.7.9 2.6 1.9 2.6.5 0 1.1-.2 1.5-.5z"/><path d="m159 57.3c1.7 0 2.7 1.1 2.7 2.9v1h-4.7c0 1.7 1 2.7 2.3 2.7.8 0 1.6-.3 2.2-.7 0 .1.1.2.1.4 0 .7-1 1.3-2.7 1.3-1.8 0-3.2-1.4-3.2-3.6 0-2.6 1.6-4 3.3-4zm1.4 3.1c0-1.5-.7-2.2-1.6-2.2s-1.8 1-1.8 2.2z"/><path d="m163 64.5c.4-.2.8-.5.8-.8v-5.2l-1-.4v-.3c.7-.2 1.4-.3 1.9-.3h.4v1.1l.4-.5c.4-.4.8-.7 1.4-.7.5 0 .8.2.8.7 0 .3-.1.6-.2.9-.3-.2-.6-.4-1-.4-.5 0-.9.2-1.4.6v4.9l1.1.2v.3c-.5.2-1 .3-1.9.3-.4 0-.9 0-1.2-.1v-.3z"/><path d="m168.3 64.5c.4-.2.8-.5.8-.8v-9l-1-.4v-.3c.7-.2 1.4-.3 1.9-.3h.5l-.1.9v9.6l.9.2v.3c-.5.2-1 .3-1.8.3-.4 0-.8 0-1.2-.1z"/><path d="m176.3 60.7v-.4c0-1.7-.4-2-1.4-2-.9 0-1.7.4-2.3 1 0-.2 0-.3 0-.5 0-1 .7-1.6 2.5-1.6 1.6 0 2.5.8 2.5 2.1 0 .3 0 1.1-.1 1.6v2.5c.1.3.3.6.6.8-.2.3-.7.6-1.1.8-.3-.2-.5-.4-.7-.8-.4.4-1.3.7-2.1.7-1.2 0-2-.7-2-1.7.1-1.3 1.6-2.5 4.1-2.5zm-1.5 3.4c.5 0 1.1-.2 1.5-.4v-2.2c-1.8 0-2.7.7-2.7 1.6 0 .6.4 1 1.2 1z"/><path d="m179.5 64.5c.4-.2.8-.5.8-.8v-5.2l-1-.4v-.3c.7-.2 1.4-.3 1.9-.3h.4v.8c.5-.5 1.4-.9 2.3-.9 1.3 0 2.2.8 2.2 2.4v4.3l.8.2v.3c-.4.2-1 .3-1.6.3-.3 0-.7 0-1-.1v-.3c.4-.2.6-.5.6-1v-3c0-1.5-.6-2.1-1.6-2.1-.6 0-1.3.2-1.6.5v5.2l.9.2v.3c-.5.2-1 .3-1.8.3-.4 0-.8 0-1.2-.1v-.3z"/><path d="m191.7 57.3c.4 0 .8 0 1.1.1v-2.7l-1.1-.4v-.3c.7-.2 1.5-.3 1.9-.3h.5l-.1.9v8.9c.1.3.3.6.6.9-.3.3-.7.5-1.1.7-.3-.2-.6-.6-.7-.9-.5.5-1.3.9-2 .9-1.6 0-2.8-1.3-2.8-3.4 0-2.9 1.7-4.4 3.7-4.4zm1.1 6.2v-5.1c-.3-.1-.7-.2-1.1-.2-1.3 0-2.3 1-2.3 3.2 0 1.7.9 2.6 1.9 2.6.5 0 1.2-.2 1.5-.5z"/><path d="m196.1 63.1c.7.7 1.4 1 2.2 1 .9 0 1.3-.4 1.3-1 0-.5-.3-.9-1.3-1.3l-.8-.3c-.9-.4-1.4-1-1.4-1.9 0-1.2 1.1-2.3 2.7-2.3 1.2 0 1.7.4 1.7 1 0 .2 0 .4-.1.7-.5-.3-1.2-.6-1.8-.6-1 0-1.5.4-1.5 1s.3.9 1.2 1.2l.8.3c1.1.4 1.5 1 1.5 1.9 0 1.2-1.1 2.3-2.9 2.3-1.4 0-2-.4-2-1.3.2-.3.3-.5.4-.7z"/><path d="m61.4 82.1c.6-.2.9-.4.9-.9l.7-7.9-.9-.3v-.5c.7-.1 1.6-.1 2.1-.1h.6l2.4 7.5 2.4-7.5h.7c.6 0 1.3 0 1.9.1v.5l-1 .2.7 8.5.9.2v.3c-.4.2-.9.3-1.5.3-.7 0-1.2 0-1.7-.2v-.3c.7-.2.9-.5.9-1.2l-.4-7-2.8 8.6-.6.1-2.8-8.7-.5 7.8 1 .3v.3c-.7.2-1 .3-1.8.3-.4 0-.8-.1-1.2-.2v-.2z"/><path d="m77.1 74.9c1.7 0 2.7 1.1 2.7 2.9v1h-4.6c0 1.7 1 2.7 2.3 2.7.8 0 1.6-.3 2.2-.7 0 .1.1.2.1.4 0 .7-1 1.3-2.7 1.3-1.8 0-3.2-1.4-3.2-3.5 0-2.7 1.6-4.1 3.2-4.1zm1.5 3.1c0-1.5-.7-2.2-1.6-2.2s-1.8 1-1.8 2.2z"/><path d="m81.8 78.1v-2.1h-.8v-.5l1.7-1.7.5-.1-.1 1.4h2l-.1 1h-2v2 1.8c0 1.3.4 1.7.9 1.7s.8-.2 1.1-.4l.2.1c-.1.9-.6 1.4-1.7 1.4-1.2 0-1.8-.7-1.8-2.2 0-.8.1-1.7.1-2.4z"/><path d="m89.1 74.9c1.7 0 2.7 1.1 2.7 2.9v1h-4.6c0 1.7 1 2.7 2.3 2.7.8 0 1.6-.3 2.2-.7 0 .1.1.2.1.4 0 .7-1 1.3-2.7 1.3-1.8 0-3.2-1.4-3.2-3.5 0-2.7 1.6-4.1 3.2-4.1zm1.5 3.1c0-1.5-.7-2.2-1.6-2.2s-1.8 1-1.8 2.2z"/><path d="m96.7 74.9c1.9 0 3.4 1.4 3.4 3.6 0 2.6-1.8 4.2-3.6 4.2-1.9 0-3.4-1.3-3.4-3.6-.1-2.6 1.7-4.2 3.6-4.2zm-.2 6.8c1 0 2.1-1 2.1-3.1 0-1.8-1-2.8-2.1-2.8s-2.1 1.1-2.1 3.1c0 1.8 1 2.8 2.1 2.8z"/><path d="m101.5 82.1c.4-.2.8-.5.8-.8v-5.3l-1-.4v-.3c.7-.2 1.4-.3 1.9-.3h.4v1.1l.4-.5c.4-.5.8-.7 1.4-.7.5 0 .8.2.8.7 0 .3-.1.6-.2.9-.3-.2-.6-.4-1-.4-.5 0-.9.2-1.4.6v4.9l1.1.2v.3c-.5.2-1 .3-1.9.3-.4 0-.9 0-1.2-.1v-.2z"/><path d="m110.3 74.9c1.9 0 3.4 1.4 3.4 3.6 0 2.6-1.8 4.2-3.6 4.2-1.9 0-3.4-1.3-3.4-3.6 0-2.6 1.7-4.2 3.6-4.2zm-.1 6.8c1 0 2.1-1 2.1-3.1 0-1.8-1-2.8-2.1-2.8s-2.1 1.1-2.1 3.1c0 1.8 1 2.8 2.1 2.8z"/><path d="m115.1 82.1c.4-.2.8-.5.8-.8v-9l-1-.4v-.3c.7-.2 1.4-.3 1.9-.3h.5l-.1.9v9.6l.9.2v.3c-.5.2-1 .3-1.8.3-.4 0-.8 0-1.2-.1z"/><path d="m122.9 74.9c1.9 0 3.4 1.4 3.4 3.6 0 2.6-1.8 4.2-3.6 4.2-1.9 0-3.4-1.3-3.4-3.6 0-2.6 1.7-4.2 3.6-4.2zm-.1 6.8c1 0 2.1-1 2.1-3.1 0-1.8-1-2.8-2.1-2.8s-2.1 1.1-2.1 3.1c0 1.8 1 2.8 2.1 2.8z"/><path d="m129.1 80.1c-.7-.3-1.4-1.1-1.4-2.2 0-1.7 1.4-3.1 3.1-3.1.6 0 1.4.3 1.7.5.3-.3.9-.5 1.4-.5.3 0 .5 0 .7.1l-.1 1c-.5-.1-1.1-.2-1.7-.2.5.4.9 1.1.9 1.7 0 1.8-1.5 3-3.1 3-.3 0-.7-.1-1-.2-.2.1-.5.5-.5.7 0 .5.4.7 1 .7h2.2c1.3 0 2 .6 2 1.7 0 1.5-1.6 2.7-3.8 2.7-2 0-3-.8-3-1.8 0-.8.6-1.5 1.5-1.7-.6-.2-.9-.6-.9-1.2s.4-1 1-1.2zm1.5 5.3c1.5 0 2.5-.7 2.5-1.5 0-.6-.4-.9-1.1-.9h-2.5c-.5.2-.8.7-.8 1.2-.1.6.6 1.2 1.9 1.2zm1.6-7.8c0-1.3-.7-1.9-1.5-1.9-.9 0-1.6.8-1.6 2.2 0 1.3.7 1.9 1.5 1.9.9 0 1.6-.7 1.6-2.2z"/><path d="m135.2 82.1c.4-.2.8-.5.8-.8v-5.3l-1-.4v-.3c.7-.2 1.4-.3 1.8-.3h.5l-.1.8v5.9l.9.2v.3c-.5.2-1 .3-1.8.3-.4 0-.8 0-1.2-.1v-.3zm.6-9.4c0-.5.3-.9.9-.9.4 0 .8.3.8.8s-.4 1-.9 1c-.4 0-.8-.4-.8-.9z"/><path d="m139.4 80.7c.7.7 1.4 1 2.2 1 .9 0 1.3-.4 1.3-1 0-.5-.3-.9-1.3-1.3l-.8-.3c-.9-.4-1.4-1-1.4-1.9 0-1.2 1.1-2.3 2.7-2.3 1.2 0 1.7.4 1.7 1 0 .2 0 .4-.1.7-.5-.3-1.2-.6-1.8-.6-1 0-1.5.4-1.5 1s.3.9 1.2 1.2l.8.3c1.1.4 1.5 1 1.5 1.9 0 1.2-1.1 2.3-2.9 2.3-1.4 0-2-.4-2-1.3.3-.3.3-.5.4-.7z"/><path d="m148.8 74.9c1.3 0 1.7.4 1.7.9 0 .3-.1.6-.2.8-.6-.5-1.1-.7-1.8-.7-1.1 0-2 1.1-2 2.9s1 2.8 2.2 2.8c.6 0 1.3-.3 1.8-.6 0 .1.1.2.1.4 0 .7-.8 1.3-2.3 1.3-1.7 0-3.1-1.4-3.1-3.6 0-2.6 1.6-4.2 3.6-4.2z"/><path d="m151.7 82.1c.4-.2.8-.5.8-.8v-9l-1-.4v-.3c.7-.2 1.3-.3 1.9-.3h.5l-.1.9v3.7c.6-.5 1.3-.9 2.2-.9 1.3 0 2.2.8 2.2 2.4v4.3l.8.2v.3c-.4.2-1 .3-1.6.3-.3 0-.7 0-1-.1v-.3c.4-.2.6-.5.6-1v-3c0-1.5-.6-2.1-1.6-2.1-.6 0-1.2.2-1.6.5v5.2l.9.2v.3c-.5.2-1 .3-1.8.3-.4 0-.8 0-1.2-.1z"/><path d="m163.4 82.1c.5-.2.9-.4.9-1.2v-7.6l-1-.2v-.3c.6-.2 1.2-.2 1.8-.2s1 0 1.4.2v.3c-.7.2-.9.5-.9 1.1v7.7l1 .2v.3c-.5.2-1.1.3-1.8.3-.6 0-1 0-1.4-.2z"/><path d="m168.1 82.1c.4-.2.8-.5.8-.8v-5.3l-1-.4v-.3c.7-.2 1.4-.3 1.9-.3h.4v.8c.5-.5 1.4-.9 2.3-.9 1.3 0 2.2.8 2.2 2.4v4.3l.8.2v.3c-.4.2-1 .3-1.6.3-.3 0-.7 0-1-.1v-.3c.4-.2.6-.5.6-1v-3c0-1.5-.6-2.1-1.6-2.1-.6 0-1.3.2-1.6.5v5.2l.9.2v.3c-.5.2-1 .3-1.8.3-.4 0-.8 0-1.2-.1v-.2z"/><path d="m176.7 80.7c.7.7 1.4 1 2.2 1 .9 0 1.3-.4 1.3-1 0-.5-.3-.9-1.3-1.3l-.8-.3c-.9-.4-1.4-1-1.4-1.9 0-1.2 1.1-2.3 2.7-2.3 1.2 0 1.7.4 1.7 1 0 .2 0 .4-.1.7-.5-.3-1.2-.6-1.8-.6-1 0-1.5.4-1.5 1s.3.9 1.2 1.2l.8.3c1.1.4 1.5 1 1.5 1.9 0 1.2-1.1 2.3-2.9 2.3-1.4 0-2-.4-2-1.3.2-.3.3-.5.4-.7z"/><path d="m183.3 78.1v-2.1h-.9v-.5l1.7-1.7.5-.1-.1 1.4h2l-.1.8h-2v2 1.8c0 1.3.4 1.7.9 1.7s.8-.2 1.1-.4l.2.1c-.1.9-.6 1.4-1.7 1.4-1.2 0-1.8-.7-1.8-2.2.1-.6.1-1.5.2-2.2z"/><path d="m187.5 82.1c.4-.2.8-.5.8-.8v-5.3l-1-.4v-.3c.7-.2 1.4-.3 1.8-.3h.5l-.1.8v5.9l.9.2v.3c-.5.2-1 .3-1.8.3-.4 0-.8 0-1.2-.1v-.3zm.6-9.4c0-.5.3-.9.9-.9.4 0 .8.3.8.8s-.4 1-.9 1c-.4 0-.8-.4-.8-.9z"/><path d="m192.5 78.1v-2.1h-.9v-.5l1.7-1.7.5-.1-.1 1.4h2l-.1.8h-2v2 1.8c0 1.3.4 1.7.9 1.7s.8-.2 1.1-.4l.2.1c-.1.9-.6 1.4-1.7 1.4-1.2 0-1.8-.7-1.8-2.2.1-.6.1-1.5.2-2.2z"/><path d="m197.4 76-.9-.4v-.3c.7-.2 1.3-.3 1.7-.3h.5l-.1.9v3.5c0 1.6.5 2.2 1.5 2.2.6 0 1.2-.2 1.5-.4v-5l-.9-.4v-.3c.7-.2 1.3-.3 1.8-.3h.5l-.1.9v5.2c.1.3.3.5.6.8-.2.2-.7.5-1.1.7-.3-.2-.6-.5-.7-.9-.4.4-1.3.8-2.2.8-1.3 0-2.1-.8-2.1-2.5z"/><path d="m205.7 76-.9-.4v-.3c.7-.2 1.3-.3 1.7-.3h.5l-.1.9v3.5c0 1.6.5 2.2 1.5 2.2.6 0 1.2-.2 1.5-.4v-5l-.9-.4v-.3c.7-.2 1.3-.3 1.8-.3h.5l-.1.9v5.2c.1.3.3.5.6.8-.2.2-.7.5-1.1.7-.3-.2-.6-.5-.7-.9-.4.4-1.3.8-2.2.8-1.3 0-2.1-.8-2.1-2.5z"/><path d="m214 78.1v-2.1h-.9v-.5l1.7-1.7.5-.1-.1 1.4h2l-.1.8h-2v2 1.8c0 1.3.4 1.7.9 1.7s.8-.2 1.1-.4l.2.1c-.1.9-.6 1.4-1.7 1.4-1.2 0-1.8-.7-1.8-2.2.2-.6.2-1.5.2-2.2z"/><path d="m61.1 99.7c.3-.1.5-.3.5-.6l1.9-8.3-.8-.2v-.4c.4-.1 1.1-.2 1.6-.2h.5l1.4 7.4 2.6-7.4h.4c.4 0 1 0 1.5.1v.4l-.7.2.4 8.6.9.2v.3c-.5.2-.8.2-1.3.2-.6 0-1 0-1.4-.2v-.3c.3-.1.5-.3.5-.8l-.2-6.7-2.8 8.1h-.5l-1.5-8.1-1.5 7.3.9.2v.3c-.4.2-.8.2-1.3.2-.4 0-.8-.1-1.1-.2z"/><path d="m72.5 97.3.5-3.1.1-.9-1-.3v-.3c.5-.2 1-.3 1.6-.3.3 0 .5 0 .7.1l-.7 4.6c-.1.5-.1 1.3-.1 1.7 0 .5.2.7.6.9v.3c-.3.1-.7.2-1.2.2s-.7-.3-.7-.7c0-.5.1-1.5.2-2.2zm.7-7.1c0-.5.4-1 .9-1 .4 0 .7.3.7.7 0 .5-.4 1-.9 1-.4 0-.7-.3-.7-.7z"/><path d="m76.5 93.3-1-.3v-.3c.5-.2 1-.3 1.5-.3.2 0 .4 0 .6.1l-.5 2.4c.7-1.6 1.7-2.5 2.8-2.5.7 0 1.2.5 1.2 1.4 0 .5-.1 1.3-.2 2l-.3 1.7c0 .4-.1 1-.1 1.3 0 .5.2.7.7.8v.3c-.4.2-.8.3-1.2.3s-.8-.3-.8-.7.1-1.1.2-1.6l.3-1.8c.1-.5.2-1.1.2-1.6 0-.7-.3-.9-.7-.9-.9 0-2.1 1.7-2.2 3.9v2.5h-1.3z"/><path d="m83 97.3.5-3.1.1-.9-1-.3v-.3c.5-.2 1-.3 1.5-.3.3 0 .5 0 .7.1l-.7 4.6c-.1.5-.1 1.3-.1 1.7 0 .5.2.7.6.9v.3c-.3.1-.7.2-1.2.2s-.7-.3-.7-.7c0-.5.2-1.5.3-2.2zm.7-7.1c0-.5.4-1 .9-1 .4 0 .7.3.7.7 0 .5-.4 1-.9 1-.4 0-.7-.3-.7-.7z"/><path d="m85.6 98.6c.4.4.9.7 1.5.7.7 0 1.3-.4 1.3-1.1 0-.5-.2-.9-1-1.5l-.5-.5c-.7-.7-.9-1.1-.9-1.8 0-1 1-2 2.4-2 1.1 0 1.7.3 1.7.8 0 .3-.1.6-.3.8-.4-.5-1.1-.8-1.7-.8-.7 0-1 .4-1 .9 0 .4.2.7 1 1.4l.6.5c.7.7 1 1.1 1 1.8 0 1.2-1.2 2.3-2.9 2.3-1 0-1.4-.3-1.4-.9 0-.2.1-.4.2-.6z"/><path d="m91.6 94.5.2-1c-.3 0-.5 0-.9 0v-.2c.5-.7 1.3-1.4 2.1-1.9h.2l-.2 1.2h.4c.4 0 .8 0 1.2-.1 0 .7-.4 1-1.3 1h-.4l-.3 1.6c-.1.7-.3 2-.3 2.7 0 1 .5 1.5 1.2 1.5.2 0 .4 0 .6-.1v.3c-.1.4-.7.7-1.4.7-1 0-1.6-.7-1.6-1.9 0-1 .2-2.6.5-3.8z"/><path d="m98.1 92.4c1.1 0 1.7.5 1.7 1.6 0 1.8-1.9 2.9-3.7 2.9 0 1.9.5 2.3 1.4 2.3.6 0 1.4-.3 1.7-.8.1.1.2.2.2.4 0 .7-1 1.4-2.2 1.4-1.3 0-2.2-.9-2.2-2.7-.2-3.5 1.6-5.1 3.1-5.1zm.4 1.8c0-.7-.3-1-.7-1-.7 0-1.7 1.2-1.7 3 1.4 0 2.4-.8 2.4-2z"/><path d="m101.3 93.3-.9-.3v-.3c.5-.2 1-.3 1.5-.3.2 0 .4 0 .7.1l-.5 2.2.8-1.4c.4-.7.8-1 1.3-1 .3 0 .5.2.5.6 0 .2-.1.6-.2.8-.2 0-.3-.1-.5-.1-1 0-2 1.1-2.1 3.9l-.1 2.3h-1.3z"/><path d="m105.2 97.3.5-3.1.1-.9-.9-.3v-.3c.5-.2 1-.3 1.5-.3.3 0 .5 0 .7.1l-.7 4.6c-.1.5-.1 1.3-.1 1.7 0 .5.2.7.6.9v.3c-.3.1-.7.2-1.2.2s-.7-.3-.7-.7c0-.5.2-1.5.2-2.2zm.8-7.1c0-.5.4-1 .9-1 .4 0 .7.3.7.7 0 .5-.4 1-.9 1-.4 0-.7-.3-.7-.7z"/><path d="m111.5 92.4c1.1 0 1.7.5 1.7 1.6 0 1.8-1.9 2.9-3.7 2.9 0 1.9.5 2.3 1.4 2.3.6 0 1.4-.3 1.7-.8.1.1.2.2.2.4 0 .7-1 1.4-2.2 1.4-1.3 0-2.2-.9-2.2-2.7-.2-3.5 1.6-5.1 3.1-5.1zm.4 1.8c0-.7-.3-1-.7-1-.7 0-1.7 1.2-1.7 3 1.4 0 2.4-.8 2.4-2z"/><path d="m116.6 93.2-.6-.2v-.3c.5-.2.8-.2 1.3-.2.2 0 .4 0 .6.1l.3 6.3c1.1-1.4 2-3.5 2-5.1 0-.4-.2-.7-.6-.9v-.2c.3-.1.6-.2 1-.2.5 0 .8.3.8.9 0 1.6-1.5 4.9-3 6.3-.3.3-.5.4-.8.6h-.3z"/><path d="m122 97.4c0-3.2 1.8-5 3.9-5 .5 0 1.2.1 1.7.2l-.5 2.7c-.2.8-.3 2.2-.4 2.9 0 1 .2 1.2.7 1.3v.3c-.4.1-.9.2-1.4.2-.2 0-.4 0-.7-.1l.4-2.3c-.6 1.5-1.6 2.5-2.4 2.5-.6.1-1.3-.9-1.3-2.7zm3.9-1.5.4-2.6c-.2-.1-.6-.1-.8-.1-1.3 0-2.3 1.3-2.3 4 0 1.3.4 1.9.8 1.9.6 0 1.5-1 1.9-3.2z"/><path d="m129.6 93.3-.9-.3v-.3c.5-.2 1-.3 1.5-.3.2 0 .4 0 .6.1l-.5 2.4c.7-1.6 1.7-2.5 2.8-2.5.7 0 1.2.5 1.2 1.4 0 .5-.1 1.3-.2 2l-.3 1.7c0 .4-.1 1-.1 1.3 0 .5.2.7.7.8v.3c-.4.2-.8.3-1.2.3s-.8-.3-.8-.7.1-1.1.2-1.6l.3-1.8c.1-.5.2-1.1.2-1.6 0-.7-.3-.9-.7-.9-.9 0-2.1 1.7-2.2 3.9l-.1 2.6h-1.3z"/><path d="m137.9 99.7c.3-.1.6-.4.6-.7l.9-8.2-.9-.2v-.3c.5-.2.9-.2 1.4-.2.4 0 .9 0 1.2.2v.3c-.3.1-.5.3-.6.7l-1 8.2.9.2v.3c-.5.2-.9.2-1.4.2-.4 0-.9-.1-1.2-.2v-.3z"/><path d="m142.9 93.3-.9-.3v-.3c.5-.2 1-.3 1.5-.3.2 0 .4 0 .6.1l-.5 2.4c.7-1.6 1.7-2.5 2.8-2.5.7 0 1.2.5 1.2 1.4 0 .5-.1 1.3-.2 2l-.3 1.7c0 .4-.1 1-.1 1.3 0 .5.2.7.7.8v.3c-.4.2-.8.3-1.2.3s-.8-.3-.8-.7.1-1.1.2-1.6l.3-1.8c.1-.5.2-1.1.2-1.6 0-.7-.3-.9-.7-.9-.9 0-2.1 1.7-2.2 3.9l-.1 2.6h-1.3z"/><path d="m149.9 93.6h-.8c0-.5.3-.9.9-.9l.2-1.3c.2-1.6 1.4-2.6 2.8-2.6s1.7.2 1.7.6c0 .2-.1.5-.2.7-.6-.3-1-.5-1.7-.5-.8 0-1.4.6-1.5 1.6l-.2 1.5h.7c.4 0 .8 0 1.2-.1 0 .6-.2.9-1.2.9h-.8l-.9 8.1c-.2 1.5-.8 2.1-1.5 2.1-.4 0-.8-.1-1-.3v-.2c.7-.2 1.2-.7 1.3-1.4z"/><path d="m153.9 93.3-.9-.3v-.3c.5-.2 1-.3 1.5-.3.2 0 .4 0 .7.1l-.5 2.2.8-1.4c.4-.7.8-1 1.3-1 .3 0 .5.2.5.6 0 .2-.1.6-.2.8-.2 0-.3-.1-.5-.1-1 0-2 1.1-2.1 3.9l-.1 2.3h-1.3z"/><path d="m157.3 97.4c0-3.2 1.8-5 3.9-5 .5 0 1.2.1 1.7.2l-.5 2.7c-.2.8-.3 2.2-.4 2.9 0 1 .2 1.2.7 1.3v.3c-.4.1-.9.2-1.4.2-.2 0-.4 0-.7-.1l.4-2.3c-.6 1.5-1.6 2.5-2.4 2.5-.6.1-1.3-.9-1.3-2.7zm3.9-1.5.4-2.6c-.2-.1-.6-.1-.8-.1-1.3 0-2.3 1.3-2.3 4 0 1.3.4 1.9.8 1.9.7 0 1.6-1 1.9-3.2z"/><path d="m163.6 98.6c.4.4.9.7 1.5.7.7 0 1.3-.4 1.3-1.1 0-.5-.2-.9-1-1.5l-.5-.5c-.7-.7-.9-1.1-.9-1.8 0-1 1-2 2.4-2 1.1 0 1.7.3 1.7.8 0 .3-.1.6-.3.8-.4-.5-1.1-.8-1.7-.8-.7 0-1 .4-1 .9 0 .4.2.7 1 1.4l.6.5c.7.7 1 1.1 1 1.8 0 1.2-1.2 2.3-2.9 2.3-1 0-1.4-.3-1.4-.9 0-.2.1-.4.2-.6z"/><path d="m169.6 94.5.2-1c-.3 0-.5 0-.9 0v-.2c.5-.7 1.3-1.4 2.1-1.9h.2l-.3 1.3h.4c.4 0 .8 0 1.2-.1 0 .7-.4 1-1.3 1h-.4l-.3 1.6c-.1.7-.3 2-.3 2.7 0 1 .5 1.5 1.2 1.5.2 0 .4 0 .6-.1v.3c-.1.4-.7.7-1.4.7-1 0-1.6-.7-1.6-1.9.1-1.1.3-2.7.6-3.9z"/><path d="m173.8 93.3-.9-.3v-.3c.5-.2 1-.3 1.5-.3.2 0 .4 0 .7.1l-.5 2.2.8-1.4c.4-.7.8-1 1.3-1 .3 0 .5.2.5.6 0 .2-.1.6-.2.8-.2 0-.3-.1-.5-.1-1 0-2 1.1-2.1 3.9l-.1 2.3h-1.3z"/><path d="m177.6 97.5.4-1.8c.1-.5.2-1.4.2-1.9s-.3-.8-.7-.9v-.3c.4-.2.7-.3 1.2-.3s.8.3.8.7c0 .5-.2 1.5-.3 2.4l-.3 1.7c-.1.3-.1.9-.1 1.2 0 .4.2.7.5.7.7 0 2-1.3 2.2-3.7l.2-2.7c.4-.2.9-.3 1.4-.3l-.4 2.4c-.2 1.1-.4 2.5-.4 3.4 0 1 .2 1.2.7 1.3v.3c-.4.1-.9.2-1.4.2-.2 0-.4 0-.6-.1l.4-2.1c-.6 1.1-1.7 2.3-2.6 2.3-.7 0-1.2-.6-1.2-1.4-.1-.3 0-.7 0-1.1z"/><path d="m184 97.4c0-3.4 1.6-5.1 3.2-5.1.9 0 1.3.3 1.3.7s-.1.8-.4 1.1c-.3-.6-.8-.9-1.3-.9-.7 0-1.7 1.2-1.7 3.9 0 1.4.6 2 1.1 2 .6 0 1.2-.4 1.6-.9.1.1.1.2.1.4 0 .8-.7 1.5-2.1 1.5-.9.1-1.8-.8-1.8-2.7z"/><path d="m189.8 94.5.2-1c-.3 0-.5 0-.9 0v-.2c.5-.7 1.3-1.4 2.1-1.9h.2l-.3 1.3h.4c.4 0 .8 0 1.2-.1 0 .7-.4 1-1.3 1h-.4l-.3 1.6c-.1.7-.3 2-.3 2.7 0 1 .5 1.5 1.2 1.5.2 0 .4 0 .6-.1v.3c-.1.4-.7.7-1.4.7-1 0-1.6-.7-1.6-1.9.1-1.1.3-2.7.6-3.9z"/><path d="m193.4 97.5.4-1.8c.1-.5.2-1.4.2-1.9s-.3-.8-.7-.9v-.3c.4-.2.7-.3 1.2-.3s.8.3.8.7c0 .5-.2 1.5-.3 2.4l-.3 1.7c-.1.3-.1.9-.1 1.2 0 .4.2.7.5.7.7 0 2-1.3 2.2-3.7l.2-2.7c.4-.2.9-.3 1.4-.3l-.4 2.4c-.2 1.1-.4 2.5-.4 3.4 0 1 .2 1.2.7 1.3v.3c-.5.1-.9.2-1.4.2-.2 0-.4 0-.6-.1l.4-2.1c-.6 1.1-1.7 2.3-2.6 2.3-.7 0-1.2-.6-1.2-1.4-.1-.3 0-.7 0-1.1z"/><path d="m200.2 97.5.4-1.8c.1-.5.2-1.4.2-1.9s-.3-.8-.7-.9v-.3c.4-.2.7-.3 1.2-.3s.8.3.8.7c0 .5-.2 1.5-.3 2.4l-.3 1.7c-.1.3-.1.9-.1 1.2 0 .4.2.7.5.7.7 0 2-1.3 2.2-3.7l.2-2.7c.4-.2.9-.3 1.4-.3l-.4 2.4c-.2 1.1-.4 2.5-.4 3.4 0 1 .2 1.2.7 1.3v.3c-.5.1-.9.2-1.4.2-.2 0-.4 0-.6-.1l.4-2.1c-.6 1.1-1.7 2.3-2.6 2.3-.7 0-1.2-.6-1.2-1.4-.2-.3-.1-.7 0-1.1z"/><path d="m207.6 93.3-.9-.3v-.3c.5-.2 1-.3 1.5-.3.2 0 .4 0 .7.1l-.5 2.2.8-1.4c.4-.7.8-1 1.3-1 .3 0 .5.2.5.6 0 .2-.1.6-.2.8-.2 0-.3-.1-.5-.1-1 0-2 1.1-2.1 3.9l-.1 2.3h-1.3z"/><path d="m216.8 92.4c1.1 0 1.7.5 1.7 1.6 0 1.8-1.9 2.9-3.7 2.9 0 1.9.5 2.3 1.4 2.3.6 0 1.4-.3 1.7-.8.1.1.2.2.2.4 0 .7-1 1.4-2.2 1.4-1.3 0-2.2-.9-2.2-2.7-.2-3.5 1.6-5.1 3.1-5.1zm.4 1.8c0-.7-.3-1-.7-1-.7 0-1.7 1.2-1.7 3 1.4 0 2.4-.8 2.4-2z"/><path d="m220 93.3-.9-.3v-.3c.5-.2 1-.3 1.5-.3.2 0 .4 0 .6.1l-.5 2.4c.7-1.6 1.7-2.5 2.8-2.5.7 0 1.2.5 1.2 1.4 0 .5-.1 1.3-.2 2l-.3 1.7c0 .4-.1 1-.1 1.3 0 .5.2.7.7.8v.3c-.4.2-.8.3-1.2.3s-.8-.3-.8-.7.1-1.1.2-1.6l.3-1.8c.1-.5.2-1.1.2-1.6 0-.7-.3-.9-.7-.9-.9 0-2.1 1.7-2.2 3.9l-.1 2.6h-1.3z"/><path d="m229.1 90.8-.8-.3v-.3c.5-.2.9-.2 1.3-.2.5 0 .8 0 1.2.2v.3c-.3.1-.4.3-.4.4l.7 7.2 2.5-8 1.4-.1.6 8.3 2.4-7.5-.8-.2v-.3c.5-.2 1-.2 1.5-.2.3 0 .6 0 .9.2v.3c-.3.1-.5.2-.5.4l-3.3 9.2h-1.1l-.7-8.7-2.7 8.7h-1z"/><path d="m239 97.4c0-3.2 1.8-5 3.9-5 .5 0 1.2.1 1.7.2l-.5 2.7c-.2.8-.3 2.2-.4 2.9 0 1 .2 1.2.7 1.3v.3c-.4.1-.9.2-1.4.2-.2 0-.4 0-.7-.1l.4-2.3c-.6 1.5-1.6 2.5-2.4 2.5-.6.1-1.3-.9-1.3-2.7zm3.9-1.5.4-2.6c-.2-.1-.6-.1-.8-.1-1.3 0-2.3 1.3-2.3 4 0 1.3.4 1.9.8 1.9.6 0 1.5-1 1.9-3.2z"/><path d="m246.4 94.5.2-1c-.3 0-.5 0-.9 0v-.2c.5-.7 1.3-1.4 2.1-1.9h.2l-.3 1.3h.4c.4 0 .8 0 1.2-.1 0 .7-.4 1-1.3 1h-.4l-.3 1.6c-.1.7-.3 2-.3 2.7 0 1 .5 1.5 1.2 1.5.2 0 .4 0 .6-.1v.3c-.1.4-.7.7-1.4.7-1 0-1.6-.7-1.6-1.9.1-1.1.4-2.7.6-3.9z"/><path d="m252.9 92.4c1.1 0 1.7.5 1.7 1.6 0 1.8-1.9 2.9-3.7 2.9 0 1.9.5 2.3 1.4 2.3.6 0 1.4-.3 1.7-.8.1.1.2.2.2.4 0 .7-1 1.4-2.2 1.4-1.3 0-2.2-.9-2.2-2.7-.1-3.5 1.6-5.1 3.1-5.1zm.4 1.8c0-.7-.3-1-.7-1-.7 0-1.7 1.2-1.7 3 1.4 0 2.4-.8 2.4-2z"/><path d="m256.2 93.3-.9-.3v-.3c.5-.2 1-.3 1.5-.3.2 0 .4 0 .7.1l-.5 2.2.8-1.4c.4-.7.8-1 1.3-1 .3 0 .5.2.5.6 0 .2-.1.6-.2.8-.2 0-.3-.1-.5-.1-1 0-2 1.1-2.1 3.9l-.1 2.3h-1.3z"/><path d="m259.3 98.6c.4.4.9.7 1.5.7.7 0 1.3-.4 1.3-1.1 0-.5-.2-.9-1-1.5l-.5-.5c-.7-.7-.9-1.1-.9-1.8 0-1 1-2 2.4-2 1.1 0 1.7.3 1.7.8 0 .3-.1.6-.3.8-.5-.5-1.1-.8-1.7-.8-.7 0-1 .4-1 .9 0 .4.2.7 1 1.4l.6.5c.7.7 1 1.1 1 1.8 0 1.2-1.2 2.3-2.9 2.3-1 0-1.4-.3-1.4-.9 0-.2.1-.4.2-.6z"/><path d="m265.3 94.5.2-1c-.3 0-.5 0-.9 0v-.2c.5-.7 1.3-1.4 2.1-1.9h.2l-.3 1.3h.4c.4 0 .8 0 1.2-.1 0 .7-.4 1-1.3 1h-.4l-.3 1.6c-.1.7-.3 2-.3 2.7 0 1 .5 1.5 1.2 1.5.2 0 .4 0 .6-.1v.3c-.1.4-.7.7-1.4.7-1 0-1.6-.7-1.6-1.9.1-1.1.3-2.7.6-3.9z"/><path d="m268.5 97.4c0-3.2 1.8-5 3.9-5 .5 0 1.2.1 1.7.2l-.5 2.7c-.2.8-.3 2.2-.4 2.9 0 1 .2 1.2.7 1.3v.3c-.4.1-.9.2-1.4.2-.2 0-.4 0-.7-.1l.4-2.3c-.6 1.5-1.6 2.5-2.4 2.5-.6.1-1.3-.9-1.3-2.7zm3.9-1.5.4-2.6c-.2-.1-.6-.1-.8-.1-1.3 0-2.3 1.3-2.3 4 0 1.3.4 1.9.8 1.9.6 0 1.5-1 1.9-3.2z"/><path d="m275.1 97.4c0-3.2 1.8-5 3.9-5 .5 0 1.2.1 1.7.2l-.5 2.7c-.2.8-.3 2.2-.4 2.9 0 1 .2 1.2.7 1.3v.3c-.4.1-.9.2-1.4.2-.2 0-.4 0-.7-.1l.4-2.3c-.6 1.5-1.6 2.5-2.4 2.5-.6.1-1.3-.9-1.3-2.7zm3.9-1.5.4-2.6c-.2-.1-.6-.1-.8-.1-1.3 0-2.3 1.3-2.3 4 0 1.3.4 1.9.8 1.9.7 0 1.6-1 1.9-3.2z"/><path d="m282.5 94.5.2-1c-.3 0-.5 0-.9 0v-.2c.5-.7 1.3-1.4 2.1-1.9h.2l-.3 1.3h.4c.4 0 .8 0 1.2-.1 0 .7-.4 1-1.3 1h-.4l-.3 1.6c-.1.7-.3 2-.3 2.7 0 1 .5 1.5 1.2 1.5.2 0 .4 0 .6-.1v.3c-.1.4-.7.7-1.4.7-1 0-1.6-.7-1.6-1.9.2-1.1.4-2.7.6-3.9z"/></g></svg>