<?xml version="1.0" encoding="utf-8"?>
<!-- Generator: Adobe Illustrator 21.1.0, SVG Export Plug-In . SVG Version: 6.00 Build 0)  -->
<svg version="1.1" id="Layer_1" xmlns="http://www.w3.org/2000/svg" xmlns:xlink="http://www.w3.org/1999/xlink" x="0px" y="0px"
	 viewBox="0 0 642.6 47" style="enable-background:new 0 0 642.6 47;" xml:space="preserve">
<style type="text/css">
	.st0{fill:#BCBCBB;}
	.st1{fill:#202020;}
	.st2{fill:#C13736;}
	.st3{fill:#010101;}
</style>
<path class="st0" d="M321.3,47H9.8C4.4,47,0,42.4,0,36.6V5.9C0,0.2,5.6,0,11,0h310.3"/>
<path class="st1" d="M320,31.6H10c-5.2,0-4.3-2.2-4.3-5.1V10.3c0-2.9,0.3-2.6,5.5-2.6L320,7.7"/>
<rect x="74.5" y="7.6" class="st2" width="27.9" height="39.4"/>
<rect x="78.3" y="11.1" class="st1" width="7.8" height="20.5"/>
<rect x="90.7" y="11.1" class="st1" width="7.8" height="20.5"/>
<rect x="137.5" y="7.6" class="st2" width="27.9" height="39.4"/>
<rect x="141.3" y="11.1" class="st1" width="7.8" height="20.5"/>
<rect x="153.7" y="11.1" class="st1" width="7.8" height="20.5"/>
<rect x="210.7" y="7.6" class="st2" width="27.9" height="39.4"/>
<rect x="214.6" y="11.1" class="st1" width="7.8" height="20.5"/>
<rect x="227" y="11.1" class="st1" width="7.8" height="20.5"/>
<rect x="273.7" y="7.6" class="st2" width="27.9" height="39.4"/>
<rect x="277.6" y="11.1" class="st1" width="7.8" height="20.5"/>
<rect x="290" y="11.1" class="st1" width="7.8" height="20.5"/>
<path class="st0" d="M321.3,47h311.5c5.4,0,9.8-4.7,9.8-10.4V5.9c0-5.7-5.6-5.9-11-5.9H321.3"/>
<path class="st1" d="M322.7,31.6h309.9c5.2,0,4.3-2.2,4.3-5.1V10.3c0-2.9-0.3-2.6-5.5-2.6L322.6,7.7"/>
<rect x="540.3" y="7.6" class="st2" width="27.9" height="39.4"/>
<rect x="556.5" y="11.1" class="st1" width="7.8" height="20.5"/>
<rect x="544.2" y="11.1" class="st1" width="7.8" height="20.5"/>
<rect x="477.3" y="7.6" class="st2" width="27.9" height="39.4"/>
<rect x="493.5" y="11.1" class="st1" width="7.8" height="20.5"/>
<rect x="481.1" y="11.1" class="st1" width="7.8" height="20.5"/>
<rect x="404.1" y="7.6" class="st2" width="27.9" height="39.4"/>
<rect x="420.3" y="11.1" class="st1" width="7.8" height="20.5"/>
<rect x="407.9" y="11.1" class="st1" width="7.8" height="20.5"/>
<rect x="341" y="7.6" class="st2" width="27.9" height="39.4"/>
<rect x="357.3" y="11.1" class="st1" width="7.8" height="20.5"/>
<rect x="344.9" y="11.1" class="st1" width="7.8" height="20.5"/>
<rect x="320" class="st3" width="2.7" height="47"/>
</svg>
