<?xml version="1.0" encoding="utf-8"?>
<!-- Generator: Adobe Illustrator 21.1.0, SVG Export Plug-In . SVG Version: 6.00 Build 0)  -->
<svg version="1.1" id="Layer_1" xmlns="http://www.w3.org/2000/svg" xmlns:xlink="http://www.w3.org/1999/xlink" x="0px" y="0px"
	 viewBox="0 0 205.8 101.2" style="enable-background:new 0 0 205.8 101.2;" xml:space="preserve">
<style type="text/css">
	.st0{fill:#3C3C3B;}
	.st1{fill:none;stroke:#010101;stroke-width:2.21;stroke-miterlimit:10;}
	.st2{fill:#8B8B8C;}
	.st3{fill:#243568;}
	.st4{fill:#CFCECE;}
	.st5{fill:#FCCA4C;}
	.st6{fill:#FFFFFF;}
	.st7{fill:none;stroke:#FFFFFF;stroke-width:0.63;stroke-miterlimit:10;}
	.st8{fill:#E0E0E0;}
	.st9{fill:#35477B;}
	.st10{fill:#010101;}
	.st11{fill:#C03636;}
</style>
<path class="st0" d="M29.3,42.6C13.1,42.6,0,55.7,0,71.9s13.1,29.3,29.3,29.3c16.2,0,29.3-13.1,29.3-29.3l0,0
	C58.6,55.7,45.5,42.6,29.3,42.6C29.3,42.6,29.3,42.6,29.3,42.6z M29.3,91.1C18.7,91.1,10,82.5,10,71.8s8.6-19.3,19.3-19.3
	c10.6,0,19.3,8.6,19.3,19.3C48.6,82.5,40,91.1,29.3,91.1C29.4,91.2,29.3,91.2,29.3,91.1L29.3,91.1z"/>
<circle class="st1" cx="29.2" cy="71.9" r="19.2"/>
<circle class="st2" cx="167.8" cy="71" r="13"/>
<path class="st3" d="M49.1,39.7l18.5,21.2l13.1,13.5c3.5,3.6,7.5,6.7,11.9,9.1l0,0c3.9,2.1,8.2,3.2,12.6,3.2h5.7
	c5.4,0,11.5,0.5,15.7-3.3l0,0c1.3-2.4,2.3-4.8,3.2-7.3l3-8.5h6.2l6.9-13.5l14.8-9l13.1-1l17.5,15l0,0c1.2,1.9,3,3.4,5,4.4l0,0
	c0.8,0.4,1.8,0.5,2.7,0.3l0,0c1.3-0.3,2.2-1.5,1.9-2.9c0,0,0,0,0,0c0-0.1,0-0.2-0.1-0.3l0,0c-0.2-0.7-0.6-1.5-1.1-2.1l-4.4-6.3
	l-7.5-9.2l-0.6-1c-0.5-0.8-0.3-1.8,0.5-2.3l0.2-0.1h0.4c1.8,0,3.6-0.4,5.3-1l0,0c1.2-0.4,2.1-1.6,2.2-2.9l0.2-3.1l-0.9-5.6
	c-0.1-0.6-0.3-1.3-0.5-1.9c-0.8-2.4-3.3-3.8-5.8-3.2l0,0c-0.6,0.2-1.3,0.4-1.9,0.6l-7,2.8l-13.8,1.4c-0.7,0.1-1.3,0.1-2,0.1h-35.8
	c-1.9,0-3.8,0.3-5.6,1l0,0c-2,0.7-3.8,1.9-5.2,3.4l-1.5,1.6l-0.6,2.9l-1.5-1.3c-1.5-1.3-3.2-2.5-5-3.5l-2.9-1.5
	c-3.3-1.8-6.8-3.1-10.5-4.1l-13.1-3.4c-2.4-0.6-5-1-7.5-1.2h-0.5c-5.3-0.4-10.6,0.2-15.7,1.8l0,0l4.2-9.4h10c3.9,0,7.7-0.6,11.4-1.7
	l0,0c3.6-1.1,8.8-3.5,8.5-6.9l0,0c0.1-0.1,1.3-5.5-4.9-4.6l0,0l-4.7,2.3c-2.4,1.2-5,1.9-7.7,1.9l-7.6,0.1l-9.6-0.8l0,0
	c-2.5-0.4-4.9,0.9-6.1,3.1l-0.3,0.6l-2.7,8L49,15.2c-0.9-2-2.5-3.6-4.4-4.5l0,0c-1.9-0.9-3.9-1.5-6-1.8l-2.5-0.4l-2.5-0.1v18.1
	l4.2,0.2c1.3,0.1,2.7-0.1,4-0.5l1.7-0.5l0.4,1l-6.5,9.6l-9.5,0.4c-2.4,0.1-4.8,0.5-7.2,1.2l-2.2,0.7c-2.7,0.8-5.2,2.3-7.3,4.3l0,0
	c-0.7,0.7-1,1.7-0.7,2.7l0,0c0,0.9,1.5,1,2.2,1.2c1,0.1,2,0.1,3,0l16.2-1.3l1.6,0.2l-6.5,13l9.4,3.5l6.2-13.2l3.8,3.4
	c4.1,3.6,7.1,8.4,8.5,13.8l1.1,4.2v7.1c0,1.8,1.5,3.3,3.3,3.3l0,0c1.9,0,3.6-1.5,3.6-3.4c0,0,0,0,0,0c0-0.1,0-0.1,0-0.2
	c-0.2-4.4-0.4-11.2-0.5-11.5c-0.5-2.4-1.1-4.9-2-7.2c-1.8-5-4.9-9.4-9-12.9l-2.6-2.2l-1.6-1.4l0.8-2.7L49.1,39.7z"/>
<circle class="st2" cx="29.3" cy="71.9" r="13"/>
<path class="st0" d="M167.8,41.5c-16.2,0-29.4,13.2-29.4,29.4s13.2,29.4,29.4,29.4s29.4-13.2,29.4-29.4v0
	C197.3,54.7,184.1,41.5,167.8,41.5z M167.8,90.3c-10.7,0-19.4-8.7-19.4-19.3c0-10.7,8.7-19.4,19.3-19.4c10.7,0,19.4,8.7,19.4,19.3
	c0,0,0,0,0,0l0,0C187.2,81.6,178.5,90.3,167.8,90.3C167.9,90.3,167.9,90.3,167.8,90.3z"/>
<circle class="st1" cx="167.8" cy="71" r="19.2"/>
<path class="st4" d="M120.9,80l52.8-2.1h30.6v-8L137.5,68l-7.8-0.2c-3.8-0.1-7.2,2.2-8.5,5.8l-1.7,4.5c-0.3,0.8,0.1,1.7,0.8,2
	c0,0,0,0,0,0C120.5,80.1,120.7,80.1,120.9,80L120.9,80z"/>
<ellipse class="st5" cx="33.5" cy="17.6" rx="2.8" ry="9"/>
<ellipse transform="matrix(0.281 -0.9597 0.9597 0.281 11.3662 40.9867)" class="st6" cx="33" cy="12.9" rx="2.4" ry="1.1"/>
<line class="st7" x1="126.3" y1="71" x2="201.3" y2="73.2"/>
<path class="st0" d="M112.4,38.2l0.3,0.2c3.1,2.2,6.8,3.4,10.6,3.5l2.3,0.1c1.4,0,2.7-0.2,4-0.6l9.4-3.1c0.4-0.1,0.8-0.3,1.2-0.5
	l6.5-3c2.7-1.3,5.5-2.2,8.5-2.8l7-1.4c0.9-0.2,1.7-0.5,2.4-1l0.5-0.3c0.8-0.5,1-1.5,0.5-2.3c-0.2-0.3-0.4-0.5-0.7-0.6l0,0l-2.6-0.3
	l-37.6,1.1c-1.4,0-2.8,0.3-4.2,0.8l-3.4,1.2c-2.5,0.9-6.7,2.4-6.5,4.4l0,0l0.4,2.5C111.1,36.9,111.6,37.7,112.4,38.2z"/>
<path class="st8" d="M72.6,50.7l7.9-3.9c0.3-0.1,0.6,0,0.8,0.3l0.2,0.5c0.1,0.3,0,0.6-0.3,0.8l-7.9,3.9c-0.3,0.1-0.6,0-0.8-0.3
	l-0.2-0.5C72.2,51.2,72.3,50.8,72.6,50.7z"/>
<path class="st8" d="M75,55.7l7.9-3.9c0.3-0.1,0.6,0,0.8,0.3l0.2,0.5c0.1,0.3,0,0.6-0.3,0.8l-7.9,3.9c-0.3,0.1-0.6,0-0.8-0.3
	l-0.2-0.5C74.6,56.1,74.7,55.8,75,55.7z"/>
<path class="st8" d="M73.8,53.2l7.9-3.9c0.3-0.1,0.6,0,0.8,0.3l0.2,0.5c0.1,0.3,0,0.6-0.3,0.8l-7.9,3.9c-0.3,0.1-0.6,0-0.8-0.3
	l-0.2-0.5C73.4,53.6,73.5,53.3,73.8,53.2z"/>
<path class="st0" d="M99.8,50.9l1.7-4.6c0.6-1.7,2.5-2.6,4.2-1.9l19.9,7.5c1.7,0.6,2.6,2.5,1.9,4.2l-1.7,4.6
	c-0.6,1.7-2.5,2.6-4.2,1.9l-19.9-7.5C100,54.5,99.2,52.6,99.8,50.9z"/>
<path class="st0" d="M102.6,51.8l1.5-3.9c0.5-1.4,2.1-2.2,3.5-1.6l12.8,4.8c1.4,0.5,2.2,2.1,1.6,3.5l-1.5,3.9
	c-0.5,1.4-2.1,2.2-3.5,1.6l-12.8-4.8C102.8,54.8,102,53.2,102.6,51.8z"/>
<path class="st8" d="M66.5,43.3l12-5.8c0.4-0.2,0.9,0,1.1,0.4l0.4,0.9c0.2,0.4,0,0.9-0.4,1.1l-12,5.8c-0.4,0.2-0.9,0-1.1-0.4
	l-0.4-0.9C65.9,44,66.1,43.5,66.5,43.3z"/>
<path class="st8" d="M71.4,48.2l7.9-3.9c0.3-0.1,0.6,0,0.8,0.3l0.2,0.5c0.1,0.3,0,0.6-0.3,0.8l-7.9,3.9c-0.3,0.1-0.6,0-0.8-0.3
	l-0.2-0.5C71,48.6,71.1,48.3,71.4,48.2z"/>
<path class="st8" d="M68.9,46.3l10.5-5.1c0.3-0.1,0.6,0,0.8,0.3l0.2,0.5c0.1,0.3,0,0.6-0.3,0.8l-10.5,5.1c-0.3,0.1-0.6,0-0.8-0.3
	l-0.2-0.5C68.5,46.8,68.6,46.4,68.9,46.3z"/>
<path class="st4" d="M45.9,34.8L34.7,58.6l-6.8,13.2c-0.1,0.2-0.1,0.4,0.1,0.5c0,0,0,0,0,0l0,0c1.6,0.8,3.6,0,4.6-1.9l14.2-26
	l1.9-3.4c0.9-1.5,0.8-3.4-0.2-4.8L47,34.5c-0.3-0.3-0.7-0.3-0.9,0C46,34.6,45.9,34.7,45.9,34.8L45.9,34.8z"/>
<path class="st6" d="M120.4,77.2c-18.3,1.6-33.8-3.1-34.4-10.4l7.2-0.1c0.4,4.2,12.8,6.6,28.8,5.2L120.4,77.2z"/>
<circle class="st6" cx="89.2" cy="62" r="7.6"/>
<circle class="st0" cx="89.6" cy="45.5" r="4.4"/>
<path class="st9" d="M103.4,40.7l-2.1,0.4c-1.3,0.2-2.7,0.1-3.9-0.4L88,36.7c-0.4-0.2-0.8-0.4-1.2-0.6l-6.6-4.3
	c-2.6-1.7-5.4-2.9-8.4-3.6l-6.9-1.5c-0.9-0.2-1.8-0.7-2.5-1.3L61.9,25c-0.7-0.6-0.7-2.2-0.5-3.4c0.1-0.9,0.7-1.7,1.5-2l0,0
	c0.7-0.3,1.5-0.4,2.3-0.4l31.1,3c0.8-0.1,7,2.5,10.5,6.7c3.1,3.7,2,9.6-2.2,11.5C104.1,40.5,103.8,40.6,103.4,40.7z"/>
<ellipse transform="matrix(0.317 -0.9484 0.9484 0.317 41.075 107.9246)" class="st6" cx="95.5" cy="25.4" rx="1.1" ry="3.2"/>
<path class="st6" d="M34.2,78c-2.7,2.7-7.1,2.7-9.8,0c-1.1-1-2.8,0.6-1.7,1.7c3.7,3.5,9.5,3.5,13.2,0C37,78.7,35.3,76.9,34.2,78
	L34.2,78z"/>
<path class="st6" d="M162.7,64.7c2.7-2.7,7.1-2.7,9.8,0c1.1,1,2.8-0.6,1.7-1.7c-3.7-3.6-9.5-3.6-13.2,0
	C159.9,64.1,161.5,65.8,162.7,64.7L162.7,64.7z"/>
<ellipse class="st10" cx="204.2" cy="73.9" rx="1.6" ry="4"/>
<ellipse transform="matrix(0.4221 -0.9065 0.9065 0.4221 2.412 152.8812)" class="st8" cx="121.1" cy="74.5" rx="2.9" ry="1"/>
<path class="st11" d="M192.9,26.1l0.8-0.1c0.8-0.1,1.6,0.5,1.7,1.3l0.9,8.1c0.1,0.8-0.5,1.6-1.3,1.7l-0.8,0.1
	c-0.8,0.1-1.6-0.5-1.7-1.3l-0.9-8.1C191.5,26.9,192.1,26.2,192.9,26.1z"/>
</svg>
