<?xml version="1.0" encoding="utf-8"?>
<!-- Generator: Adobe Illustrator 21.1.0, SVG Export Plug-In . SVG Version: 6.00 Build 0)  -->
<svg version="1.1" id="Layer_1" xmlns="http://www.w3.org/2000/svg" xmlns:xlink="http://www.w3.org/1999/xlink" x="0px" y="0px"
	 viewBox="0 0 154.1 102.4" style="enable-background:new 0 0 154.1 102.4;" xml:space="preserve">
<style type="text/css">
	.st0{fill:#3C3C3B;}
	.st1{fill:#1E1E1E;}
	.st2{fill:#DADADA;}
	.st3{fill:#8D2626;}
	.st4{fill:#C03636;}
	.st5{fill:#FCCA4C;}
	.st6{fill:#DFE5F2;}
</style>
<circle class="st0" cx="118.2" cy="77.1" r="25.2"/>
<circle class="st1" cx="118.2" cy="77.1" r="13.2"/>
<circle class="st2" cx="118.2" cy="77.1" r="9.3"/>
<circle class="st0" cx="26.6" cy="77.1" r="25.2"/>
<circle class="st1" cx="26.6" cy="77.1" r="13.2"/>
<circle class="st2" cx="26.6" cy="77.1" r="9.3"/>
<path class="st3" d="M55.5,5.7C51.8,4.8,52.7,5,45.4,5.4c-0.9,5.9-1.4,11.8-1.4,17.8C44,37,46.2,50.8,50.6,63.9L19.8,53.8
	c2.6-2,5-4.4,7-7c13.4-17.4,7.3-41.1,5.8-46.4l23.2,2.5"/>
<ellipse class="st4" cx="55.7" cy="4.3" rx="0.9" ry="1.4"/>
<ellipse class="st0" cx="55.9" cy="4.3" rx="0.9" ry="1.4"/>
<path class="st4" d="M138.2,66.4c0.5-7.1,0.6-14.3,0.2-21.4c0.1-1.1-0.1-2.2-0.5-3.2c-3.6-8.2-24.7-6.7-51.4-4.8
	c-2.5,0.2-7.5,0.6-8.4,2.8c-1.1,2.7,4.9,5.4,8.1,11.2c3,5.2,2.4,10.7,1.6,14.2L138.2,66.4z"/>
<path class="st4" d="M53.7,73.9H0.4c0-14.7,11.9-26.6,26.6-26.6S53.7,59.2,53.7,73.9z"/>
<path class="st3" d="M53.3,75.7H0c0.3-14.7,12.4-26.4,27.2-26.1C41.5,49.8,53,61.4,53.3,75.7z"/>
<path class="st3" d="M144.9,75.5H91.6c0-14.7,12-26.6,26.7-26.6C132.9,49,144.9,60.9,144.9,75.5z"/>
<path class="st3" d="M144.3,75.5l8-0.2c0.5,0,0.9-0.1,1.3-0.4c1-0.9,0.2-3-0.1-3.9c-1.6-4.7-17.1-15.3-19.6-17"/>
<rect x="48.2" y="63.9" class="st3" width="51.1" height="11.7"/>
<path class="st3" d="M80,43.6c3.7,1.3,7.5,2.4,11.4,3.2c6.5,1.3,13.2,1.8,19.8,1.4c-9.1,2.5-18.6,2.2-27.5-0.8L80,43.6z"/>
<path class="st3" d="M32.7,0.4L25.2,0h-0.3c0.9,1.3,1.5,2.7,1.8,4.3c0.5,3.1-0.2,6.2-2,8.8c1.8-0.4,3.7-0.1,5.4,0.7
	c3.3,1.6,5.3,5.4,5.1,9.7c1.6-4.6,2-9.6,1-14.4C35.6,6,34.3,3,32.7,0.4z"/>
<path class="st4" d="M108,60.5h24.9c0.5,0,0.8,0.4,0.8,0.8v0.2c0,0.5-0.4,0.8-0.8,0.8H108c-0.5,0-0.8-0.4-0.8-0.8v-0.2
	C107.2,60.8,107.5,60.5,108,60.5z"/>
<path class="st4" d="M108,64h32.1c0.4,0,0.8,0.4,0.8,0.8V65c0,0.4-0.4,0.8-0.8,0.8H108c-0.4,0-0.8-0.4-0.8-0.8v-0.2
	C107.2,64.4,107.5,64,108,64z"/>
<path class="st4" d="M107.9,67.4h37.1c0.4,0,0.8,0.3,0.8,0.8v0.2c0,0.4-0.3,0.8-0.8,0.8h-37.1c-0.4,0-0.8-0.3-0.8-0.8v-0.2
	C107.2,67.8,107.5,67.4,107.9,67.4z"/>
<ellipse class="st4" cx="25.3" cy="6.6" rx="3.3" ry="6.6"/>
<ellipse class="st5" cx="24.7" cy="6.6" rx="3.3" ry="6.6"/>
<ellipse transform="matrix(0.5959 -0.803 0.803 0.5959 7.9013 19.8631)" class="st6" cx="23.7" cy="2.1" rx="1.8" ry="0.8"/>
</svg>
