<?xml version="1.0" encoding="utf-8"?>
<!-- Generator: Adobe Illustrator 21.1.0, SVG Export Plug-In . SVG Version: 6.00 Build 0)  -->
<svg version="1.1" id="Laag_10" xmlns="http://www.w3.org/2000/svg" xmlns:xlink="http://www.w3.org/1999/xlink" x="0px" y="0px"
	 viewBox="0 0 341.1 642.2" style="enable-background:new 0 0 341.1 642.2;" xml:space="preserve">
<style type="text/css">
	.st0{fill:#3C3C3B;}
	.st1{fill:#DFE5F2;}
</style>
<g>
	<path class="st0" d="M326.6,124.8l-186.7,1.4c-0.3-35.1,41.3-63.8,92.9-64.2C284.3,61.6,326.3,89.8,326.6,124.8z"/>
	<rect x="127.2" y="129.9" class="st0" width="213.9" height="14.5"/>
	<path class="st0" d="M27.5,642.2H0V12C0,5.4,5.4,0,12,0h4.1c6.6,0,12,5.4,12,12v629.6C28.1,641.9,27.8,642.2,27.5,642.2z"/>
	<path class="st0" d="M232.8,25.6H12c-6.6,0-12-5.4-12-12V12C0,5.4,5.4,0,12,0h220.8c6.6,0,12,5.4,12,12v1.6
		C244.8,20.2,239.4,25.6,232.8,25.6z"/>
	<path class="st0" d="M232.8,70.2h-4.4c-6.6,0-12-5.4-12-12V12c0-6.6,5.4-12,12-12h4.4c6.6,0,12,5.4,12,12v46.2
		C244.8,64.8,239.4,70.2,232.8,70.2z"/>
	<path class="st0" d="M240.3,74.1h-19.3c-6.6,0-12-5.4-12-12v-5.8c0-6.6,5.4-12,12-12h19.3c6.6,0,12,5.4,12,12v5.8
		C252.3,68.7,246.9,74.1,240.3,74.1z"/>
	<path class="st1" d="M158.6,202.1L158.6,202.1c-4,0-7.2-3.2-7.2-7.2v-34.5c0-4,3.2-7.2,7.2-7.2h0c4,0,7.2,3.2,7.2,7.2v34.5
		C165.8,198.9,162.6,202.1,158.6,202.1z"/>
	<path class="st1" d="M233.5,202.1L233.5,202.1c-4,0-7.2-3.2-7.2-7.2v-34.5c0-4,3.2-7.2,7.2-7.2h0c4,0,7.2,3.2,7.2,7.2v34.5
		C240.7,198.9,237.4,202.1,233.5,202.1z"/>
	<path class="st1" d="M307.6,202.1L307.6,202.1c-4,0-7.2-3.2-7.2-7.2v-34.5c0-4,3.2-7.2,7.2-7.2h0c4,0,7.2,3.2,7.2,7.2v34.5
		C314.7,198.9,311.5,202.1,307.6,202.1z"/>
	<path class="st1" d="M197.6,263.1L197.6,263.1c-4,0-7.2-3.2-7.2-7.2v-34.5c0-4,3.2-7.2,7.2-7.2h0c4,0,7.2,3.2,7.2,7.2v34.5
		C204.8,259.9,201.5,263.1,197.6,263.1z"/>
	<path class="st1" d="M272.6,263.1L272.6,263.1c-4,0-7.2-3.2-7.2-7.2v-34.5c0-4,3.2-7.2,7.2-7.2h0c4,0,7.2,3.2,7.2,7.2v34.5
		C279.8,259.9,276.6,263.1,272.6,263.1z"/>
	<path class="st1" d="M159,315.1L159,315.1c-4,0-7.2-3.2-7.2-7.2v-34.5c0-4,3.2-7.2,7.2-7.2l0,0c4,0,7.2,3.2,7.2,7.2v34.5
		C166.2,311.9,163,315.1,159,315.1z"/>
	<path class="st1" d="M233.9,315.1L233.9,315.1c-4,0-7.2-3.2-7.2-7.2v-34.5c0-4,3.2-7.2,7.2-7.2h0c4,0,7.2,3.2,7.2,7.2v34.5
		C241,311.9,237.8,315.1,233.9,315.1z"/>
	<path class="st1" d="M307.9,315.1L307.9,315.1c-4,0-7.2-3.2-7.2-7.2v-34.5c0-4,3.2-7.2,7.2-7.2h0c4,0,7.2,3.2,7.2,7.2v34.5
		C315.1,311.9,311.9,315.1,307.9,315.1z"/>
	<path class="st1" d="M197.6,372.6L197.6,372.6c-4,0-7.2-3.2-7.2-7.2V331c0-4,3.2-7.2,7.2-7.2h0c4,0,7.2,3.2,7.2,7.2v34.5
		C204.8,369.4,201.5,372.6,197.6,372.6z"/>
	<path class="st1" d="M272.6,372.6L272.6,372.6c-4,0-7.2-3.2-7.2-7.2V331c0-4,3.2-7.2,7.2-7.2h0c4,0,7.2,3.2,7.2,7.2v34.5
		C279.8,369.4,276.6,372.6,272.6,372.6z"/>
	<path class="st1" d="M159,438.3L159,438.3c-4,0-7.2-3.2-7.2-7.2v-34.5c0-4,3.2-7.2,7.2-7.2l0,0c4,0,7.2,3.2,7.2,7.2v34.5
		C166.2,435.1,163,438.3,159,438.3z"/>
	<path class="st1" d="M233.9,438.3L233.9,438.3c-4,0-7.2-3.2-7.2-7.2v-34.5c0-4,3.2-7.2,7.2-7.2h0c4,0,7.2,3.2,7.2,7.2v34.5
		C241,435.1,237.8,438.3,233.9,438.3z"/>
	<path class="st1" d="M307.9,438.3L307.9,438.3c-4,0-7.2-3.2-7.2-7.2v-34.5c0-4,3.2-7.2,7.2-7.2h0c4,0,7.2,3.2,7.2,7.2v34.5
		C315.1,435.1,311.9,438.3,307.9,438.3z"/>
	<path class="st1" d="M197.6,502.7L197.6,502.7c-4,0-7.2-3.2-7.2-7.2V461c0-4,3.2-7.2,7.2-7.2h0c4,0,7.2,3.2,7.2,7.2v34.5
		C204.8,499.5,201.5,502.7,197.6,502.7z"/>
	<path class="st1" d="M272.6,502.7L272.6,502.7c-4,0-7.2-3.2-7.2-7.2V461c0-4,3.2-7.2,7.2-7.2h0c4,0,7.2,3.2,7.2,7.2v34.5
		C279.8,499.5,276.6,502.7,272.6,502.7z"/>
</g>
</svg>
