<?xml version="1.0" encoding="utf-8"?>
<!-- Generator: Adobe Illustrator 21.1.0, SVG Export Plug-In . SVG Version: 6.00 Build 0)  -->
<svg version="1.1" id="Laag_10" xmlns="http://www.w3.org/2000/svg" xmlns:xlink="http://www.w3.org/1999/xlink" x="0px" y="0px"
	 viewBox="0 0 341.1 642.2" style="enable-background:new 0 0 341.1 642.2;" xml:space="preserve">
<style type="text/css">
	.st0{fill:#3C3C3B;}
</style>
<g>
	<path class="st0" d="M326.6,124.8l-186.7,1.4c-0.3-35.1,41.3-63.8,92.9-64.2C284.3,61.6,326.3,89.8,326.6,124.8z"/>
	<rect x="127.2" y="129.9" class="st0" width="213.9" height="14.5"/>
	<path class="st0" d="M28.1,642.2H0V8.7C0,3.9,3.9,0,8.7,0h10.7c4.8,0,8.7,3.9,8.7,8.7V642.2z"/>
	<path class="st0" d="M232.8,25.6H12c-6.6,0-12-5.4-12-12V12C0,5.4,5.4,0,12,0h220.8c6.6,0,12,5.4,12,12v1.6
		C244.8,20.2,239.4,25.6,232.8,25.6z"/>
	<path class="st0" d="M232.8,70.2h-4.4c-6.6,0-12-5.4-12-12V12c0-6.6,5.4-12,12-12h4.4c6.6,0,12,5.4,12,12v46.2
		C244.8,64.8,239.4,70.2,232.8,70.2z"/>
	<path class="st0" d="M240.3,74.1h-19.3c-6.6,0-12-5.4-12-12v-5.8c0-6.6,5.4-12,12-12h19.3c6.6,0,12,5.4,12,12v5.8
		C252.3,68.7,246.9,74.1,240.3,74.1z"/>
</g>
</svg>
