<?xml version="1.0" encoding="utf-8"?>
<!-- Generator: Adobe Illustrator 21.1.0, SVG Export Plug-In . SVG Version: 6.00 Build 0)  -->
<svg version="1.1" id="Layer_1" xmlns="http://www.w3.org/2000/svg" xmlns:xlink="http://www.w3.org/1999/xlink" x="0px" y="0px"
	 viewBox="0 0 484.4 54.4" style="enable-background:new 0 0 484.4 54.4;" xml:space="preserve">
<style type="text/css">
	.st0{fill:#3D3E3E;}
	.st1{fill:#FCC94D;}
	.st2{fill:#243669;}
	.st3{fill:#FCC94D;stroke:#243669;stroke-width:3.21;stroke-miterlimit:10;}
	.st4{fill:#262626;}
	.st5{fill:none;}
	.st6{fill:#202020;}
</style>
<path class="st0" d="M53.5,48.6H28.8c-1.2,0-2.2-1-2.2-2.2c0,0,0,0,0,0l0,0c0-1.2,1-2.2,2.2-2.2c0,0,0,0,0,0h24.7
	c1.2,0,2.3,1,2.3,2.2c0,0,0,0,0,0l0,0C55.8,47.6,54.8,48.6,53.5,48.6C53.5,48.6,53.5,48.6,53.5,48.6z"/>
<path class="st0" d="M183.8,43.5h33.8c1.2,0,2.2,1,2.2,2.2v0c0,1.2-1,2.2-2.2,2.2h-33.8c-1.2,0-2.2-1-2.2-2.2v0
	C181.6,44.5,182.6,43.5,183.8,43.5z"/>
<path class="st1" d="M3,46.4l1.4-13C4.3,29.5,21.9,0,24,0h212.8c2.1,0,3.8,3.1,3.8,6.9v37h-51.7c-1.1,0-2.2,0.6-2.7,1.6l-2.6,4.5
	c-0.1,0.3-0.4,0.4-0.7,0.4H56c-0.4,0-0.8-0.2-1-0.6l-2.2-3.8c-0.8-1.3-2.2-2.2-3.7-2.1H32.4c-1.1,0-2.1,0.6-2.7,1.5l-2.4,4.3
	c-0.2,0.4-0.7,0.7-1.2,0.7h-26C-0.8,49.7,3,50.2,3,46.4z"/>
<path class="st2" d="M51.1,33.1l16.1,9l0,0c0.6,0.5,1.3,0.7,2.1,0.7h100c0.4,0,0.9-0.1,1.3-0.3l0.7-0.4l15.3-8.5
	c-1.1-0.6-1.8-1.7-1.8-3V19.7l-16,8.9h-99l-17.1-9.6v11.2C52.7,31.4,52.1,32.5,51.1,33.1z M142.7,33.5c0-1.2,0.9-2.1,2.1-2.1h9.7
	c1.2,0,2.1,0.9,2.1,2.1l0,0v4.9c0,1.2-0.9,2.1-2.1,2.1h-9.7c-1.1,0-2.1-0.9-2.1-2.1L142.7,33.5z M121.9,33.5c0-1.2,0.9-2.1,2.1-2.1
	h9.8c1.2,0,2.1,0.9,2.1,2.1l0,0v4.9c0,1.2-0.9,2.1-2.1,2.1h-9.7c-1.2,0-2.1-0.9-2.1-2.1L121.9,33.5z M100.9,33.5
	c0-1.2,0.9-2.1,2.1-2.1h9.8c1.2,0,2.1,0.9,2.1,2.1v4.9c0,1.2-0.9,2.1-2.1,2.1H103c-1.2,0-2.1-0.9-2.1-2l0,0L100.9,33.5z M80,33.5
	c0-1.1,0.9-2.1,2.1-2.1c0,0,0,0,0,0h9.7c1.2,0,2.1,0.9,2.1,2.1v4.9c0,1.2-0.9,2.1-2.1,2.1h-9.7c-1.1,0-2.1-0.9-2.1-2.1c0,0,0,0,0,0
	l0,0V33.5z"/>
<path class="st2" d="M171.2,42.1l-0.7,0.4C170.8,42.4,171,42.3,171.2,42.1z"/>
<path class="st2" d="M144.8,31.4h9.7c1.2,0,2.1,0.9,2.1,2.1v4.9c0,1.2-0.9,2.1-2.1,2.1h-9.7c-1.2,0-2.1-0.9-2.1-2.1v-4.9
	C142.7,32.3,143.7,31.4,144.8,31.4z"/>
<path class="st2" d="M124,31.4h9.7c1.2,0,2.1,0.9,2.1,2.1v4.9c0,1.2-0.9,2.1-2.1,2.1H124c-1.2,0-2.1-0.9-2.1-2.1v-4.9
	C121.9,32.3,122.8,31.4,124,31.4z"/>
<path class="st2" d="M103,31.4h9.7c1.2,0,2.1,0.9,2.1,2.1v4.9c0,1.2-0.9,2.1-2.1,2.1H103c-1.2,0-2.1-0.9-2.1-2.1v-4.9
	C100.9,32.3,101.8,31.4,103,31.4z"/>
<path class="st2" d="M82.1,31.4h9.7c1.2,0,2.1,0.9,2.1,2.1v4.9c0,1.2-0.9,2.1-2.1,2.1h-9.7c-1.2,0-2.1-0.9-2.1-2.1v-4.9
	C80,32.3,81,31.4,82.1,31.4z"/>
<path class="st3" d="M37.4,11v19.3c0,1.9,1.5,3.4,3.4,3.4l0,0h8.5c1.8,0,3.3-1.5,3.4-3.4V11c0-1.9-1.5-3.4-3.4-3.4l0,0h-8.5
	C38.9,7.6,37.4,9.1,37.4,11C37.4,11,37.4,11,37.4,11L37.4,11z"/>
<path class="st2" d="M70.5,12.9h97.6c2.5,0,4.6,2,4.6,4.6l0,0c0,2.5-2,4.6-4.6,4.6H70.5c-2.5,0-4.6-2-4.6-4.6l0,0
	C65.9,14.9,68,12.9,70.5,12.9z"/>
<path class="st4" d="M83.3,14.1h7.4c1.8,0,3.2,1.5,3.2,3.2v0c0,1.8-1.5,3.2-3.2,3.2h-7.4c-1.8,0-3.2-1.5-3.2-3.2v0
	C80,15.6,81.5,14.1,83.3,14.1z"/>
<path class="st4" d="M104.1,14.1h7.4c1.8,0,3.2,1.5,3.2,3.2v0c0,1.8-1.5,3.2-3.2,3.2h-7.4c-1.8,0-3.2-1.5-3.2-3.2v0
	C100.9,15.6,102.3,14.1,104.1,14.1z"/>
<path class="st4" d="M125.1,14.1h7.4c1.8,0,3.2,1.5,3.2,3.2v0c0,1.8-1.5,3.2-3.2,3.2h-7.4c-1.8,0-3.2-1.5-3.2-3.2v0
	C121.9,15.6,123.3,14.1,125.1,14.1z"/>
<path class="st4" d="M146,14.1h7.4c1.8,0,3.2,1.5,3.2,3.2v0c0,1.8-1.5,3.2-3.2,3.2H146c-1.8,0-3.2-1.5-3.2-3.2v0
	C142.7,15.6,144.2,14.1,146,14.1z"/>
<path class="st4" d="M82.1,31.4h9.7c1.2,0,2.1,0.9,2.1,2.1v4.9c0,1.2-0.9,2.1-2.1,2.1h-9.7c-1.2,0-2.1-0.9-2.1-2.1v-4.9
	C80,32.3,81,31.4,82.1,31.4z"/>
<path class="st4" d="M103,31.4h9.7c1.2,0,2.1,0.9,2.1,2.1v4.9c0,1.2-0.9,2.1-2.1,2.1H103c-1.2,0-2.1-0.9-2.1-2.1v-4.9
	C100.9,32.3,101.8,31.4,103,31.4z"/>
<path class="st4" d="M124,31.4h9.7c1.2,0,2.1,0.9,2.1,2.1v4.9c0,1.2-0.9,2.1-2.1,2.1H124c-1.2,0-2.1-0.9-2.1-2.1v-4.9
	C121.9,32.3,122.8,31.4,124,31.4z"/>
<path class="st4" d="M144.8,31.4h9.7c1.2,0,2.1,0.9,2.1,2.1v4.9c0,1.2-0.9,2.1-2.1,2.1h-9.7c-1.2,0-2.1-0.9-2.1-2.1v-4.9
	C142.7,32.3,143.7,31.4,144.8,31.4z"/>
<line class="st5" x1="51.1" y1="33.1" x2="50.5" y2="32.7"/>
<line class="st5" x1="70.6" y1="29" x2="69.8" y2="28.6"/>
<line class="st5" x1="52.7" y1="19" x2="52.3" y2="18.8"/>
<path class="st3" d="M184.8,11.4v19.3c0,1.3,0.7,2.4,1.8,3c0.5,0.3,1,0.4,1.6,0.4h8.5c1.9,0,3.4-1.5,3.4-3.4l0,0V11.4
	c0-1.9-1.5-3.4-3.4-3.4l0,0h-8.5C186.3,8,184.8,9.5,184.8,11.4C184.8,11.4,184.8,11.4,184.8,11.4L184.8,11.4z"/>
<circle class="st6" cx="46.3" cy="50.4" r="4"/>
<circle class="st6" cx="36" cy="50.4" r="4"/>
<circle class="st6" cx="206" cy="50.4" r="4"/>
<circle class="st6" cx="195.8" cy="50.4" r="4"/>
<line class="st5" x1="187.2" y1="33.2" x2="186.5" y2="33.6"/>
<line class="st5" x1="170.5" y1="42.5" x2="170.4" y2="42.6"/>
<line class="st5" x1="168.8" y1="28.6" x2="167.1" y2="29.5"/>
<line class="st5" x1="185.3" y1="19.4" x2="184.7" y2="19.7"/>
<path class="st4" d="M188.1,20.4v-6c0-0.9,0.7-1.6,1.6-1.6c0,0,0,0,0,0l0,0c0.9,0,1.6,0.7,1.6,1.6c0,0,0,0,0,0v6
	c0,0.9-0.7,1.6-1.6,1.6c0,0,0,0,0,0l0,0C188.9,22,188.1,21.3,188.1,20.4L188.1,20.4z"/>
<path class="st4" d="M193.1,20.4v-6c0-0.9,0.7-1.6,1.6-1.6c0,0,0,0,0.1,0l0,0c0.9,0,1.6,0.7,1.6,1.6c0,0,0,0,0,0v6
	c0,0.9-0.7,1.6-1.6,1.6c0,0,0,0,0,0l0,0C193.9,22,193.1,21.3,193.1,20.4C193.1,20.4,193.1,20.4,193.1,20.4z"/>
<path class="st4" d="M40.9,20v-6c0-0.9,0.7-1.6,1.6-1.6c0,0,0,0,0,0l0,0c0.9,0,1.6,0.7,1.6,1.6v6c0,0.9-0.7,1.6-1.6,1.6l0,0
	C41.6,21.6,40.9,20.9,40.9,20C40.9,20,40.9,20,40.9,20z"/>
<path class="st4" d="M45.8,20v-6c0-0.9,0.7-1.6,1.6-1.6c0,0,0,0,0,0l0,0c0.9,0,1.6,0.7,1.6,1.6v6c0,0.9-0.7,1.6-1.6,1.6l0,0
	C46.5,21.6,45.8,20.9,45.8,20C45.8,20,45.8,20,45.8,20z"/>
<path class="st0" d="M240.3,4.7h-214c-1.3,0-2.3-1-2.4-2.3c0,0,0,0,0,0l0,0l0,0C24,1.1,25,0,26.3,0H238c1.3,0,2.3,1.1,2.3,2.3V4.7
	L240.3,4.7z"/>
<path class="st0" d="M28.4,10.2L5.9,29.1C10.1,19.9,22.3,0,24,0h11.9v0.1L28.4,10.2z"/>
<rect x="199.9" y="18.1" class="st2" width="40.6" height="14.2"/>
<path class="st4" d="M217.2,20.7h9.7c1.2,0,2.1,0.9,2.1,2.1v4.9c0,1.2-0.9,2.1-2.1,2.1h-9.7c-1.2,0-2.1-0.9-2.1-2.1v-4.9
	C215.1,21.6,216,20.7,217.2,20.7z"/>
<path class="st0" d="M431,44.1h24.7c1.2,0,2.2,1,2.2,2.2l0,0c0,1.2-1,2.2-2.2,2.2H431c-1.2,0-2.3-1-2.3-2.2c0,0,0,0,0,0l0,0
	C428.8,45.1,429.8,44.1,431,44.1C431,44.1,431,44.1,431,44.1z"/>
<path class="st0" d="M266.8,43.5h33.8c1.2,0,2.2,1,2.2,2.2l0,0c0,1.2-1,2.2-2.2,2.2h-33.8c-1.2,0-2.2-1-2.2-2.2l0,0
	C264.6,44.5,265.6,43.5,266.8,43.5z"/>
<path class="st1" d="M481.5,46.4l-1.4-13c0-3.8-17.6-33.3-19.7-33.3H247.8C245.7,0,244,3.2,244,7v37h51.7c1.1,0,2.2,0.6,2.7,1.6
	l2.2,3.9c0.4,0.6,1,1,1.8,1h125.5c0.7,0,1.4-0.4,1.8-1l1.9-3.3c0.8-1.3,2.2-2.1,3.7-2.1H452c1.1,0,2.2,0.6,2.7,1.6l2.2,3.9
	c0.4,0.6,1.1,1,1.8,1h25.6C485,49.2,481.5,50.2,481.5,46.4z"/>
<path class="st2" d="M431.8,30.2V19.1l-17.1,9.6h-98.9l-16-8.9v11c0,1.2-0.7,2.4-1.8,2.9l15.3,8.5l0.7,0.4c0.4,0.2,0.8,0.3,1.3,0.3
	h99.9c0.8,0,1.5-0.3,2.1-0.7l0,0l16.1-9C432.4,32.5,431.8,31.4,431.8,30.2z M341.8,38.3c0,1.2-0.9,2.1-2.1,2.1h-9.7
	c-1.1,0-2.1-0.9-2.1-2.1c0,0,0,0,0,0l0,0v-4.9c0-1.2,0.9-2.1,2.1-2.1h9.7c1.2,0,2.1,0.9,2.1,2.1v0l0,0L341.8,38.3z M362.6,38.3
	c0,1.2-0.9,2.1-2.1,2.1h-9.8c-1.1,0-2-1-2-2.1l0,0v-4.9c0-1.1,0.9-2.1,2.1-2.1c0,0,0,0,0,0h9.7c1.2,0,2.1,0.9,2.1,2.1l0,0
	L362.6,38.3z M383.6,38.3c0,1.2-0.9,2.1-2.1,2.1h0h-9.7c-1.2,0-2.1-0.9-2.1-2.1v-4.9c0-1.2,0.9-2.1,2.1-2.1h9.7
	c1.2,0,2.1,0.9,2.1,2.1v0l0,0L383.6,38.3z M404.4,38.3c0,1.2-0.9,2.1-2.1,2.1h-9.7c-1.2,0-2.1-0.9-2.1-2.1v-4.9
	c0-1.2,0.9-2.1,2.1-2.1h9.7c1.2,0,2.1,0.9,2.1,2.1l0,0L404.4,38.3z"/>
<path class="st2" d="M313.3,42.1l0.7,0.4C313.7,42.4,313.5,42.3,313.3,42.1z"/>
<path class="st2" d="M329.9,31.4h9.7c1.2,0,2.1,0.9,2.1,2.1v4.9c0,1.2-0.9,2.1-2.1,2.1h-9.7c-1.2,0-2.1-0.9-2.1-2.1v-4.9
	C327.9,32.3,328.8,31.4,329.9,31.4z"/>
<path class="st2" d="M350.8,31.4h9.7c1.2,0,2.1,0.9,2.1,2.1v4.9c0,1.2-0.9,2.1-2.1,2.1h-9.7c-1.2,0-2.1-0.9-2.1-2.1v-4.9
	C348.7,32.3,349.6,31.4,350.8,31.4z"/>
<path class="st2" d="M371.8,31.4h9.7c1.2,0,2.1,0.9,2.1,2.1v4.9c0,1.2-0.9,2.1-2.1,2.1h-9.7c-1.2,0-2.1-0.9-2.1-2.1v-4.9
	C369.7,32.3,370.6,31.4,371.8,31.4z"/>
<path class="st2" d="M392.6,31.4h9.7c1.2,0,2.1,0.9,2.1,2.1v4.9c0,1.2-0.9,2.1-2.1,2.1h-9.7c-1.2,0-2.1-0.9-2.1-2.1v-4.9
	C390.5,32.3,391.5,31.4,392.6,31.4z"/>
<path class="st3" d="M447.1,11v19.3c0,1.9-1.5,3.4-3.4,3.4h-8.5c-1.8,0-3.3-1.5-3.4-3.3V11c0-1.9,1.5-3.4,3.4-3.4h8.5
	C445.5,7.6,447,9.1,447.1,11z"/>
<path class="st2" d="M316.4,12.8H414c2.5,0,4.6,2,4.6,4.6l0,0c0,2.5-2,4.6-4.6,4.6h-97.6c-2.5,0-4.6-2-4.6-4.6l0,0
	C311.9,14.9,313.9,12.8,316.4,12.8z"/>
<path class="st4" d="M393.8,14.1h7.4c1.8,0,3.2,1.5,3.2,3.2v0c0,1.8-1.5,3.2-3.2,3.2h-7.4c-1.8,0-3.2-1.5-3.2-3.2v0
	C390.5,15.6,392,14.1,393.8,14.1z"/>
<path class="st4" d="M372.9,14.1h7.4c1.8,0,3.2,1.5,3.2,3.2v0c0,1.8-1.5,3.2-3.2,3.2h-7.4c-1.8,0-3.2-1.5-3.2-3.2v0
	C369.7,15.6,371.1,14.1,372.9,14.1z"/>
<path class="st4" d="M351.9,14.1h7.4c1.8,0,3.2,1.5,3.2,3.2v0c0,1.8-1.5,3.2-3.2,3.2h-7.4c-1.8,0-3.2-1.5-3.2-3.2v0
	C348.7,15.6,350.2,14.1,351.9,14.1z"/>
<path class="st4" d="M331.1,14.1h7.4c1.8,0,3.2,1.5,3.2,3.2v0c0,1.8-1.5,3.2-3.2,3.2h-7.4c-1.8,0-3.2-1.5-3.2-3.2v0
	C327.9,15.6,329.3,14.1,331.1,14.1z"/>
<path class="st4" d="M392.6,31.4h9.7c1.2,0,2.1,0.9,2.1,2.1v4.9c0,1.2-0.9,2.1-2.1,2.1h-9.7c-1.2,0-2.1-0.9-2.1-2.1v-4.9
	C390.5,32.3,391.5,31.4,392.6,31.4z"/>
<path class="st4" d="M371.8,31.4h9.7c1.2,0,2.1,0.9,2.1,2.1v4.9c0,1.2-0.9,2.1-2.1,2.1h-9.7c-1.2,0-2.1-0.9-2.1-2.1v-4.9
	C369.7,32.3,370.6,31.4,371.8,31.4z"/>
<path class="st4" d="M350.8,31.4h9.7c1.2,0,2.1,0.9,2.1,2.1v4.9c0,1.2-0.9,2.1-2.1,2.1h-9.7c-1.2,0-2.1-0.9-2.1-2.1v-4.9
	C348.7,32.3,349.6,31.4,350.8,31.4z"/>
<path class="st4" d="M329.9,31.4h9.7c1.2,0,2.1,0.9,2.1,2.1v4.9c0,1.2-0.9,2.1-2.1,2.1h-9.7c-1.2,0-2.1-0.9-2.1-2.1v-4.9
	C327.9,32.3,328.8,31.4,329.9,31.4z"/>
<line class="st5" x1="434" y1="32.7" x2="433.4" y2="33.1"/>
<line class="st5" x1="414.7" y1="28.6" x2="413.9" y2="29"/>
<line class="st5" x1="432.2" y1="18.8" x2="431.8" y2="19"/>
<path class="st3" d="M299.8,11.4v19.3c0,1.9-1.5,3.4-3.4,3.4h-8.5c-1.9,0-3.4-1.5-3.4-3.4c0,0,0,0,0,0l0,0V11.4
	c0-1.9,1.5-3.4,3.3-3.4c0,0,0,0,0,0h8.5C298.3,8,299.8,9.5,299.8,11.4L299.8,11.4L299.8,11.4z"/>
<circle class="st6" cx="438.2" cy="50.4" r="4"/>
<circle class="st6" cx="448.5" cy="50.4" r="4"/>
<circle class="st6" cx="278.5" cy="50.4" r="4"/>
<circle class="st6" cx="288.7" cy="50.4" r="4"/>
<line class="st5" x1="298" y1="33.6" x2="297.3" y2="33.2"/>
<line class="st5" x1="314.1" y1="42.6" x2="314" y2="42.5"/>
<line class="st5" x1="317.4" y1="29.5" x2="315.7" y2="28.6"/>
<line class="st5" x1="299.8" y1="19.7" x2="299.2" y2="19.4"/>
<path class="st4" d="M293.1,20.4v-6.1c0-0.9,0.7-1.6,1.6-1.6h0l0,0c0.9,0,1.6,0.7,1.6,1.6c0,0,0,0,0,0v6.1c0,0.9-0.7,1.6-1.6,1.6
	c0,0,0,0,0,0l0,0C293.9,22.1,293.1,21.3,293.1,20.4C293.1,20.4,293.1,20.4,293.1,20.4z"/>
<path class="st4" d="M288.2,20.4v-6c0-0.9,0.7-1.6,1.6-1.6l0,0c0.9,0,1.6,0.7,1.6,1.6c0,0,0,0,0,0v6c0,0.9-0.7,1.6-1.6,1.6
	c0,0,0,0,0,0l0,0C288.9,22,288.2,21.3,288.2,20.4z"/>
<path class="st4" d="M440.4,20v-6c0-0.9,0.7-1.6,1.6-1.6c0,0,0,0,0,0l0,0c0.9,0,1.6,0.7,1.6,1.6c0,0,0,0,0,0v6
	c0,0.9-0.7,1.6-1.6,1.6c0,0,0,0,0,0l0,0C441.1,21.6,440.4,20.9,440.4,20C440.4,20,440.4,20,440.4,20z"/>
<path class="st4" d="M435.4,20v-6c0-0.9,0.7-1.6,1.6-1.6c0,0,0,0,0,0l0,0c0.9,0,1.6,0.7,1.6,1.6c0,0,0,0,0,0v6
	c0,0.9-0.7,1.6-1.6,1.6c0,0,0,0,0,0l0,0C436.2,21.6,435.4,20.9,435.4,20C435.4,20,435.4,20,435.4,20z"/>
<path class="st0" d="M246.5,0h211.7c1.3,0,2.3,1,2.4,2.3c0,0,0,0,0,0l0,0l0,0c0,1.3-1,2.3-2.3,2.3h-214V2.3
	C244.2,1.1,245.2,0,246.5,0z"/>
<path class="st0" d="M456.1,10.2l22.5,18.9C474.3,19.9,462.1,0,460.5,0h-11.9v0.1L456.1,10.2z"/>
<rect x="244" y="18.1" class="st2" width="40.6" height="14.2"/>
<path class="st4" d="M257.6,20.7h9.7c1.2,0,2.1,0.9,2.1,2.1v4.9c0,1.2-0.9,2.1-2.1,2.1h-9.7c-1.2,0-2.1-0.9-2.1-2.1v-4.9
	C255.5,21.6,256.4,20.7,257.6,20.7z"/>
</svg>
