<svg id="Layer_1" data-name="Layer 1" xmlns="http://www.w3.org/2000/svg" viewBox="0 0 476.39 54.97"><defs><style>.cls-1{fill:#fff;}.cls-2{fill:#243568;}.cls-3{fill:#565455;}.cls-4{fill:#202020;}.cls-5{fill:none;stroke:#243568;stroke-miterlimit:10;stroke-width:1.9px;}</style></defs><title>tram</title><path class="cls-1" d="M476.39,54.93H0C0,24.59,5.51,0,12.31,0H464.09C470.89,0,476.39,24.62,476.39,54.93Z"/><path class="cls-2" d="M.35,44.35C.13,47.75,0,51.35,0,55H476.39c0-3.66-.13-7.21-.35-10.61Z"/><rect class="cls-3" x="100.12" y="0.04" width="10.66" height="54.93"/><rect class="cls-3" x="365.61" y="0.04" width="10.66" height="54.93"/><rect class="cls-3" x="206.95" y="0.04" width="10.66" height="54.93"/><rect class="cls-3" x="258.79" y="0.04" width="10.66" height="54.93"/><rect class="cls-4" x="12.93" y="8.5" width="23.58" height="28.74"/><rect class="cls-4" x="38.93" y="8.5" width="58.94" height="28.74"/><rect class="cls-4" x="112.65" y="8.5" width="91.8" height="28.74"/><rect class="cls-4" x="271.63" y="9.51" width="91.8" height="28.74"/><rect class="cls-4" x="219.78" y="9.51" width="36.84" height="28.74"/><path class="cls-4" d="M5.57,8.5A96.59,96.59,0,0,0,.82,37.22h9.5V8.48Z"/><rect class="cls-4" x="440.19" y="9.51" width="23.58" height="28.74"/><rect class="cls-4" x="378.83" y="9.51" width="58.94" height="28.74"/><path class="cls-4" d="M471.15,9.51a96.6,96.6,0,0,1,4.77,28.74h-9.57V9.51Z"/><line class="cls-5" x1="10.35" y1="5.11" x2="100.12" y2="5.11"/><line class="cls-5" x1="110.78" y1="5.11" x2="206.95" y2="5.11"/><line class="cls-5" x1="217.6" y1="5.11" x2="258.79" y2="5.11"/><line class="cls-5" x1="466.05" y1="5.11" x2="376.27" y2="5.11"/><line class="cls-5" x1="365.61" y1="5.11" x2="269.45" y2="5.11"/></svg>