<?xml version="1.0" encoding="utf-8"?>
<!-- Generator: Adobe Illustrator 21.1.0, SVG Export Plug-In . SVG Version: 6.00 Build 0)  -->
<svg version="1.1" id="Layer_1" xmlns="http://www.w3.org/2000/svg" xmlns:xlink="http://www.w3.org/1999/xlink" x="0px" y="0px"
	 viewBox="0 0 173.3 99.2" style="enable-background:new 0 0 173.3 99.2;" xml:space="preserve">
<style type="text/css">
	.st0{fill:none;stroke:#202020;stroke-width:2.04;stroke-miterlimit:10;}
	.st1{fill:#202020;}
	.st2{fill:#FCC94D;}
	.st3{fill:#FFFFFF;}
	.st4{fill:none;stroke:#FFFFFF;stroke-width:1.64;stroke-miterlimit:10;}
</style>
<line class="st0" x1="137.5" y1="95.5" x2="137.5" y2="32.5"/>
<line class="st0" x1="106" y1="64" x2="169" y2="64"/>
<line class="st0" x1="115.3" y1="86.3" x2="159.8" y2="41.8"/>
<line class="st0" x1="115.3" y1="41.8" x2="159.8" y2="86.3"/>
<line class="st0" x1="108.4" y1="76" x2="166.6" y2="51.9"/>
<line class="st0" x1="125.4" y1="34.9" x2="149.5" y2="93"/>
<line class="st0" x1="108.4" y1="52" x2="166.6" y2="76"/>
<line class="st0" x1="149.6" y1="34.9" x2="125.5" y2="93.1"/>
<path class="st1" d="M102.8,63.5c0,19.5,15.8,35.2,35.2,35.2c19.5,0,35.2-15.8,35.2-35.2s-15.8-35.2-35.2-35.2l0,0l0,0
	C118.6,28.3,102.8,44.1,102.8,63.5z M110.4,63.5c0-15.3,12.4-27.7,27.7-27.7c15.3,0,27.7,12.4,27.7,27.7c0,15.3-12.4,27.7-27.7,27.7
	c0,0,0,0,0,0l0,0C122.8,91.2,110.4,78.9,110.4,63.5C110.4,63.6,110.4,63.5,110.4,63.5L110.4,63.5L110.4,63.5z"/>
<line class="st0" x1="34.7" y1="96" x2="34.7" y2="33.1"/>
<line class="st0" x1="3.2" y1="64.5" x2="66.2" y2="64.5"/>
<line class="st0" x1="12.5" y1="86.8" x2="57" y2="42.3"/>
<line class="st0" x1="12.5" y1="42.3" x2="57" y2="86.8"/>
<line class="st0" x1="5.6" y1="76.5" x2="63.8" y2="52.4"/>
<line class="st0" x1="22.6" y1="35.4" x2="46.7" y2="93.6"/>
<line class="st0" x1="5.6" y1="52.5" x2="63.8" y2="76.6"/>
<line class="st0" x1="46.7" y1="35.4" x2="22.6" y2="93.6"/>
<path class="st1" d="M0,64c0,19.5,15.8,35.2,35.2,35.2c19.5,0,35.2-15.8,35.2-35.2c0-19.5-15.8-35.2-35.2-35.2c0,0,0,0,0,0l0,0
	C15.8,28.8,0,44.5,0,64z M7.6,64c0-15.3,12.4-27.7,27.7-27.7C50.6,36.3,63,48.7,63,64c0,15.3-12.4,27.7-27.7,27.7c0,0,0,0,0,0l0,0
	C20,91.7,7.6,79.3,7.6,64L7.6,64z"/>
<path class="st2" d="M107,32.7L54.7,14.2c-0.9-0.3-1.4-1.2-1.1-2.1c0,0,0-0.1,0-0.1v-0.1c0.4-0.9,1.4-1.3,2.4-1l52.3,18.6
	c0.9,0.3,1.4,1.2,1.1,2.1c0,0,0,0.1,0,0.1v0.1C109,32.6,108,33.1,107,32.7z"/>
<rect x="80.3" y="46.6" transform="matrix(0.3361 -0.9418 0.9418 0.3361 21.93 127.9578)" class="st2" width="42.9" height="3.6"/>
<polygon class="st2" points="95.8,67.1 62.1,13.9 55.4,16.4 92.8,69.1 "/>
<rect x="123.1" y="25.3" transform="matrix(0.7071 -0.7071 0.7071 0.7071 3.7398 101.0234)" class="st2" width="1.5" height="41.3"/>
<path class="st2" d="M105.7,27L105.7,27c0.1-0.4,0.6-0.6,1-0.5l5.1,1.8c0.4,0.1,0.6,0.6,0.5,1l0,0c-0.1,0.4-0.6,0.6-1,0.5l-5.1-1.8
	C105.8,27.8,105.6,27.4,105.7,27z"/>
<rect x="102" y="16.1" transform="matrix(0.3361 -0.9418 0.9418 0.3361 59.2645 117.9646)" class="st3" width="22.5" height="1.7"/>
<polygon class="st1" points="129.2,1.2 103.1,2.6 102.8,3 102.8,3.6 103.2,4.4 103.6,4.6 107.5,5.4 115.5,8.2 118.2,8.2 122.8,7.4 
	126.1,5.6 129.2,3.7 130,3.1 130,2.1 129.7,1.4 "/>
<line class="st4" x1="134.5" y1="61.7" x2="94" y2="62"/>
<line class="st4" x1="137.2" y1="82.9" x2="96.6" y2="76.2"/>
<polygon class="st2" points="92.1,72.9 134.5,67 134.2,64.4 91.2,68.1 "/>
<circle class="st3" cx="95.1" cy="69.2" r="7.9"/>
<circle class="st3" cx="137.4" cy="63.9" r="7.3"/>
<circle class="st3" cx="138" cy="81.8" r="2.3"/>
<polygon class="st3" points="137.5,81.8 140.3,81.8 136.4,74.1 137.5,71.2 133.3,69.6 133.9,73.9 "/>
<rect x="21.5" y="40.7" transform="matrix(0.3361 -0.9418 0.9418 0.3361 -11.5742 68.6363)" class="st2" width="42.9" height="3.6"/>
<path class="st3" d="M51.2,25.3L47.8,24c-0.1-0.1-0.2-0.2-0.2-0.3l0.6-1.8c0-0.1,0.2-0.2,0.3-0.1l4,1.4c0.1,0,0.2,0.2,0.2,0.3
	l-0.4,1.2C52.2,25.2,51.7,25.4,51.2,25.3C51.3,25.3,51.2,25.3,51.2,25.3z"/>
<path class="st3" d="M49.5,21.1L49.5,21.1c0.2-0.6,0.9-0.9,1.5-0.7l3.4,1.2c0.6,0.2,0.9,0.9,0.7,1.5l0,0c-0.2,0.6-0.9,0.9-1.5,0.7
	l-3.4-1.2C49.6,22.4,49.3,21.7,49.5,21.1z"/>
<path class="st2" d="M51.6,20.2l2.9-8c0-0.1,0.2-0.2,0.3-0.2l5.1,1.8c0.1,0,0.2,0.2,0.2,0.3l-2.9,8c0,0.1-0.2,0.2-0.3,0.2l-5.1-1.8
	C51.6,20.5,51.5,20.3,51.6,20.2z"/>
<path class="st1" d="M53,15.8c-0.4-1-0.7-2.1-0.9-3.2c0-0.8-0.2-3.9-0.2-5.6c0.1-1,0.2-1.9,0.4-2.9L53,4.6c0,0-0.6,3.7-0.6,5
	c0,1.3,0.1,2.5,0.3,3.8c0.2,0.6,0.5,1.2,0.8,1.8C53.5,15.2,53,15.7,53,15.8"/>
<path class="st1" d="M46.3,28.5c-0.1-2.3,0-4.6,0.2-6.9c0.3-1.7,1.3-8.4,1.9-11.8c0.4-1.9,1.6-6,1.6-6l0.6,0.9c0,0-2.1,7.7-2.7,10.4
	c-0.5,2.6-0.9,5.3-1.1,8c0,1,0.1,4,0.1,4C46.8,27.5,46.5,28,46.3,28.5"/>
<rect x="55.7" y="7.8" transform="matrix(0.3361 -0.9418 0.9418 0.3361 30.2332 60.8531)" class="st3" width="5.1" height="2.4"/>
<path class="st3" d="M52.1,2.8L52.1,2.8c0.2-0.7,1-1,1.6-0.7l7.2,2.7c0.7,0.2,1,1,0.7,1.6l0,0c-0.2,0.7-1,1-1.6,0.7l-7.2-2.7
	C52.2,4.2,51.9,3.4,52.1,2.8z"/>
<polygon class="st1" points="47.6,7.3 46.4,5.7 47.8,4.8 48.8,3.1 48.6,1.4 48.8,0.2 52.9,0 52.9,1 52.6,1.6 52.1,4.4 "/>
<circle class="st3" cx="34.5" cy="64.5" r="7.3"/>
</svg>
