<?xml version="1.0" encoding="utf-8"?>
<!-- Generator: Adobe Illustrator 21.1.0, SVG Export Plug-In . SVG Version: 6.00 Build 0)  -->
<svg version="1.1" id="Layer_1" xmlns="http://www.w3.org/2000/svg" xmlns:xlink="http://www.w3.org/1999/xlink" x="0px" y="0px"
	 viewBox="0 0 274.3 69.5" style="enable-background:new 0 0 274.3 69.5;" xml:space="preserve">
<style type="text/css">
	.st0{fill:#1E1E1C;}
	.st1{fill:#FFFFFF;}
	.st2{fill:#202020;}
	.st3{fill:#243568;}
	.st4{fill:#FCCA4C;}
	.st5{fill:#C03636;}
</style>
<circle class="st0" cx="55.6" cy="59.9" r="9.6"/>
<circle class="st1" cx="55.6" cy="59.9" r="6.8"/>
<circle class="st0" cx="203.9" cy="59.9" r="9.6"/>
<circle class="st1" cx="203.9" cy="59.9" r="6.8"/>
<path class="st1" d="M12.5,0C11.6,0,11,0.7,11,1.5c0,0.1,0,0.1,0,0.2l0.5,3.9c0,0-0.2,0.3-0.3,0.5c-0.8,1.1-1.6,2.1-2.2,3
	C2.5,18.7,1.2,53.3,1,61c0,0.9,0.6,1.6,1.5,1.6l30.1,2.2h12.2c-2.7-5.9,0-12.9,5.9-15.6c0.7-0.3,1.5-0.6,2.3-0.8
	c3.7-0.8,7.5,0.2,10.4,2.7c3.8,3.4,5,9,2.9,13.7h126.8c-2.7-5.9,0-12.9,5.9-15.6c0.7-0.3,1.5-0.6,2.3-0.8c3.7-0.8,7.6,0.2,10.4,2.7
	c3.8,3.4,5,9,2.9,13.7h42.3l13.2-3.5c1.7-0.5,2.9-2,2.9-3.8V4.3c0-2.3-1.9-4.2-4.2-4.2l0,0H12.5z"/>
<path class="st2" d="M19.8,5h245.4c1.7,0,3.1,1.4,3.1,3.1v28.8c0,1.7-1.4,3.1-3.1,3.1H19.8c-1.7,0-3.1-1.4-3.1-3.1V8
	C16.8,6.3,18.1,5,19.8,5z"/>
<path class="st2" d="M10.6,7.4C9.9,8.3,9.3,9.1,8.8,9.8c-5.1,7.6-6.9,30.8-7.6,44l15.7-4l0.7-39.4L10.6,7.4z"/>
<path class="st3" d="M215.5,57.6c0.2,0.8,0.3,1.6,0.2,2.4c0,1.7-0.3,3.3-1,4.8H257l13.5-3.6c1.5-0.4,2.6-1.8,2.6-3.4v-0.3
	L215.5,57.6z"/>
<path class="st3" d="M44,57.6H1.3c0,0-0.1,0-0.1,0.1c0,1.6-0.1,2.8-0.1,3.7c0,0.7,0.5,1.3,1.2,1.3l30.5,2.2h12.1c0,0,0.1,0,0.1-0.1
	c0,0,0,0,0,0c-0.7-1.5-1-3.1-1-4.7C43.9,59.2,44,58.4,44,57.6C44.1,57.6,44.1,57.6,44,57.6C44.1,57.6,44.1,57.6,44,57.6z"/>
<path class="st3" d="M192.4,57.6H67.2c0.2,0.8,0.2,1.6,0.2,2.4c0,1.7-0.3,3.3-1,4.8h126.8c-0.7-1.5-1-3.2-1.1-4.8
	C192.2,59.2,192.3,58.4,192.4,57.6z"/>
<polygon class="st3" points="16.8,47.8 16.8,57.6 1.2,57.6 1.4,51.9 "/>
<path class="st4" d="M0.8,52.4h0.7c0.4,0,0.8,0.3,0.8,0.8v6.6c0,0.4-0.3,0.8-0.8,0.8H0.8c-0.4,0-0.8-0.3-0.8-0.8v-6.6
	C0,52.8,0.3,52.4,0.8,52.4z"/>
<path class="st3" d="M270.5,42h3.3c0.2,0,0.3,0.1,0.3,0.3l0,0v15c0,0.7-0.5,1.2-1.2,1.2h0h-2.4c-0.2,0-0.3-0.1-0.3-0.3c0,0,0,0,0,0
	V42.3C270.2,42.2,270.4,42,270.5,42z"/>
<path class="st5" d="M273.4,43.2h0.3c0.3,0,0.6,0.3,0.6,0.6v5.9c0,0.3-0.3,0.6-0.6,0.6h-0.3c-0.3,0-0.6-0.3-0.6-0.6v-5.9
	C272.8,43.4,273,43.2,273.4,43.2z"/>
</svg>
