<?xml version="1.0" encoding="utf-8"?>
<!-- Generator: Adobe Illustrator 21.1.0, SVG Export Plug-In . SVG Version: 6.00 Build 0)  -->
<svg version="1.1" id="Layer_1" xmlns="http://www.w3.org/2000/svg" xmlns:xlink="http://www.w3.org/1999/xlink" x="0px" y="0px"
	 viewBox="0 0 185.7 85.6" style="enable-background:new 0 0 185.7 85.6;" xml:space="preserve">
<style type="text/css">
	.st0{fill:#4B9156;}
	.st1{fill:#3D6C35;}
	.st2{fill:none;stroke:#619958;stroke-width:3.08;stroke-miterlimit:10;}
	.st3{fill:#619958;}
	.st4{fill:#DFE5F2;}
	.st5{fill:#FCCA4C;}
	.st6{fill:#C03636;}
	.st7{fill:#FFFFFF;}
	.st8{fill:#3C3C3B;}
	.st9{fill:#1E1E1E;}
	.st10{fill:#DADADA;}
</style>
<path class="st0" d="M185.7,33.1c0.1-0.1,0-0.2-0.1-0.3c-1-0.5-2.1-0.8-3.3-0.9c-2.1,0.2-3.9,1.7-4.5,3.7c0,0.1,0,0.1,0,0.2
	c1.3,1.2,3.2,1.4,4.8,0.6C184,35.7,185.1,34.5,185.7,33.1z"/>
<path class="st0" d="M164.6,11.7c0-0.1-0.1-0.2-0.2-0.1c-1.1,0.4-2,1.1-2.8,1.9c-1.2,1.8-1.2,4.1,0,5.8c0,0.1,0.1,0.1,0.2,0.1
	c1.8-0.2,3.2-1.6,3.6-3.3C165.6,14.6,165.4,13,164.6,11.7z"/>
<path class="st0" d="M154.8,43.4c-0.1,0-0.2,0-0.2,0.1c-0.3,1.1-0.3,2.3-0.1,3.4c0.7,2,2.5,3.4,4.6,3.5c0.1,0,0.2,0,0.2-0.1
	c0.9-1.6,0.6-3.5-0.5-4.8C157.7,44.4,156.3,43.6,154.8,43.4z"/>
<path class="st0" d="M131.1,0.3c-0.1,0-0.2,0.1-0.2,0.2c0.2,1.1,0.7,2.2,1.3,3.1c1.4,1.6,3.7,2,5.7,1.2c0.1,0,0.1-0.1,0.1-0.2
	c0.1-1.8-0.9-3.4-2.5-4.2C134.2-0.1,132.6-0.2,131.1,0.3z"/>
<path class="st1" d="M163.9,4.5h4c0.1,0,0.3,0.1,0.3,0.3v0.1c0,0.1-0.1,0.3-0.3,0.3h-4c-0.1,0-0.3-0.1-0.3-0.3V4.7
	C163.6,4.6,163.7,4.5,163.9,4.5z"/>
<path class="st1" d="M163.9,6.7h4c0.1,0,0.3,0.1,0.3,0.3V7c0,0.1-0.1,0.3-0.3,0.3h-4c-0.1,0-0.3-0.1-0.3-0.3V6.9
	C163.6,6.8,163.7,6.7,163.9,6.7z"/>
<path class="st2" d="M131.7,42.4h38.1c4,0,7.2-3.2,7.2-7.2v-7.6c0-4-3.2-7.2-7.2-7.2h-30.3c-4,0-7.2-3.2-7.2-7.2l0,0
	c0-4,3.7-7.2,7.7-7.2h23.3"/>
<path class="st0" d="M159.7,3h3.1c1.4,0,2.5,1.1,2.5,2.5v0.9c0,1.4-1.1,2.5-2.5,2.5h-3.1c-1.4,0-2.5-1.1-2.5-2.5V5.5
	C157.2,4.1,158.3,3,159.7,3z"/>
<path class="st3" d="M11,34.2h122.3c5,0,9,4,9,9v18.6c0,5-4,9-9,9H11c-5,0-9-4-9-9V43.2C2,38.2,6,34.2,11,34.2z"/>
<path class="st3" d="M56.8,6.6h59.4c6.6,0,12,5.4,12,12V27c0,6.6-5.4,12-12,12H56.8c-6.6,0-12-5.4-12-12v-8.4
	C44.8,12,50.1,6.6,56.8,6.6z"/>
<path class="st3" d="M51.8,11.8h-4.9L33,36.3c2.6,0.8,10.1,2.8,15.6,0C55.4,32.9,58,22.6,51.8,11.8z"/>
<path class="st3" d="M124.9,17.3l3.2-0.2l6.4,21.3c0.2,0.5,0,1-0.5,1.3c-1.4,0.9-3.9,2.1-6-0.2C125.1,36.4,123.4,27.4,124.9,17.3z"
	/>
<path class="st4" d="M94.5,11.1h22.2c5,0,9.1,4.1,9.1,9.1v3.1c0,5-4.1,9.1-9.1,9.1H94.5c-5,0-9.1-4.1-9.1-9.1v-3.1
	C85.4,15.2,89.5,11.1,94.5,11.1z"/>
<ellipse class="st0" cx="4.7" cy="49.8" rx="4.7" ry="6.9"/>
<ellipse class="st5" cx="3.9" cy="49.9" rx="3.9" ry="6.5"/>
<ellipse transform="matrix(0.5989 -0.8008 0.8008 0.5989 -34.3728 23.4759)" class="st4" cx="6.2" cy="46.1" rx="1.8" ry="1"/>
<path class="st6" d="M141.2,40.7h0.5c0.8,0,1.5,0.7,1.5,1.5v8.5c0,0.8-0.7,1.5-1.5,1.5h-0.5c-0.8,0-1.5-0.7-1.5-1.5v-8.5
	C139.7,41.3,140.4,40.7,141.2,40.7z"/>
<path class="st4" d="M53.3,11.1h18.7c4.4,0,7.9,3.5,7.9,7.9l0,0v5.5c0,4.4-3.5,7.9-7.9,7.9l0,0H53.7c-4.4,0-7.9-3.5-7.9-7.9l0,0
	v-5.9C45.8,14.5,49.2,11.1,53.3,11.1L53.3,11.1z"/>
<path class="st4" d="M49.4,14.2c-0.2-0.6-0.8-0.9-1.4-0.7c-0.3,0.1-0.5,0.3-0.6,0.5c-0.8,1.5-1.6,3-2.4,4.6
	c-1.9,3.7-3.6,7.5-5.1,11.1c-0.4,1,0,2.1,1,2.5c0.2,0.1,0.5,0.1,0.7,0.2c4.1,0,8.3-0.1,12.4-0.1c0.6,0,1.1-0.5,1.1-1.1
	c0-0.1,0-0.2-0.1-0.3L49.4,14.2z"/>
<path class="st7" d="M50.7,13.3l0.3,0.1c0.5,0.2,0.7,0.7,0.4,1.2l-6.9,15.2c-0.2,0.5-0.7,0.7-1.2,0.4L43,30.1
	c-0.5-0.2-0.7-0.7-0.4-1.2l6.9-15.2C49.7,13.3,50.2,13.1,50.7,13.3z"/>
<path class="st7" d="M54.2,14.6l0.3,0.1c0.5,0.2,0.7,0.7,0.4,1.2l-6.4,14c-0.2,0.5-0.7,0.7-1.2,0.4L47,30.3
	c-0.5-0.2-0.7-0.7-0.4-1.2l6.4-14C53.2,14.6,53.7,14.4,54.2,14.6z"/>
<path class="st7" d="M57.2,16.3l0.3,0.1c0.5,0.2,0.7,0.7,0.4,1.2l-5.8,12.6C52,30.8,51.4,31,51,30.7l-0.3-0.1
	c-0.5-0.2-0.7-0.7-0.4-1.2L56,16.8C56.2,16.3,56.8,16.1,57.2,16.3z"/>
<circle class="st8" cx="115" cy="71.2" r="14.4"/>
<circle class="st9" cx="115" cy="71.2" r="7.6"/>
<circle class="st10" cx="115" cy="71.2" r="5.3"/>
<circle class="st8" cx="30.6" cy="71.2" r="14.4"/>
<circle class="st9" cx="30.6" cy="71.2" r="7.6"/>
<circle class="st10" cx="30.6" cy="71.2" r="5.3"/>
<path class="st7" d="M85.8,50.2h35.6c0.7,0,1.3,0.6,1.3,1.3v0.4c0,0.7-0.6,1.3-1.3,1.3H85.8c-0.7,0-1.3-0.6-1.3-1.3v-0.4
	C84.6,50.8,85.1,50.2,85.8,50.2z"/>
<path class="st7" d="M85.6,56.3h17c0.6,0,1,0.5,1,1v0.4c0,0.6-0.5,1-1,1h-17c-0.6,0-1-0.5-1-1v-0.4C84.6,56.8,85,56.3,85.6,56.3z"/>
<path class="st7" d="M85.6,62h13.2c0.6,0,1.1,0.5,1.1,1.1v0.4c0,0.6-0.5,1.1-1.1,1.1H85.6c-0.6,0-1.1-0.5-1.1-1.1V63
	C84.6,62.5,85,62,85.6,62z"/>
</svg>
