<?xml version="1.0" encoding="utf-8"?>
<!-- Generator: Adobe Illustrator 21.1.0, SVG Export Plug-In . SVG Version: 6.00 Build 0)  -->
<svg version="1.1" id="Layer_1" xmlns="http://www.w3.org/2000/svg" xmlns:xlink="http://www.w3.org/1999/xlink" x="0px" y="0px"
	 viewBox="0 0 138.8 76.6" style="enable-background:new 0 0 138.8 76.6;" xml:space="preserve">
<style type="text/css">
	.st0{fill:#25346C;}
	.st1{fill:#7EBFD9;}
	.st2{fill:#FCCA4C;}
	.st3{fill:#DFE5F2;}
	.st4{fill:#C03636;}
	.st5{fill:#3C3C3B;}
	.st6{fill:#1E1E1E;}
	.st7{fill:#DADADA;}
	.st8{fill:none;stroke:#C03636;stroke-width:3;stroke-miterlimit:10;}
</style>
<path class="st0" d="M13.9,26.8h112c6.6,0,12,5.4,12,12v11.5c0,6.6-5.4,12-12,12h-112c-6.6,0-12-5.4-12-12V38.8
	C1.9,32.2,7.3,26.8,13.9,26.8z"/>
<path class="st0" d="M55.4,0h56.9c6.6,0,12,5.4,12,12v7.4c0,6.6-5.4,12-12,12H55.4c-6.6,0-12-5.4-12-12V12C43.4,5.4,48.8,0,55.4,0z"
	/>
<path class="st0" d="M46.6,2.2l-4.7,3.5c-0.8,0.7-1.5,1.5-2,2.5L29.7,28.7c2.2,0.8,8.6,2.7,13.2,0C49.4,24.9,54.3,13.8,46.6,2.2z"/>
<path class="st0" d="M120.4,7l3.7-0.3l7.7,21.8c-1,0.8-5.4,2.5-7.8-0.1C121.4,25.5,119.2,16.1,120.4,7z"/>
<path class="st1" d="M93.1,4.4h18.5c5.7,0,10.3,4.6,10.3,10.3l0,0c0,5.7-4.6,10.3-10.3,10.3H93.1c-5.7,0-10.3-4.6-10.3-10.3l0,0
	C82.8,9,87.4,4.4,93.1,4.4z"/>
<ellipse class="st1" cx="4.6" cy="41.9" rx="4.5" ry="6.7"/>
<ellipse class="st2" cx="3.8" cy="42" rx="3.8" ry="6.3"/>
<ellipse transform="matrix(0.6 -0.8 0.8 0.6 -30.1351 18.5337)" class="st3" cx="3.5" cy="39.4" rx="1.7" ry="0.9"/>
<path class="st4" d="M137.2,33L137.2,33c0.9,0,1.7,0.7,1.7,1.7v7.7c0,0.9-0.7,1.7-1.7,1.7h0c-0.9,0-1.7-0.7-1.7-1.7v-7.7
	C135.5,33.8,136.3,33,137.2,33z"/>
<path class="st1" d="M55.9,4.4h11.4C73,4.4,77.6,9,77.6,14.7l0,0C77.6,20.4,73,25,67.3,25H55.9c-5.7,0-10.3-4.6-10.3-10.3l0,0
	C45.6,9,50.2,4.4,55.9,4.4z"/>
<path class="st1" d="M50.9,5.1c-3,1.2-7.1,4.3-8.2,6.6c-2.1,4.1-3.9,8.3-5.6,12.2c-0.2,0.4,0,0.9,0.4,1c0.1,0,0.2,0.1,0.3,0.1
	c5,0.1,10.1-0.1,15.1,0L50.9,5.1z"/>
<path class="st3" d="M47.8,8.1L47.8,8.1c0.5,0.2,0.7,0.8,0.5,1.4l-6.6,14.4c-0.2,0.5-0.8,0.7-1.4,0.5l0,0c-0.5-0.2-0.7-0.8-0.5-1.4
	l6.6-14.4C46.7,8.1,47.3,7.8,47.8,8.1z"/>
<path class="st3" d="M51.2,9.4L51.2,9.4c0.5,0.2,0.7,0.8,0.5,1.4l-6.1,13.3c-0.2,0.5-0.8,0.7-1.4,0.5l0,0c-0.5-0.2-0.7-0.8-0.5-1.4
	l6.1-13.3C50.1,9.4,50.7,9.1,51.2,9.4z"/>
<path class="st3" d="M54.2,11L54.2,11c0.5,0.2,0.7,0.8,0.5,1.4l-5.5,12c-0.2,0.5-0.8,0.7-1.4,0.5l0,0c-0.5-0.2-0.7-0.8-0.5-1.4
	l5.5-12C53,11,53.6,10.8,54.2,11z"/>
<circle class="st5" cx="111.5" cy="62.6" r="14"/>
<circle class="st6" cx="111.5" cy="62.6" r="7.3"/>
<circle class="st7" cx="111.5" cy="62.6" r="5.2"/>
<circle class="st5" cx="29.7" cy="62.6" r="14"/>
<circle class="st6" cx="29.7" cy="62.6" r="7.3"/>
<circle class="st7" cx="29.7" cy="62.6" r="5.2"/>
<path class="st1" d="M80.5,43.3h34.1c0.8,0,1.4,0.6,1.4,1.4v0c0,0.8-0.6,1.4-1.4,1.4H80.5c-0.8,0-1.4-0.6-1.4-1.4v0
	C79.1,43.9,79.7,43.3,80.5,43.3z"/>
<path class="st1" d="M80.2,49.2h16.1c0.7,0,1.2,0.5,1.2,1.2l0,0c0,0.7-0.5,1.2-1.2,1.2H80.2c-0.7,0-1.2-0.5-1.2-1.2l0,0
	C79.1,49.8,79.6,49.2,80.2,49.2z"/>
<path class="st1" d="M80.3,54.7h12.5c0.7,0,1.2,0.5,1.2,1.2v0c0,0.7-0.5,1.2-1.2,1.2H80.3c-0.7,0-1.2-0.5-1.2-1.2v0
	C79.1,55.2,79.6,54.7,80.3,54.7z"/>
<line class="st8" x1="1.9" y1="74.7" x2="137.2" y2="1.8"/>
</svg>
