<svg id="Layer_1" data-name="Layer 1" xmlns="http://www.w3.org/2000/svg" viewBox="0 0 686.68 330.34"><defs><style>.cls-1,.cls-2,.cls-3{fill:#fff;}.cls-2,.cls-3{stroke:#fdffff;stroke-miterlimit:10;}.cls-2{stroke-width:13px;}.cls-3{stroke-width:10.37px;}</style></defs><title>graph</title><g id="Laag_55" data-name="Laag 55"><path class="cls-1" d="M52.75,142.48a52.74,52.74,0,1,0,52.73,52.77,52.74,52.74,0,0,0-52.73-52.77Zm0,70.52a17.79,17.79,0,1,1,17.78-17.8v0A17.78,17.78,0,0,1,52.75,213Z"/><path class="cls-1" d="M230.94,0a52.74,52.74,0,1,0,52.74,52.74h0A52.73,52.73,0,0,0,231,0Zm0,70.52a17.79,17.79,0,1,1,17.79-17.79,17.79,17.79,0,0,1-17.79,17.79Z"/><path class="cls-1" d="M376.81,224.86a52.74,52.74,0,1,0,52.74,52.74h0a52.73,52.73,0,0,0-52.73-52.73Zm0,70.52a17.79,17.79,0,1,1,17.81-17.79,17.79,17.79,0,0,1-17.81,17.79Z"/><path class="cls-1" d="M634,0a52.74,52.74,0,1,0,52.73,52.78A52.74,52.74,0,0,0,634,0Zm0,70.53a17.79,17.79,0,1,1,17.78-17.8v0A17.79,17.79,0,0,1,634,70.53Z"/><line class="cls-2" x1="93.93" y1="162.28" x2="201.98" y2="70.52"/><line class="cls-2" x1="248.73" y1="88.84" x2="351.25" y2="247.95"/><line class="cls-3" x1="400.57" y1="254.03" x2="612.53" y2="75.99"/></g></svg>