<?xml version="1.0" encoding="utf-8"?>
<!-- Generator: Adobe Illustrator 21.1.0, SVG Export Plug-In . SVG Version: 6.00 Build 0)  -->
<svg version="1.1" id="Layer_1" xmlns="http://www.w3.org/2000/svg" xmlns:xlink="http://www.w3.org/1999/xlink" x="0px" y="0px"
	 viewBox="0 0 398.5 327.1" style="enable-background:new 0 0 398.5 327.1;" xml:space="preserve">
<style type="text/css">
	.st0{fill:#3C3C3B;}
	.st1{fill:#DFE5F2;}
</style>
<path class="st0" d="M389.6,0H9C4.1,0,0.1,4,0,8.9v309.2c0,5,4,9,9,9h380.6c4.9,0,8.9-4.1,8.9-9V8.9C398.5,4,394.6,0,389.6,0z"/>
<path class="st1" d="M160.6,82h-48.2c-0.5,0-0.9,0.4-0.9,0.9l0,0v49c0,1.7-1.3,3-3,3s-3-1.3-3-3v-49c0-0.5-0.4-0.9-0.9-0.9l0,0H55.7
	c-1.7,0-3.2-1.4-3.2-3.1c0-1.6,1.3-2.8,2.8-2.8h49.1c0.5,0,0.9-0.4,0.9-0.9l0,0V26.8c0-1.6,1.3-2.8,2.8-2.8h0.4
	c1.5,0,2.8,1.3,2.8,2.8v48.5c0,0.5,0.4,0.9,0.9,0.9l0,0h48.2c1.7,0,3,1.3,3,3C163.5,80.7,162.2,82,160.6,82L160.6,82z"/>
<path class="st1" d="M342.6,82h-48.2c-0.5,0-0.9,0.4-0.9,0.9l0,0v49c0,1.7-1.3,3-3,3s-3-1.3-3-3v-49c0-0.5-0.4-0.9-0.9-0.9l0,0
	h-48.9c-1.7,0-3.1-1.4-3.1-3.1c0-1.6,1.3-2.8,2.8-2.8h49.1c0.5,0,0.9-0.4,0.9-0.9l0,0V26.8c0-1.6,1.3-2.8,2.8-2.8h0.4
	c1.5,0,2.8,1.3,2.8,2.8v48.5c0,0.5,0.4,0.9,0.9,0.9l0,0h48.2c1.7,0,3,1.3,3,3C345.5,80.7,344.2,82,342.6,82L342.6,82z"/>
<path class="st1" d="M160.6,242h-48.2c-0.5,0-0.9,0.4-0.9,0.9v49c0,1.7-1.3,3-3,3s-3-1.3-3-3v-49c0-0.5-0.4-0.9-0.9-0.9H55.7
	c-1.7,0-3.2-1.4-3.2-3.2l0,0c0-1.6,1.3-2.8,2.8-2.8h49.1c0.5,0,0.9-0.4,0.9-0.9v-48.4c0-1.6,1.3-2.8,2.8-2.8h0.4
	c1.5,0,2.8,1.3,2.8,2.8v48.5c0,0.5,0.4,0.9,0.9,0.9h48.2c1.7,0,3,1.3,3,3C163.5,240.7,162.2,242,160.6,242L160.6,242z"/>
<path class="st1" d="M340.6,242h-48.2c-0.5,0-0.9,0.4-0.9,0.9v49c0,1.7-1.3,3-3,3s-3-1.3-3-3v-49c0-0.5-0.4-0.9-0.9-0.9h-48.9
	c-1.7,0-3.1-1.4-3.1-3.2l0,0c0-1.6,1.3-2.8,2.8-2.8h49.1c0.5,0,0.9-0.4,0.9-0.9v-48.4c0-1.6,1.3-2.8,2.8-2.8h0.4
	c1.5,0,2.8,1.3,2.8,2.8v48.5c0,0.5,0.4,0.9,0.9,0.9h48.2c1.7,0,3,1.3,3,3C343.5,240.7,342.2,242,340.6,242L340.6,242z"/>
</svg>
