<?xml version="1.0" encoding="utf-8"?>
<!-- Generator: Adobe Illustrator 21.1.0, SVG Export Plug-In . SVG Version: 6.00 Build 0)  -->
<svg version="1.1" id="Layer_1" xmlns="http://www.w3.org/2000/svg" xmlns:xlink="http://www.w3.org/1999/xlink" x="0px" y="0px"
	 viewBox="0 0 314 125" style="enable-background:new 0 0 314 125;" xml:space="preserve">
<style type="text/css">
	.st0{fill:none;}
	.st1{fill:#154273;}
	.st2{fill:#FFFFFF;}
</style>
<path class="st0" d="M0,0h314v125H0V0z"/>
<path class="st1" d="M0,0h50v100H0V0z"/>
<path class="st2" d="M25.9,77.4H25V75h0.9V77.4z M29.8,66.7H29v-2.4h0.9v2.4H29.8z M13.7,62.6c-0.1,0-0.5,0-0.5,0.1s0.2,0,0.5,0.1
	c0.7,0.1,1,0.5,1.5,0.5c0.4,0,0.9-0.3,0.7-0.9c0-0.1-0.1-0.1-0.1,0c-0.1,0.3-0.4,0.5-0.8,0.5C14.5,62.7,14.4,62.6,13.7,62.6z
	 M8.9,65c0.1,0.1,0.9,1.2-0.4,1.6c-0.1,0-0.1,0.1,0,0.1c0.9,0.4,1.4-0.3,1.4-0.3c0.5,1.1-0.3,1.7-0.3,1.7c0.1,0.2,0.5,0.5,1.2,0.7
	c0.3-0.1,0.6-0.4,0.8-0.8c0,0,0.2,0.5,0,0.9c1.9,0.2,2.6-1.3,4-1.1c0,0,0.1,0,0.1-0.1c0-0.9-0.6-2.7-2.4-3S12,63.6,12,63.6
	c0.8,0,1.2,0.3,1.2,0.3c0.1-0.2-0.1-0.5-0.1-0.5c0.1-0.1,0.1-0.4,0.1-0.4c-0.9,0-1.1-0.2-1.1-0.2c-0.1-0.5,0.2-1.2,1.5-0.5
	c0.3-0.3,0.3-0.7,0.3-0.7c0.1,0,0.2-0.2,0.2-0.3c0-0.2-1-0.8-1.3-0.9c-0.1-0.3-0.5-0.8-1.7-0.6c-0.6,0.1-1-0.1-0.8-0.4
	c0-0.1-0.1-0.1-0.1,0c-0.1,0.1-0.3,0.5,0.2,0.8S11,61,11,61.1s-0.1,0.1-0.2,0c-0.3-0.9-1.5-1.1-2.3-0.6c0,0.5,0.6,0.8,0.9,0.8
	c0.2,0,0.4-0.2,0.4-0.4c0-0.1,0.1-0.1,0.1,0c0.1,0.3-0.4,1-1.1,0.6c-0.7,0.7-0.4,1.7-0.4,2c0.1,0.6-0.2,1.2-0.7,0.9H7.6
	C7.8,64.9,8.3,65.3,8.9,65L8.9,65z M13,61.2c-0.3,0.4-0.9,0.3-1-0.3C12.7,60.9,13,60.9,13,61.2z M35.1,62.7c-0.4,0-0.7-0.2-0.8-0.5
	c0-0.1-0.1-0.1-0.1,0c-0.2,0.6,0.3,0.9,0.7,0.9c0.5,0,0.8-0.4,1.5-0.5c0.3-0.1,0.5,0,0.5-0.1s-0.5-0.1-0.5-0.1
	C35.6,62.6,35.5,62.7,35.1,62.7z M42.2,64.5C42.2,64.4,42.2,64.4,42.2,64.5c-0.6,0.2-0.9-0.4-0.8-1c0.1-0.3,0.4-1.3-0.4-2
	c-0.7,0.4-1.2-0.3-1.1-0.6c0-0.1,0.1-0.1,0.1,0c0,0.2,0.2,0.4,0.4,0.4c0.3,0,0.8-0.3,0.9-0.8c-0.8-0.5-2-0.3-2.3,0.6
	c0,0.1-0.2,0.1-0.2,0s0-0.6,0.6-0.9c0.5-0.2,0.3-0.6,0.2-0.8c-0.1-0.1-0.2,0-0.1,0c0.2,0.3-0.2,0.5-0.8,0.4
	c-1.2-0.2-1.6,0.3-1.7,0.6c-0.3,0.1-1.3,0.6-1.3,0.9c0,0.1,0.1,0.2,0.2,0.3c0,0,0,0.4,0.3,0.7c1.3-0.8,1.6-0.1,1.5,0.5
	c0,0-0.2,0.2-1.1,0.2c0,0,0,0.3,0.1,0.4c0,0-0.2,0.2-0.1,0.5c0,0,0.4-0.3,1.2-0.3c0,0,0.5,0.7-1.3,1.1c-1.8,0.3-2.4,2.1-2.4,3
	c0,0,0,0.1,0.1,0.1c1.5-0.3,2.1,1.2,4,1.1c-0.2-0.4,0-0.9,0-0.9c0.1,0.4,0.5,0.7,0.8,0.8c0.7-0.2,1.1-0.5,1.2-0.7
	c0,0-0.7-0.6-0.2-1.7c0,0,0.5,0.7,1.4,0.3c0.1,0,0.1-0.1,0-0.1C40.1,66.2,41,65.1,41,65C41.7,65.3,42.2,64.9,42.2,64.5L42.2,64.5z
	 M38.1,60.9c-0.1,0.6-0.7,0.7-1,0.3C37.1,60.9,37.4,60.9,38.1,60.9z M24.7,50.2c0,0.2,0.1,0.3,0.1,0.4c0.1,0.2,0.1,0.2,0,0.3
	s-0.1,0.1-0.3,0c-0.1-0.1-0.2-0.1-0.4-0.1c-0.3,0-0.4,0.2-0.4,0.3c0,0.2,0.1,0.3,0.4,0.3c0.2,0,0.3-0.1,0.4-0.1
	c0.2-0.1,0.2-0.1,0.3,0s0,0.6-0.1,1C24.2,52.4,24,52.8,24,53c0,0.5,0.6,0.9,0.9,1c0.3-0.2,0.9-0.5,0.9-1c0-0.2-0.2-0.6-0.7-0.7
	c-0.1-0.4-0.1-1-0.1-1c0.1-0.1,0.1-0.1,0.3,0c0.1,0.1,0.2,0.1,0.4,0.1c0.3,0,0.4-0.2,0.4-0.3c0-0.2-0.1-0.3-0.4-0.3
	c-0.2,0-0.3,0.1-0.4,0.1c-0.2,0.1-0.2,0.1-0.3,0s-0.1-0.1,0-0.3c0.1-0.1,0.1-0.2,0.1-0.4c0-0.3-0.2-0.4-0.3-0.4
	C24.9,49.8,24.7,49.9,24.7,50.2z M25,54.3c-0.4,0-0.7,0.3-0.7,0.7s0.3,0.7,0.7,0.7s0.7-0.3,0.7-0.7S25.4,54.3,25,54.3z M25,60.7
	c2.7,0,4.2,0.5,4.2,0.5c0-1.3,0-2.1,0.8-2c-0.4-1.1,1.4-1.6,1.4-3.1c0-1-0.7-1.1-0.9-1.1c-0.6,0-0.5,0.4-1,0.4c-0.1,0-0.1,0-0.1,0
	c0,0.2,0.1,0.5,0.4,0.5s0.3-0.3,0.6-0.3c0.1,0,0.2,0.1,0.2,0.4c0,0.6-0.4,1.3-0.9,1.9c-0.1-0.2-0.3-0.2-0.4-0.2
	c-0.3,0-0.5,0.3-0.5,0.7c0,0.1,0,0.2,0.1,0.4c-0.2,0.1-0.3,0.1-0.4,0.1c-0.2,0-0.5-0.1-0.5-0.6c0-1.1,1.4-2,1.4-3.4
	c0-0.6-0.4-1.3-1.3-1.3c-1,0-0.8,0.9-1.6,0.9h-0.1c0,0.1,0.1,0.5,0.6,0.5s0.6-0.8,1-0.8c0.2,0,0.4,0.1,0.4,0.6
	c0,0.4-0.2,1.1-0.5,1.8c-0.1-0.1-0.3-0.2-0.4-0.2c-0.4,0-0.6,0.3-0.6,0.8c0,0.3,0.1,0.5,0.3,0.7c-0.2,0.3-0.4,0.5-0.7,0.5
	c-0.6,0-0.8-0.3-0.8-0.7s0.7-0.5,0.7-1.1c0-0.4-0.3-0.6-0.5-0.6c-0.3,0-0.4,0.2-0.4,0.2S25.3,56,25.1,56c-0.3,0-0.5,0.2-0.5,0.6
	c0,0.6,0.7,0.7,0.7,1.1s-0.3,0.7-0.8,0.7c-0.3,0-0.5-0.2-0.7-0.5c0.2-0.2,0.3-0.4,0.3-0.7c0-0.4-0.3-0.8-0.6-0.8
	c-0.2,0-0.3,0.1-0.4,0.2c-0.3-0.7-0.5-1.3-0.5-1.8s0.2-0.6,0.4-0.6c0.4,0,0.5,0.8,1,0.8c0.4,0,0.6-0.5,0.6-0.5s0,0-0.1,0
	c-0.8,0-0.7-0.9-1.6-0.9s-1.3,0.6-1.3,1.3c0,1.4,1.4,2.3,1.4,3.4c0,0.5-0.3,0.6-0.5,0.6c-0.1,0-0.3-0.1-0.4-0.1
	c0-0.1,0.1-0.2,0.1-0.4c0-0.4-0.3-0.7-0.5-0.7s-0.3,0.1-0.4,0.2c-0.5-0.5-0.9-1.2-0.9-1.9c0-0.3,0.1-0.4,0.2-0.4
	c0.2,0,0.2,0.3,0.6,0.3c0.2,0,0.4-0.3,0.4-0.5h-0.1c-0.5,0-0.4-0.4-1-0.4c-0.2,0-0.9,0.1-0.9,1.1c0,1.5,1.8,1.9,1.4,3.1
	c0.8-0.1,0.8,0.6,0.8,2C20.9,61.2,22.4,60.7,25,60.7z M20.1,62.7c-0.7,0.2-1.2,0.3-1.5,0.4c0-0.3,0.1-0.6,0.4-0.7v-0.1
	c-0.6-0.4-1,0.4-1,0.4c-0.2,0-0.6,0.1-0.6,0.4c0,0.9-2.1,1.4-2.6,1.5C15.7,64.9,16,66,16,66c0.6-0.6,1.4-1.2,1.5-1.2
	c0.2,0,0.2,0.2,0.2,0.3c0,0,0,0.1,0.1,0c0.3-0.5,0.2-0.6,0.1-0.7c0-0.1,0-0.5,0.5-0.5v6.2h-0.2c-0.1,0-1-0.7-2.1-1.5
	c-1-0.7-1.6-0.3-2.8,0.4c-1.5,0.8-3.1,0.1-3.1,0.1c-1.3,1-1.8,3.7-1.8,3.7C8.1,72.9,7.7,73,7.3,73c-1,0-1.2-0.6-1.2-1
	c0-1.6,2-2.2,2-3.8c0-0.4-0.2-1.9-2.1-1.9c-0.2,0-1.7,0-1.7,0c-0.7,0-0.9-0.5-1-0.7c0-0.1-0.1,0-0.1,0c0.1,0.1-0.1,0.3-0.1,0.7
	c0,0.6,0.4,1,1.1,1c0.3,0,0.6-0.1,0.7-0.1s0.1,0,0.1,0.1c-0.3,0.4-0.3,1-0.2,1.2h0.1c0.2-0.7,0.8-1.3,1.6-1.3c1,0,1,0.9,1,1.1
	c0,1.3-2.2,2.2-2.2,3.9c0,1.8,1.9,2.1,2.9,1.9c-0.1,1.8-2.1,2.4-2.1,1.1c0-0.1,0-0.1-0.1,0c-0.3,0.6-0.2,1.2,0.6,1.3
	c0.1,0,0,0,0,0.1c-0.8,0.5-0.4,2.4-0.3,3c0.1,0.8-0.8,0.7-0.8,0.7s-0.1,0,0,0.1C6.2,81.1,7,80.5,7,80.5c0.5,0.2,0.2,0.6-0.2,0.9
	c-0.1,0-0.1,0.1,0,0.1s0.9,0.1,1.1-0.6c0.4,0.4,0.9,0.3,1,0.2c0.2-0.1,0.9-0.4,1,0.5c0,0.1,0,0,0.1,0c0.6-0.7,0-1.2-0.4-1.3
	c0,0,0.5-0.4,0.9,0.1h0.1c0-0.9-0.7-1-1.2-0.6c0-0.1-0.2-0.6,0.6-0.6c0,0,0.1,0,0-0.1c-0.6-0.6-1.1-0.1-1.2,0.1
	c-0.3,0.3-0.9,0.2-1,0.2c0.2-3.3,3.1-2.1,3.5-3.7c0-0.1,0.1-0.1,0.1,0c0.1,0.4,1.1,0.4,1.3-0.3c-0.8,0.8-2.7-1.8-0.1-3.9
	c2.2-1.8,4.2-0.8,4.9-0.2c0,0.3-0.1,0.3-0.2,0.4v0.1c0.2,0.1,0.5,0.1,0.6-0.1c0.5,0.3,0.1,0.7-0.1,0.9v0.1c0.4,0.1,0.8-0.4,0.8-0.6
	h0.1V74c0,2.7,3.1,3,6.4,5.3c3.4-2.3,6.4-2.6,6.4-5.3v-1.9h0.1c0,0.3,0.4,0.7,0.8,0.6c0,0,0.1,0,0-0.1c-0.2-0.1-0.6-0.5-0.1-0.9
	c0.1,0.2,0.4,0.2,0.6,0.1c0.1,0,0-0.1,0-0.1c-0.1,0-0.3-0.1-0.2-0.4c0.7-0.6,2.7-1.6,4.9,0.2c2.6,2.1,0.7,4.7-0.1,3.9
	c0.2,0.8,1.2,0.7,1.3,0.3c0,0,0-0.1,0.1,0c0.4,1.6,3.3,0.4,3.5,3.7c-0.1,0-0.7,0.1-1-0.2c-0.1-0.1-0.6-0.7-1.2-0.1v0.1
	c0.8,0,0.6,0.5,0.6,0.6c-0.5-0.4-1.3-0.3-1.2,0.6c0,0.1,0,0.1,0.1,0c0.4-0.5,0.9-0.2,0.9-0.1c-0.4,0.1-1,0.5-0.4,1.3
	c0,0,0.1,0.1,0.1,0c0.1-0.9,0.9-0.6,1-0.5s0.7,0.2,1-0.2c0.1,0.7,1,0.6,1.1,0.6s0.1,0,0-0.1c-0.4-0.2-0.7-0.7-0.2-0.9
	c0,0,0.7,0.6,1.3-0.1c0.1-0.1,0-0.1,0-0.1c-0.1,0-0.9,0.1-0.8-0.7c0-0.6,0.5-2.5-0.3-3c0,0-0.1-0.1,0-0.1c0.8-0.2,0.9-0.7,0.6-1.3
	c0-0.1-0.1-0.1-0.1,0c-0.1,1.3-2.1,0.7-2.1-1.1c1.1,0.3,2.9-0.1,2.9-1.9c0-1.7-2.2-2.7-2.2-3.9c0-0.2,0-1.1,1-1.1
	c0.8,0,1.5,0.6,1.6,1.3h0.1c0.1-0.2,0.1-0.8-0.2-1.2c0,0,0-0.1,0.1-0.1c0.1,0.1,0.4,0.1,0.7,0.1c0.7,0,1.1-0.4,1.1-1
	c0-0.4-0.1-0.6-0.1-0.7s0-0.1-0.1,0c-0.1,0.2-0.3,0.7-1,0.7c0,0-1.4,0-1.7,0c-1.9,0-2.1,1.5-2.1,1.9c0,1.5,2,2.2,2,3.8
	c0,0.4-0.2,1-1.2,1c-0.4,0-0.9-0.1-1.1-0.2c0,0-0.5-2.8-1.8-3.7c0,0-1.6,0.8-3.1-0.1c-1.2-0.6-1.7-1.1-2.8-0.4
	c-1,0.7-1.9,1.5-2.1,1.5h-0.2v-6.2c0.5-0.1,0.5,0.4,0.5,0.5s-0.2,0.3,0.1,0.7h0.1c0-0.1,0.1-0.3,0.2-0.3c0.2,0,0.9,0.6,1.5,1.2
	c0,0,0.4-1.1,1.2-1.4c-0.5-0.1-2.6-0.6-2.6-1.5c0-0.3-0.3-0.4-0.6-0.4c0,0-0.4-0.9-1-0.4v0.1c0.3,0.1,0.4,0.4,0.4,0.7
	c-0.6-0.2-3.3-0.9-6.4-0.9c-1.5,0-2.9,0.2-4,0.4v2.1h-0.9L20.1,62.7z M14.4,84.6c-0.2-0.1-0.4-0.2-0.4-0.5v-1.3
	c-0.4-0.1-1.4-0.5-3.5-0.5c-1.7,0-2.3,0.4-2.3,0.5l-0.5,2.5c0,0,0.7-0.6,3.2-0.5c3,0.2,6.2,2,6.2,0.1v-1.1
	C14.7,83.8,14.4,84.5,14.4,84.6z M33,83.8v1.1c0,1.9,3.1,0.1,6.2-0.1c2.5-0.2,3.2,0.5,3.2,0.5l-0.5-2.5c0-0.1-0.6-0.5-2.3-0.5
	c-2.1,0-3.1,0.4-3.5,0.5v1.3c0,0.3-0.2,0.5-0.4,0.5C35.7,84.5,35.3,83.8,33,83.8z M25,82.6c4.9,0,9.8,0.3,10.5,1
	c0.1,0.1,0.1,0,0.1,0V81c0-0.8-5.1-1.2-10.5-1.2S14.6,80.2,14.6,81v2.6c0,0,0,0.1,0.1,0C15.2,82.9,20.2,82.6,25,82.6z M20.7,70.5
	l-0.5-0.1v0.1l-0.6-0.3h0.5c0,0,0.1,0,0-0.1c-0.2-0.2-0.4-0.4-0.4-0.4s0.2,0.1,0.6,0.2c0,0,0.1,0,0,0c-0.2-0.2-0.4-0.6-0.4-0.6
	s0.5,0.3,0.6,0.4c0,0,0.1,0,0,0c-0.1-0.3-0.3-0.6-0.3-0.6l0.5,0.5c0-0.2-0.1-0.6-0.1-0.6l0.4,0.5h0.1c0-0.1,0-0.6,0-0.6
	s0.2,0.4,0.2,0.5h0.1c0-0.1,0.2-0.5,0.2-0.5v0.6h-0.1l-0.1,0.7c0.7-0.2,1.7-1.4,2.4-1.4c0.8,0,1.1,1,2.7,0.5
	c0.4,0.6,0.5,1.1,0.7,1.8c0.6,0.6,1.4,0.4,1.4-0.2c0-0.8-0.9-1-0.9-1.8c0-0.4,0.3-0.9,1-0.9c0.4,0,0.9,0.2,1.2,0.2
	c0.4,0,0.5-0.3,0.5-0.4s0.1-0.1,0.1,0v0.4c0,0.5-0.8,0.6-0.9,0.5c0.1,0.1,0.1,0.4,0,0.6c-0.1-0.4-0.5-0.8-0.9-0.8
	c-0.1,0-0.4,0.1-0.4,0.4c0,0.5,1,0.9,1,1.9s-1,1.3-2,1c0,1,1.5,1.5,1.5,0.9c0.2,0.3,0.1,0.5-0.2,0.6c0.3,0.1,0.3,0.6,0.4,0.9
	c0.1,0.5,0.6,0.2,0.6,0.2c-0.2,0.5-0.7,0.3-0.7,0.3c-0.3,0.2,0.1,0.3,0.3,0.4c-0.2,0.1-0.5,0.2-0.7-0.1c-0.1,0.3-0.4,0.3-0.5,0.3
	c-0.2,0-0.3,0.2-0.3,0.4c-0.4-0.3-0.2-0.6,0-0.7c0,0-0.3-0.1-0.5,0.2c-0.2-0.5,0.2-0.7,0.5-0.5c0-0.1-0.2-0.3-0.6-0.2
	c0.1-0.2,0.3-0.4,0.6-0.2c0.2,0.1,0.5-0.1,0.5-0.1c-0.6-1.3-1.9-0.2-2.2-1.2c-0.1,0.2-0.6,0.2-0.7-0.2c0.1,0.1,0.3,0.2,0.5-0.2
	c0.1-0.2,0.2-0.5,0.2-0.7c0-0.8-0.8-2.1-2-2.1c-0.8,0-1.6,0.3-2.2,0.7l0.6,0.1c-0.1,0.6-0.6,0.9-1.1,0.8l0.1-0.7
	c-0.1,0-0.3,0.1-0.4,0.3c-0.1-0.4,0.2-0.6,0.3-0.6c-0.3,0-0.4,0.2-0.5,0.3C20.6,70.8,20.6,70.6,20.7,70.5L20.7,70.5z M22.4,75
	c-0.2,0.3-0.4,0-0.7,0s-0.3,0.2-0.3,0.3c-0.3-0.4,0-0.6,0.2-0.7c0,0-0.3-0.2-0.5,0c0-0.5,0.4-0.6,0.7-0.3c0-0.2-0.1-0.3-0.3-0.3
	c0.1-0.1,0.2-0.1,0.3-0.1c0.3,0,0.3,0.4,0.5,0.4c0.3,0,0.7-0.4,0.7-0.4s-0.3-0.8-0.2-1.2c-0.1,0.1-0.5,0.1-0.5-0.4
	c0.2,0.2,0.4,0,0.5-0.2c0.1-0.1,0.8-1.2,1.8-1.2c0.2,0,0.5,0.1,0.7,0.3c-0.3,0.4,0,0.8,0.2,0.7c-1.3,0.5-1.8,0.7-1.8,1.7
	c0,0.6,0.2,0.9,0.5,0.8c-0.1,0.1-0.3,0.2-0.4,0.2c-0.3,0-0.3-0.1-0.4-0.1s-0.6,0.3-0.6,0.5c0,0.1,0.1,0.2,0.2,0.3
	C22.9,75.3,22.5,75.3,22.4,75z M25.7,64.7c-0.4,0-0.6,0.1-0.6,0.2C25.3,65.1,25.5,65.1,25.7,64.7z M24.3,65.7c0.3-0.1,0.6,0,0.6,0
	v0.1c-0.6,0.1-0.6,0.3-1,0.3c-0.2,0-0.5-0.2-0.4-0.6h0.1C23.6,65.6,23.8,65.8,24.3,65.7z M16.7,78.5c0.4,0.5,0.8,0,1.3,0
	c0.2,0,0.5,0.1,0.6,0.6c0.5-0.8-0.1-1.2-0.4-1.2c0.1-0.1,0.6-0.4,1,0.1h0.1c0-0.9-0.7-1-1.2-0.6c-0.1-0.4,0.2-0.6,0.5-0.6
	c0,0,0.1,0,0-0.1C18,76,17.5,76.9,17.4,77c-0.3,0.3-1.2-0.3-1.5-0.7c0,0,0.8-0.8,0.8-1.6v-0.1c0.1,0,0.2,0.1,0.3,0.1
	c0.2,0,0.5-0.1,0.5-0.7c-0.1,0.1-0.2,0.2-0.3,0.2c-0.6,0-2-2.2-3.6-2.2c-0.4,0-1.2,0.3-1.6,0.7c0.2,0.1,0.2,0.3,0.2,0.5
	c0,0.3-0.2,0.4-0.5,0.5v0.1c0.8,0.3,2.3,0.9,2.6,1.2c0.4,0.3,0.3,1,0.1,1.9s-0.7,0.7-0.9,0.7c0.2,0.3,0.5,0.4,0.7,0.4
	c0.4,0,0.6-0.3,0.8-0.3c0.4,0,1.1,0.5,1.1,0.9c0,0.2-0.2,0.4-0.4,0.6C15.9,79.1,16.6,79.2,16.7,78.5z M34.4,79.1
	c-0.2-0.2-0.4-0.4-0.4-0.6c0-0.4,0.8-0.9,1.1-0.9c0.2,0,0.4,0.3,0.8,0.3c0.2,0,0.5-0.1,0.7-0.4c-0.2,0-0.6,0.1-0.9-0.7
	c-0.2-0.9-0.3-1.5,0.1-1.9c0.3-0.3,1.8-0.8,2.6-1.2c0,0,0,0,0-0.1c-0.2-0.1-0.4-0.2-0.5-0.5c0-0.2,0-0.4,0.2-0.5
	c-0.4-0.4-1.2-0.7-1.6-0.7c-1.6,0-2.9,2.2-3.6,2.2c-0.1,0-0.2,0-0.3-0.2c0,0.7,0.3,0.7,0.5,0.7c0.1,0,0.2,0,0.3-0.1v0.1
	c0,0.8,0.8,1.6,0.8,1.6c-0.4,0.4-1.3,1-1.5,0.7c-0.1-0.1-0.6-1-1.2-0.3v0.1c0.4,0,0.6,0.2,0.5,0.6C31.6,77,30.9,77,30.9,78H31
	c0.3-0.5,0.9-0.2,1-0.1c-0.4,0.1-1,0.5-0.4,1.2c0.1-0.5,0.4-0.6,0.6-0.6c0.5,0,0.9,0.5,1.3,0C33.5,79.2,34.2,79.1,34.4,79.1z
	 M21.4,66.6c-0.1,0.1-0.2,0-0.3,0c0,0.1,0.2,0.4,0.4,0.4c0.1,0,0.3-0.1,0.3-0.1s0.9,0.3,1.4,0.4c-0.2,0.2-0.3,0.5-0.3,0.8
	c-0.4-0.2-1.9-1-1.9-1l-0.5,0.6c-0.1,0.1-0.4-0.2-0.4-0.3l0.4-0.5c-0.1-0.1-0.4,0-0.5,0c0-0.1,0.2-0.4,0.7-0.3
	c0-0.3-0.4-0.2-0.5-0.2c0.1-0.1,0.4-0.4,0.8-0.2l0.2-0.2l-0.3-0.3l0.2-0.3l0.2,0.3l1.7-2.4c0-0.1,0.4-0.2,0.5-0.2v0.5L21.8,66
	l0.4,0.1L22,66.4l-0.4-0.2L21.4,66.6z M27.5,66.2c0,0.2,0.1,0.5,0.4,0.4c0,0.2-0.5,0.5-0.7,0.2c-0.2,0.4-0.1,0.7,0.2,0.9v0.1
	C27.3,68,27,68,26.8,67.6c-0.3,0.2-0.3,0.7-0.1,0.9c0,0-0.9,0.5-1.6,0.1c-0.5-0.2-0.9-0.6-1.6-0.5c0.1-0.9,0.6-1.2,1.4-1.3
	c0.7-0.1,0.8-0.4,0.7-0.7c-0.2-0.1-0.7,0.2-0.7,0.2c-0.1-0.1,0-0.3,0-0.3c0-0.1-0.1-0.2-0.1-0.2c0.5,0,0.6-0.1,0.6-0.1
	c0.1-0.5-0.4-0.6-0.8-0.3c-0.2-0.2-0.2-0.4-0.2-0.4c-0.1,0-0.1-0.1-0.1-0.1c0-0.1,0.6-0.4,0.7-0.5c0-0.2,0.2-0.4,0.8-0.3
	c0.1-0.2,0-0.7-0.1-0.9c0,0,0-0.1,0.1,0c0.2,0.1,0.4,0.6,0.6,0.6c0,0,0.7-0.4,0.7-0.3l0.1,0.8c0.1,0.1,0.6,0,0.8,0.1
	c0.1,0,0.1,0.1,0,0.1c-0.2,0-0.7,0.3-0.8,0.4C27.7,65.3,27.5,66,27.5,66.2z"/>
<path class="st0" d="M0,0h314v125H0V0z"/>
<g>
	<path class="st2" d="M61.9,64.5c0.7-0.2,0.9-0.5,0.9-1.2v-7.6l-1-0.2v-0.3C62.4,55,63,55,63.6,55c0.6,0,1,0,1.5,0.2v0.3
		c-0.7,0.2-0.9,0.5-0.9,1.1v7.7l1,0.2v0.3c-0.6,0.2-1.1,0.3-1.8,0.3c-0.6,0-1,0-1.4-0.2v-0.4H61.9z M64.2,59.8l3.7-4.2L67,55.4v-0.3
		c0.7-0.2,1.1-0.2,1.7-0.2c0.4,0,0.7,0,1.1,0.1v0.3c-0.4,0.2-0.8,0.4-1.1,0.8l-3.1,3.5l2.8,3.5c0.5,0.7,0.9,1,1.7,1.3v0.3
		C69.8,64.9,69.5,65,69,65c-0.7,0-1.2-0.2-1.9-1.3L64.2,59.8z"/>
	<path class="st2" d="M74.1,57.3c1.9,0,3.4,1.4,3.4,3.6c0,2.6-1.8,4.2-3.6,4.2c-1.9,0-3.4-1.3-3.4-3.6
		C70.5,58.9,72.2,57.3,74.1,57.3z M74,64.1c1,0,2.1-1,2.1-3.1c0-1.8-1-2.8-2.1-2.8s-2.1,1.1-2.1,3.1C71.9,63.1,72.9,64.1,74,64.1z"
		/>
	<path class="st2" d="M78.9,64.5c0.4-0.2,0.8-0.5,0.8-0.8v-5.2l-1-0.4v-0.3c0.7-0.2,1.4-0.3,1.9-0.3H81v0.8c0.5-0.5,1.4-0.9,2.3-0.9
		c1.3,0,2.2,0.8,2.2,2.4v4.3l0.8,0.2v0.3c-0.4,0.2-1,0.3-1.6,0.3c-0.3,0-0.7,0-1-0.1v-0.3c0.4-0.2,0.6-0.5,0.6-1v-3
		c0-1.5-0.6-2.1-1.6-2.1c-0.6,0-1.3,0.2-1.6,0.5v5.2l0.9,0.2v0.3c-0.5,0.2-1,0.3-1.8,0.3c-0.4,0-0.8,0-1.2-0.1v-0.3H78.9z"/>
	<path class="st2" d="M87.6,64.5c0.4-0.2,0.8-0.5,0.8-0.8v-5.2l-1-0.4v-0.3c0.7-0.2,1.4-0.3,1.8-0.3h0.5l-0.1,0.8v5.9l0.9,0.2v0.3
		c-0.5,0.2-1,0.3-1.8,0.3c-0.4,0-0.8,0-1.2-0.1L87.6,64.5L87.6,64.5z M88.2,55.1c0-0.5,0.3-0.9,0.9-0.9c0.4,0,0.8,0.3,0.8,0.8
		s-0.4,1-0.9,1C88.6,56,88.2,55.6,88.2,55.1z"/>
	<path class="st2" d="M91.9,64.5c0.4-0.2,0.8-0.5,0.8-0.8v-5.2l-1-0.4v-0.3c0.7-0.2,1.4-0.3,1.9-0.3H94v0.8c0.5-0.5,1.4-0.9,2.3-0.9
		c1.3,0,2.2,0.8,2.2,2.4v4.3l0.8,0.2v0.3c-0.4,0.2-1,0.3-1.6,0.3c-0.3,0-0.7,0-1-0.1v-0.3c0.4-0.2,0.6-0.5,0.6-1v-3
		c0-1.5-0.6-2.1-1.6-2.1c-0.6,0-1.3,0.2-1.6,0.5v5.2l0.9,0.2v0.3c-0.5,0.2-1,0.3-1.8,0.3c-0.4,0-0.8,0-1.2-0.1v-0.3H91.9z"/>
	<path class="st2" d="M100.5,64.5c0.4-0.2,0.8-0.5,0.8-0.8v-9l-1-0.4V54c0.7-0.2,1.4-0.3,1.9-0.3h0.5l-0.1,0.9v6.2l0.9-0.7
		c0.8-0.7,1.6-1.8,1.6-2.5c0.3-0.1,0.5-0.1,0.8-0.1c0.2,0,0.4,0,0.6,0.1c0,0.7-0.7,1.7-2.1,2.7l-0.5,0.4l2.4,2.9
		c0.4,0.5,0.8,0.7,1.1,0.7v0.3c-0.3,0.2-0.7,0.3-1.1,0.3s-0.8-0.2-1.1-0.6l-2.5-3.3v3.1l0.8,0.2v0.3c-0.6,0.2-1,0.2-1.8,0.2
		c-0.4,0-0.8,0-1.2-0.1L100.5,64.5z"/>
	<path class="st2" d="M107.9,64.5c0.4-0.2,0.8-0.5,0.8-0.8v-9l-1-0.4V54c0.7-0.2,1.4-0.3,1.9-0.3h0.5l-0.1,0.9v9.6l0.9,0.2v0.3
		c-0.5,0.2-1,0.3-1.8,0.3c-0.4,0-0.8,0-1.2-0.1L107.9,64.5z"/>
	<path class="st2" d="M112.1,64.5c0.4-0.2,0.8-0.5,0.8-0.8v-5.2l-1-0.4v-0.3c0.7-0.2,1.4-0.3,1.8-0.3h0.5l-0.1,0.8v5.9l0.9,0.2v0.3
		c-0.5,0.2-1,0.3-1.8,0.3c-0.4,0-0.8,0-1.2-0.1L112.1,64.5L112.1,64.5z M112.8,55.1c0-0.5,0.3-0.9,0.9-0.9c0.4,0,0.8,0.3,0.8,0.8
		s-0.4,1-0.9,1S112.8,55.6,112.8,55.1z"/>
	<path class="st2" d="M117.2,58.4l-1-0.4v-0.3c0.7-0.2,1.4-0.3,1.9-0.3h0.5l-0.1,0.9v7c0,2.5-0.8,3.3-1.8,3.3
		c-0.3,0-0.7-0.1-0.9-0.4V68c0.7,0,1.3-0.8,1.3-2.4L117.2,58.4L117.2,58.4z M117,55.1c0-0.5,0.3-0.9,0.9-0.9c0.4,0,0.8,0.3,0.8,0.8
		s-0.4,1-0.9,1C117.4,56,117,55.6,117,55.1z"/>
	<path class="st2" d="M120.5,64.5c0.4-0.2,0.8-0.5,0.8-0.8v-9l-1-0.4V54c0.7-0.2,1.4-0.3,1.9-0.3h0.5l-0.1,0.9v6.2l0.9-0.7
		c0.8-0.7,1.6-1.8,1.6-2.5c0.3-0.1,0.5-0.1,0.8-0.1c0.2,0,0.4,0,0.6,0.1c0,0.7-0.7,1.7-2.1,2.7l-0.5,0.4l2.4,2.9
		c0.4,0.5,0.8,0.7,1.1,0.7v0.3c-0.3,0.2-0.7,0.3-1.1,0.3s-0.8-0.2-1.1-0.6l-2.5-3.3v3.1l0.8,0.2v0.3c-0.6,0.2-1,0.2-1.8,0.2
		c-0.4,0-0.8,0-1.2-0.1L120.5,64.5z"/>
	<path class="st2" d="M131.1,64.5c0.7-0.2,0.9-0.5,0.9-1.4v-7.5l-1-0.3v-0.4c0.6-0.1,1.2-0.1,1.7-0.1h0.6l4.3,7.1v-6.3l-1-0.2V55
		c0.5-0.2,1-0.3,1.6-0.3s0.9,0,1.3,0.2v0.3c-0.7,0.2-0.9,0.5-0.9,1.5v8.1l-0.7,0.2l-4.9-8.1v7.2l0.9,0.2v0.3
		c-0.4,0.2-0.9,0.3-1.4,0.3c-0.6,0-1,0-1.4-0.2L131.1,64.5z"/>
	<path class="st2" d="M143.8,57.3c1.7,0,2.7,1.1,2.7,2.9v1h-4.6c0,1.7,1,2.7,2.3,2.7c0.8,0,1.6-0.3,2.2-0.7c0,0.1,0.1,0.2,0.1,0.4
		c0,0.7-1,1.3-2.7,1.3c-1.8,0-3.2-1.4-3.2-3.6C140.6,58.7,142.2,57.3,143.8,57.3z M145.3,60.4c0-1.5-0.7-2.2-1.6-2.2s-1.8,1-1.8,2.2
		H145.3z"/>
	<path class="st2" d="M151.4,57.3c0.4,0,0.8,0,1.1,0.1v-2.7l-1.1-0.4V54c0.7-0.2,1.5-0.3,1.9-0.3h0.5l-0.1,0.9v8.9
		c0.1,0.3,0.3,0.6,0.6,0.9c-0.3,0.3-0.7,0.5-1.1,0.7c-0.3-0.2-0.6-0.6-0.7-0.9c-0.5,0.5-1.3,0.9-2,0.9c-1.6,0-2.8-1.3-2.8-3.4
		C147.7,58.8,149.4,57.3,151.4,57.3L151.4,57.3z M152.5,63.5v-5.1c-0.3-0.1-0.7-0.2-1.1-0.2c-1.3,0-2.3,1-2.3,3.2
		c0,1.7,0.9,2.6,1.9,2.6C151.5,64,152.1,63.8,152.5,63.5L152.5,63.5z"/>
	<path class="st2" d="M159,57.3c1.7,0,2.7,1.1,2.7,2.9v1H157c0,1.7,1,2.7,2.3,2.7c0.8,0,1.6-0.3,2.2-0.7c0,0.1,0.1,0.2,0.1,0.4
		c0,0.7-1,1.3-2.7,1.3c-1.8,0-3.2-1.4-3.2-3.6C155.7,58.7,157.3,57.3,159,57.3L159,57.3z M160.4,60.4c0-1.5-0.7-2.2-1.6-2.2
		s-1.8,1-1.8,2.2H160.4z"/>
	<path class="st2" d="M163,64.5c0.4-0.2,0.8-0.5,0.8-0.8v-5.2l-1-0.4v-0.3c0.7-0.2,1.4-0.3,1.9-0.3h0.4v1.1l0.4-0.5
		c0.4-0.4,0.8-0.7,1.4-0.7c0.5,0,0.8,0.2,0.8,0.7c0,0.3-0.1,0.6-0.2,0.9c-0.3-0.2-0.6-0.4-1-0.4c-0.5,0-0.9,0.2-1.4,0.6v4.9l1.1,0.2
		v0.3c-0.5,0.2-1,0.3-1.9,0.3c-0.4,0-0.9,0-1.2-0.1v-0.3H163z"/>
	<path class="st2" d="M168.3,64.5c0.4-0.2,0.8-0.5,0.8-0.8v-9l-1-0.4V54c0.7-0.2,1.4-0.3,1.9-0.3h0.5l-0.1,0.9v9.6l0.9,0.2v0.3
		c-0.5,0.2-1,0.3-1.8,0.3c-0.4,0-0.8,0-1.2-0.1L168.3,64.5z"/>
	<path class="st2" d="M176.3,60.7v-0.4c0-1.7-0.4-2-1.4-2c-0.9,0-1.7,0.4-2.3,1c0-0.2,0-0.3,0-0.5c0-1,0.7-1.6,2.5-1.6
		c1.6,0,2.5,0.8,2.5,2.1c0,0.3,0,1.1-0.1,1.6v2.5c0.1,0.3,0.3,0.6,0.6,0.8c-0.2,0.3-0.7,0.6-1.1,0.8c-0.3-0.2-0.5-0.4-0.7-0.8
		c-0.4,0.4-1.3,0.7-2.1,0.7c-1.2,0-2-0.7-2-1.7C172.3,61.9,173.8,60.7,176.3,60.7z M174.8,64.1c0.5,0,1.1-0.2,1.5-0.4v-2.2
		c-1.8,0-2.7,0.7-2.7,1.6C173.6,63.7,174,64.1,174.8,64.1z"/>
	<path class="st2" d="M179.5,64.5c0.4-0.2,0.8-0.5,0.8-0.8v-5.2l-1-0.4v-0.3c0.7-0.2,1.4-0.3,1.9-0.3h0.4v0.8
		c0.5-0.5,1.4-0.9,2.3-0.9c1.3,0,2.2,0.8,2.2,2.4v4.3l0.8,0.2v0.3c-0.4,0.2-1,0.3-1.6,0.3c-0.3,0-0.7,0-1-0.1v-0.3
		c0.4-0.2,0.6-0.5,0.6-1v-3c0-1.5-0.6-2.1-1.6-2.1c-0.6,0-1.3,0.2-1.6,0.5v5.2l0.9,0.2v0.3c-0.5,0.2-1,0.3-1.8,0.3
		c-0.4,0-0.8,0-1.2-0.1L179.5,64.5L179.5,64.5z"/>
	<path class="st2" d="M191.7,57.3c0.4,0,0.8,0,1.1,0.1v-2.7l-1.1-0.4V54c0.7-0.2,1.5-0.3,1.9-0.3h0.5l-0.1,0.9v8.9
		c0.1,0.3,0.3,0.6,0.6,0.9c-0.3,0.3-0.7,0.5-1.1,0.7c-0.3-0.2-0.6-0.6-0.7-0.9c-0.5,0.5-1.3,0.9-2,0.9c-1.6,0-2.8-1.3-2.8-3.4
		C188,58.8,189.7,57.3,191.7,57.3L191.7,57.3z M192.8,63.5v-5.1c-0.3-0.1-0.7-0.2-1.1-0.2c-1.3,0-2.3,1-2.3,3.2
		c0,1.7,0.9,2.6,1.9,2.6C191.8,64,192.5,63.8,192.8,63.5L192.8,63.5z"/>
	<path class="st2" d="M196.1,63.1c0.7,0.7,1.4,1,2.2,1c0.9,0,1.3-0.4,1.3-1c0-0.5-0.3-0.9-1.3-1.3l-0.8-0.3c-0.9-0.4-1.4-1-1.4-1.9
		c0-1.2,1.1-2.3,2.7-2.3c1.2,0,1.7,0.4,1.7,1c0,0.2,0,0.4-0.1,0.7c-0.5-0.3-1.2-0.6-1.8-0.6c-1,0-1.5,0.4-1.5,1s0.3,0.9,1.2,1.2
		l0.8,0.3c1.1,0.4,1.5,1,1.5,1.9c0,1.2-1.1,2.3-2.9,2.3c-1.4,0-2-0.4-2-1.3C195.9,63.5,196,63.3,196.1,63.1L196.1,63.1z"/>
	<path class="st2" d="M61.4,82.1c0.6-0.2,0.9-0.4,0.9-0.9l0.7-7.9L62.1,73v-0.5c0.7-0.1,1.6-0.1,2.1-0.1h0.6l2.4,7.5l2.4-7.5h0.7
		c0.6,0,1.3,0,1.9,0.1V73l-1,0.2l0.7,8.5l0.9,0.2v0.3c-0.4,0.2-0.9,0.3-1.5,0.3c-0.7,0-1.2,0-1.7-0.2V82c0.7-0.2,0.9-0.5,0.9-1.2
		l-0.4-7l-2.8,8.6l-0.6,0.1l-2.8-8.7l-0.5,7.8l1,0.3v0.3c-0.7,0.2-1,0.3-1.8,0.3c-0.4,0-0.8-0.1-1.2-0.2L61.4,82.1L61.4,82.1z"/>
	<path class="st2" d="M77.1,74.9c1.7,0,2.7,1.1,2.7,2.9v1h-4.6c0,1.7,1,2.7,2.3,2.7c0.8,0,1.6-0.3,2.2-0.7c0,0.1,0.1,0.2,0.1,0.4
		c0,0.7-1,1.3-2.7,1.3c-1.8,0-3.2-1.4-3.2-3.5C73.9,76.3,75.5,74.9,77.1,74.9z M78.6,78c0-1.5-0.7-2.2-1.6-2.2s-1.8,1-1.8,2.2H78.6z
		"/>
	<path class="st2" d="M81.8,78.1V76H81v-0.5l1.7-1.7l0.5-0.1l-0.1,1.4h2l-0.1,1h-2v2v1.8c0,1.3,0.4,1.7,0.9,1.7s0.8-0.2,1.1-0.4
		l0.2,0.1c-0.1,0.9-0.6,1.4-1.7,1.4c-1.2,0-1.8-0.7-1.8-2.2C81.7,79.7,81.8,78.8,81.8,78.1z"/>
	<path class="st2" d="M89.1,74.9c1.7,0,2.7,1.1,2.7,2.9v1h-4.6c0,1.7,1,2.7,2.3,2.7c0.8,0,1.6-0.3,2.2-0.7c0,0.1,0.1,0.2,0.1,0.4
		c0,0.7-1,1.3-2.7,1.3c-1.8,0-3.2-1.4-3.2-3.5C85.9,76.3,87.5,74.9,89.1,74.9z M90.6,78c0-1.5-0.7-2.2-1.6-2.2s-1.8,1-1.8,2.2H90.6z
		"/>
	<path class="st2" d="M96.7,74.9c1.9,0,3.4,1.4,3.4,3.6c0,2.6-1.8,4.2-3.6,4.2c-1.9,0-3.4-1.3-3.4-3.6C93,76.5,94.8,74.9,96.7,74.9z
		 M96.5,81.7c1,0,2.1-1,2.1-3.1c0-1.8-1-2.8-2.1-2.8s-2.1,1.1-2.1,3.1C94.4,80.7,95.4,81.7,96.5,81.7z"/>
	<path class="st2" d="M101.5,82.1c0.4-0.2,0.8-0.5,0.8-0.8V76l-1-0.4v-0.3c0.7-0.2,1.4-0.3,1.9-0.3h0.4v1.1l0.4-0.5
		c0.4-0.5,0.8-0.7,1.4-0.7c0.5,0,0.8,0.2,0.8,0.7c0,0.3-0.1,0.6-0.2,0.9c-0.3-0.2-0.6-0.4-1-0.4c-0.5,0-0.9,0.2-1.4,0.6v4.9l1.1,0.2
		v0.3c-0.5,0.2-1,0.3-1.9,0.3c-0.4,0-0.9,0-1.2-0.1v-0.2L101.5,82.1z"/>
	<path class="st2" d="M110.3,74.9c1.9,0,3.4,1.4,3.4,3.6c0,2.6-1.8,4.2-3.6,4.2c-1.9,0-3.4-1.3-3.4-3.6
		C106.7,76.5,108.4,74.9,110.3,74.9z M110.2,81.7c1,0,2.1-1,2.1-3.1c0-1.8-1-2.8-2.1-2.8s-2.1,1.1-2.1,3.1
		C108.1,80.7,109.1,81.7,110.2,81.7z"/>
	<path class="st2" d="M115.1,82.1c0.4-0.2,0.8-0.5,0.8-0.8v-9l-1-0.4v-0.3c0.7-0.2,1.4-0.3,1.9-0.3h0.5l-0.1,0.9v9.6l0.9,0.2v0.3
		c-0.5,0.2-1,0.3-1.8,0.3c-0.4,0-0.8,0-1.2-0.1L115.1,82.1z"/>
	<path class="st2" d="M122.9,74.9c1.9,0,3.4,1.4,3.4,3.6c0,2.6-1.8,4.2-3.6,4.2c-1.9,0-3.4-1.3-3.4-3.6
		C119.3,76.5,121,74.9,122.9,74.9z M122.8,81.7c1,0,2.1-1,2.1-3.1c0-1.8-1-2.8-2.1-2.8s-2.1,1.1-2.1,3.1
		C120.7,80.7,121.7,81.7,122.8,81.7z"/>
	<path class="st2" d="M129.1,80.1c-0.7-0.3-1.4-1.1-1.4-2.2c0-1.7,1.4-3.1,3.1-3.1c0.6,0,1.4,0.3,1.7,0.5c0.3-0.3,0.9-0.5,1.4-0.5
		c0.3,0,0.5,0,0.7,0.1l-0.1,1c-0.5-0.1-1.1-0.2-1.7-0.2c0.5,0.4,0.9,1.1,0.9,1.7c0,1.8-1.5,3-3.1,3c-0.3,0-0.7-0.1-1-0.2
		c-0.2,0.1-0.5,0.5-0.5,0.7c0,0.5,0.4,0.7,1,0.7h2.2c1.3,0,2,0.6,2,1.7c0,1.5-1.6,2.7-3.8,2.7c-2,0-3-0.8-3-1.8
		c0-0.8,0.6-1.5,1.5-1.7c-0.6-0.2-0.9-0.6-0.9-1.2S128.5,80.3,129.1,80.1L129.1,80.1z M130.6,85.4c1.5,0,2.5-0.7,2.5-1.5
		c0-0.6-0.4-0.9-1.1-0.9h-2.5c-0.5,0.2-0.8,0.7-0.8,1.2C128.6,84.8,129.3,85.4,130.6,85.4L130.6,85.4z M132.2,77.6
		c0-1.3-0.7-1.9-1.5-1.9c-0.9,0-1.6,0.8-1.6,2.2c0,1.3,0.7,1.9,1.5,1.9C131.5,79.8,132.2,79.1,132.2,77.6z"/>
	<path class="st2" d="M135.2,82.1c0.4-0.2,0.8-0.5,0.8-0.8V76l-1-0.4v-0.3c0.7-0.2,1.4-0.3,1.8-0.3h0.5l-0.1,0.8v5.9l0.9,0.2v0.3
		c-0.5,0.2-1,0.3-1.8,0.3c-0.4,0-0.8,0-1.2-0.1v-0.3L135.2,82.1z M135.8,72.7c0-0.5,0.3-0.9,0.9-0.9c0.4,0,0.8,0.3,0.8,0.8
		s-0.4,1-0.9,1C136.2,73.6,135.8,73.2,135.8,72.7z"/>
	<path class="st2" d="M139.4,80.7c0.7,0.7,1.4,1,2.2,1c0.9,0,1.3-0.4,1.3-1c0-0.5-0.3-0.9-1.3-1.3l-0.8-0.3c-0.9-0.4-1.4-1-1.4-1.9
		c0-1.2,1.1-2.3,2.7-2.3c1.2,0,1.7,0.4,1.7,1c0,0.2,0,0.4-0.1,0.7c-0.5-0.3-1.2-0.6-1.8-0.6c-1,0-1.5,0.4-1.5,1s0.3,0.9,1.2,1.2
		l0.8,0.3c1.1,0.4,1.5,1,1.5,1.9c0,1.2-1.1,2.3-2.9,2.3c-1.4,0-2-0.4-2-1.3C139.3,81.1,139.3,80.9,139.4,80.7L139.4,80.7z"/>
	<path class="st2" d="M148.8,74.9c1.3,0,1.7,0.4,1.7,0.9c0,0.3-0.1,0.6-0.2,0.8c-0.6-0.5-1.1-0.7-1.8-0.7c-1.1,0-2,1.1-2,2.9
		s1,2.8,2.2,2.8c0.6,0,1.3-0.3,1.8-0.6c0,0.1,0.1,0.2,0.1,0.4c0,0.7-0.8,1.3-2.3,1.3c-1.7,0-3.1-1.4-3.1-3.6
		C145.2,76.5,146.8,74.9,148.8,74.9L148.8,74.9z"/>
	<path class="st2" d="M151.7,82.1c0.4-0.2,0.8-0.5,0.8-0.8v-9l-1-0.4v-0.3c0.7-0.2,1.3-0.3,1.9-0.3h0.5l-0.1,0.9v3.7
		c0.6-0.5,1.3-0.9,2.2-0.9c1.3,0,2.2,0.8,2.2,2.4v4.3l0.8,0.2v0.3c-0.4,0.2-1,0.3-1.6,0.3c-0.3,0-0.7,0-1-0.1v-0.3
		c0.4-0.2,0.6-0.5,0.6-1v-3c0-1.5-0.6-2.1-1.6-2.1c-0.6,0-1.2,0.2-1.6,0.5v5.2l0.9,0.2v0.3c-0.5,0.2-1,0.3-1.8,0.3
		c-0.4,0-0.8,0-1.2-0.1L151.7,82.1z"/>
	<path class="st2" d="M163.4,82.1c0.5-0.2,0.9-0.4,0.9-1.2v-7.6l-1-0.2v-0.3c0.6-0.2,1.2-0.2,1.8-0.2s1,0,1.4,0.2v0.3
		c-0.7,0.2-0.9,0.5-0.9,1.1v7.7l1,0.2v0.3c-0.5,0.2-1.1,0.3-1.8,0.3c-0.6,0-1,0-1.4-0.2V82.1z"/>
	<path class="st2" d="M168.1,82.1c0.4-0.2,0.8-0.5,0.8-0.8V76l-1-0.4v-0.3c0.7-0.2,1.4-0.3,1.9-0.3h0.4v0.8c0.5-0.5,1.4-0.9,2.3-0.9
		c1.3,0,2.2,0.8,2.2,2.4v4.3l0.8,0.2v0.3c-0.4,0.2-1,0.3-1.6,0.3c-0.3,0-0.7,0-1-0.1V82c0.4-0.2,0.6-0.5,0.6-1v-3
		c0-1.5-0.6-2.1-1.6-2.1c-0.6,0-1.3,0.2-1.6,0.5v5.2l0.9,0.2v0.3c-0.5,0.2-1,0.3-1.8,0.3c-0.4,0-0.8,0-1.2-0.1L168.1,82.1
		L168.1,82.1z"/>
	<path class="st2" d="M176.7,80.7c0.7,0.7,1.4,1,2.2,1c0.9,0,1.3-0.4,1.3-1c0-0.5-0.3-0.9-1.3-1.3l-0.8-0.3c-0.9-0.4-1.4-1-1.4-1.9
		c0-1.2,1.1-2.3,2.7-2.3c1.2,0,1.7,0.4,1.7,1c0,0.2,0,0.4-0.1,0.7c-0.5-0.3-1.2-0.6-1.8-0.6c-1,0-1.5,0.4-1.5,1s0.3,0.9,1.2,1.2
		l0.8,0.3c1.1,0.4,1.5,1,1.5,1.9c0,1.2-1.1,2.3-2.9,2.3c-1.4,0-2-0.4-2-1.3C176.5,81.1,176.6,80.9,176.7,80.7L176.7,80.7z"/>
	<path class="st2" d="M183.3,78.1V76h-0.9v-0.5l1.7-1.7l0.5-0.1l-0.1,1.4h2l-0.1,0.8h-2v2v1.8c0,1.3,0.4,1.7,0.9,1.7
		s0.8-0.2,1.1-0.4l0.2,0.1c-0.1,0.9-0.6,1.4-1.7,1.4c-1.2,0-1.8-0.7-1.8-2.2C183.2,79.7,183.2,78.8,183.3,78.1L183.3,78.1z"/>
	<path class="st2" d="M187.5,82.1c0.4-0.2,0.8-0.5,0.8-0.8V76l-1-0.4v-0.3c0.7-0.2,1.4-0.3,1.8-0.3h0.5l-0.1,0.8v5.9l0.9,0.2v0.3
		c-0.5,0.2-1,0.3-1.8,0.3c-0.4,0-0.8,0-1.2-0.1v-0.3L187.5,82.1z M188.1,72.7c0-0.5,0.3-0.9,0.9-0.9c0.4,0,0.8,0.3,0.8,0.8
		s-0.4,1-0.9,1C188.5,73.6,188.1,73.2,188.1,72.7z"/>
	<path class="st2" d="M192.5,78.1V76h-0.9v-0.5l1.7-1.7l0.5-0.1l-0.1,1.4h2l-0.1,0.8h-2v2v1.8c0,1.3,0.4,1.7,0.9,1.7
		s0.8-0.2,1.1-0.4l0.2,0.1c-0.1,0.9-0.6,1.4-1.7,1.4c-1.2,0-1.8-0.7-1.8-2.2C192.4,79.7,192.4,78.8,192.5,78.1L192.5,78.1z"/>
	<path class="st2" d="M197.4,76l-0.9-0.4v-0.3c0.7-0.2,1.3-0.3,1.7-0.3h0.5l-0.1,0.9v3.5c0,1.6,0.5,2.2,1.5,2.2
		c0.6,0,1.2-0.2,1.5-0.4v-5l-0.9-0.4v-0.3c0.7-0.2,1.3-0.3,1.8-0.3h0.5l-0.1,0.9v5.2c0.1,0.3,0.3,0.5,0.6,0.8
		c-0.2,0.2-0.7,0.5-1.1,0.7c-0.3-0.2-0.6-0.5-0.7-0.9c-0.4,0.4-1.3,0.8-2.2,0.8c-1.3,0-2.1-0.8-2.1-2.5V76z"/>
	<path class="st2" d="M205.7,76l-0.9-0.4v-0.3c0.7-0.2,1.3-0.3,1.7-0.3h0.5l-0.1,0.9v3.5c0,1.6,0.5,2.2,1.5,2.2
		c0.6,0,1.2-0.2,1.5-0.4v-5l-0.9-0.4v-0.3c0.7-0.2,1.3-0.3,1.8-0.3h0.5l-0.1,0.9v5.2c0.1,0.3,0.3,0.5,0.6,0.8
		c-0.2,0.2-0.7,0.5-1.1,0.7c-0.3-0.2-0.6-0.5-0.7-0.9c-0.4,0.4-1.3,0.8-2.2,0.8c-1.3,0-2.1-0.8-2.1-2.5V76z"/>
	<path class="st2" d="M214,78.1V76h-0.9v-0.5l1.7-1.7l0.5-0.1l-0.1,1.4h2l-0.1,0.8h-2v2v1.8c0,1.3,0.4,1.7,0.9,1.7s0.8-0.2,1.1-0.4
		l0.2,0.1c-0.1,0.9-0.6,1.4-1.7,1.4c-1.2,0-1.8-0.7-1.8-2.2C214,79.7,214,78.8,214,78.1L214,78.1z"/>
	<path class="st2" d="M61.1,99.7c0.3-0.1,0.5-0.3,0.5-0.6l1.9-8.3l-0.8-0.2v-0.4c0.4-0.1,1.1-0.2,1.6-0.2h0.5l1.4,7.4l2.6-7.4h0.4
		c0.4,0,1,0,1.5,0.1v0.4L70,90.7l0.4,8.6l0.9,0.2v0.3c-0.5,0.2-0.8,0.2-1.3,0.2c-0.6,0-1,0-1.4-0.2v-0.3c0.3-0.1,0.5-0.3,0.5-0.8
		L68.9,92l-2.8,8.1h-0.5L64.1,92l-1.5,7.3l0.9,0.2v0.3c-0.4,0.2-0.8,0.2-1.3,0.2C61.8,100,61.4,99.9,61.1,99.7L61.1,99.7z"/>
	<path class="st2" d="M72.5,97.3l0.5-3.1l0.1-0.9l-1-0.3v-0.3c0.5-0.2,1-0.3,1.6-0.3c0.3,0,0.5,0,0.7,0.1l-0.7,4.6
		c-0.1,0.5-0.1,1.3-0.1,1.7c0,0.5,0.2,0.7,0.6,0.9v0.3c-0.3,0.1-0.7,0.2-1.2,0.2s-0.7-0.3-0.7-0.7C72.3,99,72.4,98,72.5,97.3z
		 M73.2,90.2c0-0.5,0.4-1,0.9-1c0.4,0,0.7,0.3,0.7,0.7c0,0.5-0.4,1-0.9,1C73.5,90.9,73.2,90.6,73.2,90.2z"/>
	<path class="st2" d="M76.5,93.3l-1-0.3v-0.3c0.5-0.2,1-0.3,1.5-0.3c0.2,0,0.4,0,0.6,0.1l-0.5,2.4c0.7-1.6,1.7-2.5,2.8-2.5
		c0.7,0,1.2,0.5,1.2,1.4c0,0.5-0.1,1.3-0.2,2l-0.3,1.7c0,0.4-0.1,1-0.1,1.3c0,0.5,0.2,0.7,0.7,0.8v0.3c-0.4,0.2-0.8,0.3-1.2,0.3
		s-0.8-0.3-0.8-0.7s0.1-1.1,0.2-1.6l0.3-1.8c0.1-0.5,0.2-1.1,0.2-1.6c0-0.7-0.3-0.9-0.7-0.9c-0.9,0-2.1,1.7-2.2,3.9v2.5h-1.3
		L76.5,93.3z"/>
	<path class="st2" d="M83,97.3l0.5-3.1l0.1-0.9l-1-0.3v-0.3c0.5-0.2,1-0.3,1.5-0.3c0.3,0,0.5,0,0.7,0.1l-0.7,4.6
		C84,97.6,84,98.4,84,98.8c0,0.5,0.2,0.7,0.6,0.9v0.3c-0.3,0.1-0.7,0.2-1.2,0.2s-0.7-0.3-0.7-0.7C82.7,99,82.9,98,83,97.3z
		 M83.7,90.2c0-0.5,0.4-1,0.9-1c0.4,0,0.7,0.3,0.7,0.7c0,0.5-0.4,1-0.9,1C84,90.9,83.7,90.6,83.7,90.2z"/>
	<path class="st2" d="M85.6,98.6c0.4,0.4,0.9,0.7,1.5,0.7c0.7,0,1.3-0.4,1.3-1.1c0-0.5-0.2-0.9-1-1.5l-0.5-0.5
		c-0.7-0.7-0.9-1.1-0.9-1.8c0-1,1-2,2.4-2c1.1,0,1.7,0.3,1.7,0.8c0,0.3-0.1,0.6-0.3,0.8c-0.4-0.5-1.1-0.8-1.7-0.8
		c-0.7,0-1,0.4-1,0.9c0,0.4,0.2,0.7,1,1.4l0.6,0.5c0.7,0.7,1,1.1,1,1.8c0,1.2-1.2,2.3-2.9,2.3c-1,0-1.4-0.3-1.4-0.9
		C85.4,99,85.5,98.8,85.6,98.6z"/>
	<path class="st2" d="M91.6,94.5l0.2-1c-0.3,0-0.5,0-0.9,0v-0.2c0.5-0.7,1.3-1.4,2.1-1.9h0.2L93,92.6h0.4c0.4,0,0.8,0,1.2-0.1
		c0,0.7-0.4,1-1.3,1h-0.4l-0.3,1.6c-0.1,0.7-0.3,2-0.3,2.7c0,1,0.5,1.5,1.2,1.5c0.2,0,0.4,0,0.6-0.1v0.3c-0.1,0.4-0.7,0.7-1.4,0.7
		c-1,0-1.6-0.7-1.6-1.9C91.1,97.3,91.3,95.7,91.6,94.5L91.6,94.5z"/>
	<path class="st2" d="M98.1,92.4c1.1,0,1.7,0.5,1.7,1.6c0,1.8-1.9,2.9-3.7,2.9c0,1.9,0.5,2.3,1.4,2.3c0.6,0,1.4-0.3,1.7-0.8
		c0.1,0.1,0.2,0.2,0.2,0.4c0,0.7-1,1.4-2.2,1.4c-1.3,0-2.2-0.9-2.2-2.7C94.8,94,96.6,92.4,98.1,92.4z M98.5,94.2c0-0.7-0.3-1-0.7-1
		c-0.7,0-1.7,1.2-1.7,3C97.5,96.2,98.5,95.4,98.5,94.2z"/>
	<path class="st2" d="M101.3,93.3l-0.9-0.3v-0.3c0.5-0.2,1-0.3,1.5-0.3c0.2,0,0.4,0,0.7,0.1l-0.5,2.2l0.8-1.4c0.4-0.7,0.8-1,1.3-1
		c0.3,0,0.5,0.2,0.5,0.6c0,0.2-0.1,0.6-0.2,0.8c-0.2,0-0.3-0.1-0.5-0.1c-1,0-2,1.1-2.1,3.9l-0.1,2.3h-1.3L101.3,93.3z"/>
	<path class="st2" d="M105.2,97.3l0.5-3.1l0.1-0.9l-0.9-0.3v-0.3c0.5-0.2,1-0.3,1.5-0.3c0.3,0,0.5,0,0.7,0.1l-0.7,4.6
		c-0.1,0.5-0.1,1.3-0.1,1.7c0,0.5,0.2,0.7,0.6,0.9v0.3c-0.3,0.1-0.7,0.2-1.2,0.2s-0.7-0.3-0.7-0.7C105,99,105.2,98,105.2,97.3z
		 M106,90.2c0-0.5,0.4-1,0.9-1c0.4,0,0.7,0.3,0.7,0.7c0,0.5-0.4,1-0.9,1C106.3,90.9,106,90.6,106,90.2z"/>
	<path class="st2" d="M111.5,92.4c1.1,0,1.7,0.5,1.7,1.6c0,1.8-1.9,2.9-3.7,2.9c0,1.9,0.5,2.3,1.4,2.3c0.6,0,1.4-0.3,1.7-0.8
		c0.1,0.1,0.2,0.2,0.2,0.4c0,0.7-1,1.4-2.2,1.4c-1.3,0-2.2-0.9-2.2-2.7C108.2,94,110,92.4,111.5,92.4z M111.9,94.2
		c0-0.7-0.3-1-0.7-1c-0.7,0-1.7,1.2-1.7,3C110.9,96.2,111.9,95.4,111.9,94.2z"/>
	<path class="st2" d="M116.6,93.2L116,93v-0.3c0.5-0.2,0.8-0.2,1.3-0.2c0.2,0,0.4,0,0.6,0.1l0.3,6.3c1.1-1.4,2-3.5,2-5.1
		c0-0.4-0.2-0.7-0.6-0.9v-0.2c0.3-0.1,0.6-0.2,1-0.2c0.5,0,0.8,0.3,0.8,0.9c0,1.6-1.5,4.9-3,6.3c-0.3,0.3-0.5,0.4-0.8,0.6h-0.3
		L116.6,93.2z"/>
	<path class="st2" d="M122,97.4c0-3.2,1.8-5,3.9-5c0.5,0,1.2,0.1,1.7,0.2l-0.5,2.7c-0.2,0.8-0.3,2.2-0.4,2.9c0,1,0.2,1.2,0.7,1.3
		v0.3c-0.4,0.1-0.9,0.2-1.4,0.2c-0.2,0-0.4,0-0.7-0.1l0.4-2.3c-0.6,1.5-1.6,2.5-2.4,2.5C122.7,100.2,122,99.2,122,97.4z M125.9,95.9
		l0.4-2.6c-0.2-0.1-0.6-0.1-0.8-0.1c-1.3,0-2.3,1.3-2.3,4c0,1.3,0.4,1.9,0.8,1.9C124.6,99.1,125.5,98.1,125.9,95.9z"/>
	<path class="st2" d="M129.6,93.3l-0.9-0.3v-0.3c0.5-0.2,1-0.3,1.5-0.3c0.2,0,0.4,0,0.6,0.1l-0.5,2.4c0.7-1.6,1.7-2.5,2.8-2.5
		c0.7,0,1.2,0.5,1.2,1.4c0,0.5-0.1,1.3-0.2,2l-0.3,1.7c0,0.4-0.1,1-0.1,1.3c0,0.5,0.2,0.7,0.7,0.8v0.3c-0.4,0.2-0.8,0.3-1.2,0.3
		s-0.8-0.3-0.8-0.7s0.1-1.1,0.2-1.6l0.3-1.8c0.1-0.5,0.2-1.1,0.2-1.6c0-0.7-0.3-0.9-0.7-0.9c-0.9,0-2.1,1.7-2.2,3.9l-0.1,2.6h-1.3
		L129.6,93.3z"/>
	<path class="st2" d="M137.9,99.7c0.3-0.1,0.6-0.4,0.6-0.7l0.9-8.2l-0.9-0.2v-0.3c0.5-0.2,0.9-0.2,1.4-0.2c0.4,0,0.9,0,1.2,0.2v0.3
		c-0.3,0.1-0.5,0.3-0.6,0.7l-1,8.2l0.9,0.2v0.3c-0.5,0.2-0.9,0.2-1.4,0.2c-0.4,0-0.9-0.1-1.2-0.2v-0.3H137.9z"/>
	<path class="st2" d="M142.9,93.3L142,93v-0.3c0.5-0.2,1-0.3,1.5-0.3c0.2,0,0.4,0,0.6,0.1l-0.5,2.4c0.7-1.6,1.7-2.5,2.8-2.5
		c0.7,0,1.2,0.5,1.2,1.4c0,0.5-0.1,1.3-0.2,2l-0.3,1.7c0,0.4-0.1,1-0.1,1.3c0,0.5,0.2,0.7,0.7,0.8v0.3c-0.4,0.2-0.8,0.3-1.2,0.3
		s-0.8-0.3-0.8-0.7s0.1-1.1,0.2-1.6l0.3-1.8c0.1-0.5,0.2-1.1,0.2-1.6c0-0.7-0.3-0.9-0.7-0.9c-0.9,0-2.1,1.7-2.2,3.9l-0.1,2.6h-1.3
		L142.9,93.3z"/>
	<path class="st2" d="M149.9,93.6h-0.8c0-0.5,0.3-0.9,0.9-0.9l0.2-1.3c0.2-1.6,1.4-2.6,2.8-2.6s1.7,0.2,1.7,0.6
		c0,0.2-0.1,0.5-0.2,0.7c-0.6-0.3-1-0.5-1.7-0.5c-0.8,0-1.4,0.6-1.5,1.6l-0.2,1.5h0.7c0.4,0,0.8,0,1.2-0.1c0,0.6-0.2,0.9-1.2,0.9
		H151l-0.9,8.1c-0.2,1.5-0.8,2.1-1.5,2.1c-0.4,0-0.8-0.1-1-0.3v-0.2c0.7-0.2,1.2-0.7,1.3-1.4L149.9,93.6z"/>
	<path class="st2" d="M153.9,93.3L153,93v-0.3c0.5-0.2,1-0.3,1.5-0.3c0.2,0,0.4,0,0.7,0.1l-0.5,2.2l0.8-1.4c0.4-0.7,0.8-1,1.3-1
		c0.3,0,0.5,0.2,0.5,0.6c0,0.2-0.1,0.6-0.2,0.8c-0.2,0-0.3-0.1-0.5-0.1c-1,0-2,1.1-2.1,3.9l-0.1,2.3h-1.3L153.9,93.3z"/>
	<path class="st2" d="M157.3,97.4c0-3.2,1.8-5,3.9-5c0.5,0,1.2,0.1,1.7,0.2l-0.5,2.7c-0.2,0.8-0.3,2.2-0.4,2.9c0,1,0.2,1.2,0.7,1.3
		v0.3c-0.4,0.1-0.9,0.2-1.4,0.2c-0.2,0-0.4,0-0.7-0.1l0.4-2.3c-0.6,1.5-1.6,2.5-2.4,2.5C158,100.2,157.3,99.2,157.3,97.4z
		 M161.2,95.9l0.4-2.6c-0.2-0.1-0.6-0.1-0.8-0.1c-1.3,0-2.3,1.3-2.3,4c0,1.3,0.4,1.9,0.8,1.9C160,99.1,160.9,98.1,161.2,95.9
		L161.2,95.9z"/>
	<path class="st2" d="M163.6,98.6c0.4,0.4,0.9,0.7,1.5,0.7c0.7,0,1.3-0.4,1.3-1.1c0-0.5-0.2-0.9-1-1.5l-0.5-0.5
		c-0.7-0.7-0.9-1.1-0.9-1.8c0-1,1-2,2.4-2c1.1,0,1.7,0.3,1.7,0.8c0,0.3-0.1,0.6-0.3,0.8c-0.4-0.5-1.1-0.8-1.7-0.8
		c-0.7,0-1,0.4-1,0.9c0,0.4,0.2,0.7,1,1.4l0.6,0.5c0.7,0.7,1,1.1,1,1.8c0,1.2-1.2,2.3-2.9,2.3c-1,0-1.4-0.3-1.4-0.9
		C163.4,99,163.5,98.8,163.6,98.6L163.6,98.6z"/>
	<path class="st2" d="M169.6,94.5l0.2-1c-0.3,0-0.5,0-0.9,0v-0.2c0.5-0.7,1.3-1.4,2.1-1.9h0.2l-0.3,1.3h0.4c0.4,0,0.8,0,1.2-0.1
		c0,0.7-0.4,1-1.3,1h-0.4l-0.3,1.6c-0.1,0.7-0.3,2-0.3,2.7c0,1,0.5,1.5,1.2,1.5c0.2,0,0.4,0,0.6-0.1v0.3c-0.1,0.4-0.7,0.7-1.4,0.7
		c-1,0-1.6-0.7-1.6-1.9C169.1,97.3,169.3,95.7,169.6,94.5z"/>
	<path class="st2" d="M173.8,93.3l-0.9-0.3v-0.3c0.5-0.2,1-0.3,1.5-0.3c0.2,0,0.4,0,0.7,0.1l-0.5,2.2l0.8-1.4c0.4-0.7,0.8-1,1.3-1
		c0.3,0,0.5,0.2,0.5,0.6c0,0.2-0.1,0.6-0.2,0.8c-0.2,0-0.3-0.1-0.5-0.1c-1,0-2,1.1-2.1,3.9l-0.1,2.3H173L173.8,93.3z"/>
	<path class="st2" d="M177.6,97.5l0.4-1.8c0.1-0.5,0.2-1.4,0.2-1.9s-0.3-0.8-0.7-0.9v-0.3c0.4-0.2,0.7-0.3,1.2-0.3s0.8,0.3,0.8,0.7
		c0,0.5-0.2,1.5-0.3,2.4l-0.3,1.7c-0.1,0.3-0.1,0.9-0.1,1.2c0,0.4,0.2,0.7,0.5,0.7c0.7,0,2-1.3,2.2-3.7l0.2-2.7
		c0.4-0.2,0.9-0.3,1.4-0.3l-0.4,2.4c-0.2,1.1-0.4,2.5-0.4,3.4c0,1,0.2,1.2,0.7,1.3v0.3c-0.4,0.1-0.9,0.2-1.4,0.2
		c-0.2,0-0.4,0-0.6-0.1l0.4-2.1c-0.6,1.1-1.7,2.3-2.6,2.3c-0.7,0-1.2-0.6-1.2-1.4C177.5,98.3,177.6,97.9,177.6,97.5L177.6,97.5z"/>
	<path class="st2" d="M184,97.4c0-3.4,1.6-5.1,3.2-5.1c0.9,0,1.3,0.3,1.3,0.7s-0.1,0.8-0.4,1.1c-0.3-0.6-0.8-0.9-1.3-0.9
		c-0.7,0-1.7,1.2-1.7,3.9c0,1.4,0.6,2,1.1,2c0.6,0,1.2-0.4,1.6-0.9c0.1,0.1,0.1,0.2,0.1,0.4c0,0.8-0.7,1.5-2.1,1.5
		C184.9,100.2,184,99.3,184,97.4L184,97.4z"/>
	<path class="st2" d="M189.8,94.5l0.2-1c-0.3,0-0.5,0-0.9,0v-0.2c0.5-0.7,1.3-1.4,2.1-1.9h0.2l-0.3,1.3h0.4c0.4,0,0.8,0,1.2-0.1
		c0,0.7-0.4,1-1.3,1H191l-0.3,1.6c-0.1,0.7-0.3,2-0.3,2.7c0,1,0.5,1.5,1.2,1.5c0.2,0,0.4,0,0.6-0.1v0.3c-0.1,0.4-0.7,0.7-1.4,0.7
		c-1,0-1.6-0.7-1.6-1.9C189.3,97.3,189.5,95.7,189.8,94.5z"/>
	<path class="st2" d="M193.4,97.5l0.4-1.8c0.1-0.5,0.2-1.4,0.2-1.9s-0.3-0.8-0.7-0.9v-0.3c0.4-0.2,0.7-0.3,1.2-0.3s0.8,0.3,0.8,0.7
		c0,0.5-0.2,1.5-0.3,2.4l-0.3,1.7c-0.1,0.3-0.1,0.9-0.1,1.2c0,0.4,0.2,0.7,0.5,0.7c0.7,0,2-1.3,2.2-3.7l0.2-2.7
		c0.4-0.2,0.9-0.3,1.4-0.3l-0.4,2.4c-0.2,1.1-0.4,2.5-0.4,3.4c0,1,0.2,1.2,0.7,1.3v0.3c-0.5,0.1-0.9,0.2-1.4,0.2
		c-0.2,0-0.4,0-0.6-0.1l0.4-2.1c-0.6,1.1-1.7,2.3-2.6,2.3c-0.7,0-1.2-0.6-1.2-1.4C193.3,98.3,193.4,97.9,193.4,97.5L193.4,97.5z"/>
	<path class="st2" d="M200.2,97.5l0.4-1.8c0.1-0.5,0.2-1.4,0.2-1.9s-0.3-0.8-0.7-0.9v-0.3c0.4-0.2,0.7-0.3,1.2-0.3s0.8,0.3,0.8,0.7
		c0,0.5-0.2,1.5-0.3,2.4l-0.3,1.7c-0.1,0.3-0.1,0.9-0.1,1.2c0,0.4,0.2,0.7,0.5,0.7c0.7,0,2-1.3,2.2-3.7l0.2-2.7
		c0.4-0.2,0.9-0.3,1.4-0.3l-0.4,2.4c-0.2,1.1-0.4,2.5-0.4,3.4c0,1,0.2,1.2,0.7,1.3v0.3c-0.5,0.1-0.9,0.2-1.4,0.2
		c-0.2,0-0.4,0-0.6-0.1l0.4-2.1c-0.6,1.1-1.7,2.3-2.6,2.3c-0.7,0-1.2-0.6-1.2-1.4C200,98.3,200.1,97.9,200.2,97.5L200.2,97.5z"/>
	<path class="st2" d="M207.6,93.3l-0.9-0.3v-0.3c0.5-0.2,1-0.3,1.5-0.3c0.2,0,0.4,0,0.7,0.1l-0.5,2.2l0.8-1.4c0.4-0.7,0.8-1,1.3-1
		c0.3,0,0.5,0.2,0.5,0.6c0,0.2-0.1,0.6-0.2,0.8c-0.2,0-0.3-0.1-0.5-0.1c-1,0-2,1.1-2.1,3.9l-0.1,2.3h-1.3L207.6,93.3z"/>
	<path class="st2" d="M216.8,92.4c1.1,0,1.7,0.5,1.7,1.6c0,1.8-1.9,2.9-3.7,2.9c0,1.9,0.5,2.3,1.4,2.3c0.6,0,1.4-0.3,1.7-0.8
		c0.1,0.1,0.2,0.2,0.2,0.4c0,0.7-1,1.4-2.2,1.4c-1.3,0-2.2-0.9-2.2-2.7C213.5,94,215.3,92.4,216.8,92.4z M217.2,94.2
		c0-0.7-0.3-1-0.7-1c-0.7,0-1.7,1.2-1.7,3C216.2,96.2,217.2,95.4,217.2,94.2z"/>
	<path class="st2" d="M220,93.3l-0.9-0.3v-0.3c0.5-0.2,1-0.3,1.5-0.3c0.2,0,0.4,0,0.6,0.1l-0.5,2.4c0.7-1.6,1.7-2.5,2.8-2.5
		c0.7,0,1.2,0.5,1.2,1.4c0,0.5-0.1,1.3-0.2,2l-0.3,1.7c0,0.4-0.1,1-0.1,1.3c0,0.5,0.2,0.7,0.7,0.8v0.3c-0.4,0.2-0.8,0.3-1.2,0.3
		s-0.8-0.3-0.8-0.7s0.1-1.1,0.2-1.6l0.3-1.8c0.1-0.5,0.2-1.1,0.2-1.6c0-0.7-0.3-0.9-0.7-0.9c-0.9,0-2.1,1.7-2.2,3.9l-0.1,2.6h-1.3
		L220,93.3z"/>
	<path class="st2" d="M229.1,90.8l-0.8-0.3v-0.3c0.5-0.2,0.9-0.2,1.3-0.2c0.5,0,0.8,0,1.2,0.2v0.3c-0.3,0.1-0.4,0.3-0.4,0.4l0.7,7.2
		l2.5-8L235,90l0.6,8.3l2.4-7.5l-0.8-0.2v-0.3c0.5-0.2,1-0.2,1.5-0.2c0.3,0,0.6,0,0.9,0.2v0.3c-0.3,0.1-0.5,0.2-0.5,0.4l-3.3,9.2
		h-1.1l-0.7-8.7l-2.7,8.7h-1L229.1,90.8z"/>
	<path class="st2" d="M239,97.4c0-3.2,1.8-5,3.9-5c0.5,0,1.2,0.1,1.7,0.2l-0.5,2.7c-0.2,0.8-0.3,2.2-0.4,2.9c0,1,0.2,1.2,0.7,1.3
		v0.3c-0.4,0.1-0.9,0.2-1.4,0.2c-0.2,0-0.4,0-0.7-0.1l0.4-2.3c-0.6,1.5-1.6,2.5-2.4,2.5C239.7,100.2,239,99.2,239,97.4z M242.9,95.9
		l0.4-2.6c-0.2-0.1-0.6-0.1-0.8-0.1c-1.3,0-2.3,1.3-2.3,4c0,1.3,0.4,1.9,0.8,1.9C241.6,99.1,242.5,98.1,242.9,95.9L242.9,95.9z"/>
	<path class="st2" d="M246.4,94.5l0.2-1c-0.3,0-0.5,0-0.9,0v-0.2c0.5-0.7,1.3-1.4,2.1-1.9h0.2l-0.3,1.3h0.4c0.4,0,0.8,0,1.2-0.1
		c0,0.7-0.4,1-1.3,1h-0.4l-0.3,1.6c-0.1,0.7-0.3,2-0.3,2.7c0,1,0.5,1.5,1.2,1.5c0.2,0,0.4,0,0.6-0.1v0.3c-0.1,0.4-0.7,0.7-1.4,0.7
		c-1,0-1.6-0.7-1.6-1.9C245.9,97.3,246.2,95.7,246.4,94.5z"/>
	<path class="st2" d="M252.9,92.4c1.1,0,1.7,0.5,1.7,1.6c0,1.8-1.9,2.9-3.7,2.9c0,1.9,0.5,2.3,1.4,2.3c0.6,0,1.4-0.3,1.7-0.8
		c0.1,0.1,0.2,0.2,0.2,0.4c0,0.7-1,1.4-2.2,1.4c-1.3,0-2.2-0.9-2.2-2.7C249.7,94,251.4,92.4,252.9,92.4z M253.3,94.2
		c0-0.7-0.3-1-0.7-1c-0.7,0-1.7,1.2-1.7,3C252.3,96.2,253.3,95.4,253.3,94.2z"/>
	<path class="st2" d="M256.2,93.3l-0.9-0.3v-0.3c0.5-0.2,1-0.3,1.5-0.3c0.2,0,0.4,0,0.7,0.1l-0.5,2.2l0.8-1.4c0.4-0.7,0.8-1,1.3-1
		c0.3,0,0.5,0.2,0.5,0.6c0,0.2-0.1,0.6-0.2,0.8c-0.2,0-0.3-0.1-0.5-0.1c-1,0-2,1.1-2.1,3.9l-0.1,2.3h-1.3L256.2,93.3z"/>
	<path class="st2" d="M259.3,98.6c0.4,0.4,0.9,0.7,1.5,0.7c0.7,0,1.3-0.4,1.3-1.1c0-0.5-0.2-0.9-1-1.5l-0.5-0.5
		c-0.7-0.7-0.9-1.1-0.9-1.8c0-1,1-2,2.4-2c1.1,0,1.7,0.3,1.7,0.8c0,0.3-0.1,0.6-0.3,0.8c-0.5-0.5-1.1-0.8-1.7-0.8
		c-0.7,0-1,0.4-1,0.9c0,0.4,0.2,0.7,1,1.4l0.6,0.5c0.7,0.7,1,1.1,1,1.8c0,1.2-1.2,2.3-2.9,2.3c-1,0-1.4-0.3-1.4-0.9
		C259.1,99,259.2,98.8,259.3,98.6L259.3,98.6z"/>
	<path class="st2" d="M265.3,94.5l0.2-1c-0.3,0-0.5,0-0.9,0v-0.2c0.5-0.7,1.3-1.4,2.1-1.9h0.2l-0.3,1.3h0.4c0.4,0,0.8,0,1.2-0.1
		c0,0.7-0.4,1-1.3,1h-0.4l-0.3,1.6c-0.1,0.7-0.3,2-0.3,2.7c0,1,0.5,1.5,1.2,1.5c0.2,0,0.4,0,0.6-0.1v0.3c-0.1,0.4-0.7,0.7-1.4,0.7
		c-1,0-1.6-0.7-1.6-1.9C264.8,97.3,265,95.7,265.3,94.5L265.3,94.5z"/>
	<path class="st2" d="M268.5,97.4c0-3.2,1.8-5,3.9-5c0.5,0,1.2,0.1,1.7,0.2l-0.5,2.7c-0.2,0.8-0.3,2.2-0.4,2.9c0,1,0.2,1.2,0.7,1.3
		v0.3c-0.4,0.1-0.9,0.2-1.4,0.2c-0.2,0-0.4,0-0.7-0.1l0.4-2.3c-0.6,1.5-1.6,2.5-2.4,2.5C269.2,100.2,268.5,99.2,268.5,97.4
		L268.5,97.4z M272.4,95.9l0.4-2.6c-0.2-0.1-0.6-0.1-0.8-0.1c-1.3,0-2.3,1.3-2.3,4c0,1.3,0.4,1.9,0.8,1.9
		C271.1,99.1,272,98.1,272.4,95.9z"/>
	<path class="st2" d="M275.1,97.4c0-3.2,1.8-5,3.9-5c0.5,0,1.2,0.1,1.7,0.2l-0.5,2.7c-0.2,0.8-0.3,2.2-0.4,2.9c0,1,0.2,1.2,0.7,1.3
		v0.3c-0.4,0.1-0.9,0.2-1.4,0.2c-0.2,0-0.4,0-0.7-0.1l0.4-2.3c-0.6,1.5-1.6,2.5-2.4,2.5C275.8,100.2,275.1,99.2,275.1,97.4
		L275.1,97.4z M279,95.9l0.4-2.6c-0.2-0.1-0.6-0.1-0.8-0.1c-1.3,0-2.3,1.3-2.3,4c0,1.3,0.4,1.9,0.8,1.9
		C277.8,99.1,278.7,98.1,279,95.9z"/>
	<path class="st2" d="M282.5,94.5l0.2-1c-0.3,0-0.5,0-0.9,0v-0.2c0.5-0.7,1.3-1.4,2.1-1.9h0.2l-0.3,1.3h0.4c0.4,0,0.8,0,1.2-0.1
		c0,0.7-0.4,1-1.3,1h-0.4l-0.3,1.6c-0.1,0.7-0.3,2-0.3,2.7c0,1,0.5,1.5,1.2,1.5c0.2,0,0.4,0,0.6-0.1v0.3c-0.1,0.4-0.7,0.7-1.4,0.7
		c-1,0-1.6-0.7-1.6-1.9C282.1,97.3,282.3,95.7,282.5,94.5L282.5,94.5z"/>
</g>
</svg>
