<?xml version="1.0" encoding="utf-8"?>
<!-- Generator: Adobe Illustrator 21.1.0, SVG Export Plug-In . SVG Version: 6.00 Build 0)  -->
<svg version="1.1" id="Layer_1" xmlns="http://www.w3.org/2000/svg" xmlns:xlink="http://www.w3.org/1999/xlink" x="0px" y="0px"
	 viewBox="0 0 184.2 99.9" style="enable-background:new 0 0 184.2 99.9;" xml:space="preserve">
<style type="text/css">
	.st0{fill:#4B9156;}
	.st1{fill:#3D6C35;}
	.st2{fill:none;stroke:#619958;stroke-width:3.8;stroke-miterlimit:10;}
	.st3{fill:none;}
	.st4{fill:#3C3C3B;}
	.st5{fill:#1E1E1E;}
	.st6{fill:#DADADA;}
	.st7{fill:#FFFFFF;}
	.st8{fill:#619958;}
	.st9{fill:#FCCA4C;}
	.st10{fill:#DFE5F2;}
</style>
<path class="st0" d="M184.2,45.7c0.1-0.1,0-0.2-0.1-0.3c-1.1-0.6-2.3-0.9-3.5-1c-2,0-4,1.6-4.8,4c0,0.1,0,0.2,0.1,0.2
	c1.4,1.3,3.5,1.5,5.2,0.6C182.4,48.5,183.6,47.3,184.2,45.7z"/>
<path class="st0" d="M161.4,24.1c0-0.1-0.2-0.2-0.3-0.1c-1.1,0.5-2.2,1.2-3,2.1c-1.3,1.5-1.3,4.1,0,6.3c0,0.1,0.1,0.1,0.2,0.1
	c1.9-0.3,3.4-1.7,3.8-3.6C162.5,27.2,162.2,25.5,161.4,24.1z"/>
<path class="st0" d="M147.8,51.4c-0.1,0-0.2,0-0.3,0.1c-0.3,1.2-0.4,2.4-0.2,3.7c0.7,2.2,2.7,3.7,5,3.8c0.1,0,0.2,0,0.2-0.1
	c0.9-1.7,0.7-3.8-0.6-5.2C151,52.4,149.5,51.6,147.8,51.4z"/>
<path class="st0" d="M116.2,12c-0.1,0-0.2,0.1-0.2,0.2c0.2,1.2,0.7,2.4,1.4,3.4c1.2,1.6,3.7,2.2,6.1,1.3c0.1,0,0.1-0.1,0.1-0.2
	c0.1-1.9-0.9-3.7-2.7-4.5C119.5,11.6,117.8,11.5,116.2,12z"/>
<path class="st1" d="M162.6,14.9h5c0.1,0,0.2,0.1,0.2,0.2v0.3c0,0.1-0.1,0.2-0.2,0.2h-5c-0.1,0-0.2-0.1-0.2-0.2v-0.3
	C162.4,15,162.5,14.9,162.6,14.9z"/>
<path class="st1" d="M162.6,17.5h5c0.1,0,0.2,0.1,0.2,0.2v0.3c0,0.1-0.1,0.2-0.2,0.2h-5c-0.1,0-0.2-0.1-0.2-0.2v-0.3
	C162.4,17.6,162.5,17.5,162.6,17.5z"/>
<path class="st2" d="M119.8,60.5h45.8c4.8,0,8.7-3.9,8.7-8.7v-9.2c0-4.8-3.9-8.7-8.7-8.7h-36.4c-4.8,0-8.7-3.9-8.7-8.7c0,0,0,0,0,0
	l0,0c0-4.8,3.9-8.7,8.7-8.7h28.4"/>
<path class="st0" d="M156.8,13.2h5.7c1.1,0,2.1,0.9,2.1,2.1v3c0,1.1-0.9,2.1-2.1,2.1h-5.7c-1.1,0-2.1-0.9-2.1-2.1v-3
	C154.8,14.1,155.7,13.2,156.8,13.2z"/>
<path class="st3" d="M57.7,0c0,13-10.5,23.5-23.5,23.5S10.7,13,10.7,0H57.7z"/>
<circle class="st4" cx="111" cy="76.1" r="23.7"/>
<circle class="st5" cx="111" cy="76.1" r="12.4"/>
<circle class="st6" cx="111" cy="76.1" r="8.8"/>
<circle class="st4" cx="25" cy="76.2" r="23.7"/>
<circle class="st5" cx="25" cy="76.2" r="12.4"/>
<circle class="st6" cx="25" cy="76.2" r="8.8"/>
<path class="st7" d="M52.1,9c-3.5-0.9-2.6-0.6-9.5-0.2c-0.8,5.5-1.3,11.1-1.3,16.7c-0.1,13,2,25.9,6.1,38.2l-28.8-9.5
	c2.5-1.9,4.7-4.1,6.6-6.6C37.8,31.3,32,9.1,30.6,4.1l21.8,2.4"/>
<ellipse class="st0" cx="52.3" cy="7.7" rx="0.9" ry="1.3"/>
<ellipse class="st4" cx="52.4" cy="7.7" rx="0.9" ry="1.3"/>
<path class="st7" d="M129.8,66.1c0.5-6.7,0.6-13.4,0.2-20.1c0.1-1-0.1-2-0.4-3c-3.4-7.7-23.2-6.3-48.3-4.5c-2.3,0.2-7,0.5-7.9,2.6
	c-1,2.5,4.6,5,7.7,10.5c2.2,4.1,2.7,8.9,1.5,13.3L129.8,66.1z"/>
<path class="st0" d="M50.3,73.1h-50c0-13.8,11.2-25,25-25S50.3,59.3,50.3,73.1z"/>
<path class="st8" d="M50,74.8H0c0-13.8,11.2-25,25-25S50,61,50,74.8z"/>
<path class="st8" d="M136,74.7H86c0-13.8,11.2-25,25-25S136,60.9,136,74.7z"/>
<path class="st8" d="M135.5,74.7l7.5-0.2c0.4,0,0.9-0.1,1.2-0.4c0.9-0.9,0.2-2.9-0.1-3.7c-1.5-4.4-16-14.4-18.4-16"/>
<rect x="45.2" y="63.8" class="st8" width="48" height="11"/>
<path class="st8" d="M75.2,44.7c3.5,1.3,7.1,2.3,10.7,3c6.1,1.2,12.4,1.7,18.6,1.3c-8.5,2.3-17.5,2-25.9-0.8L75.2,44.7z"/>
<path class="st7" d="M30.6,4.1l-7-0.4h-0.3c0.8,1.2,1.4,2.6,1.7,4c0.5,2.9-0.2,5.9-1.9,8.3c1.7-0.3,3.5-0.1,5.1,0.6
	c3.1,1.5,5,5.1,4.8,9.1c1.5-4.3,1.9-9,0.9-13.5C33.3,9.3,32.2,6.6,30.6,4.1z"/>
<path class="st7" d="M101.1,60.5h23.9c0.3,0,0.5,0.2,0.5,0.5v0.7c0,0.3-0.2,0.5-0.5,0.5h-23.9c-0.3,0-0.5-0.2-0.5-0.5V61
	C100.6,60.7,100.9,60.5,101.1,60.5z"/>
<path class="st7" d="M101.1,63.8h30.7c0.3,0,0.5,0.2,0.5,0.5V65c0,0.3-0.2,0.5-0.5,0.5h-30.7c-0.3,0-0.5-0.2-0.5-0.5v-0.7
	C100.6,64.1,100.8,63.8,101.1,63.8z"/>
<path class="st7" d="M101.1,67h35.4c0.2,0,0.5,0.2,0.5,0.5v0.7c0,0.2-0.2,0.5-0.5,0.5h-35.4c-0.2,0-0.5-0.2-0.5-0.5v-0.7
	C100.6,67.2,100.8,67,101.1,67z"/>
<ellipse class="st0" cx="23.7" cy="9.9" rx="3.1" ry="6.2"/>
<ellipse class="st9" cx="23.1" cy="9.9" rx="3.1" ry="6.2"/>
<ellipse transform="matrix(0.5959 -0.803 0.803 0.5959 4.4373 20.1305)" class="st10" cx="22.2" cy="5.7" rx="1.7" ry="0.8"/>
</svg>
